<svg width="336" height="276" viewBox="0 0 336 276" fill="none" xmlns="http://www.w3.org/2000/svg">
<g filter="url(#filter0_d_0_172)">
<rect x="8" width="320" height="260" rx="5" fill="white"/>
<g clip-path="url(#clip0_0_172)">
<path d="M69.4549 145.797C69.1865 145.802 68.9268 145.894 68.7141 146.057C68.0827 144.389 67.1053 143.317 66.0072 143.317C64.9091 143.317 63.9317 144.389 63.3003 146.057C63.0876 145.894 62.8279 145.802 62.5595 145.797C61.312 145.797 60.3007 147.907 60.3007 150.509H71.7137C71.7137 147.907 70.7024 145.797 69.4549 145.797Z" fill="#00BAFC"/>
<path d="M114.803 150.246H56.9369V150.772H114.803V150.246Z" fill="#3F3D56"/>
<path d="M275.142 134.743C274.874 134.748 274.614 134.84 274.401 135.003C273.77 133.335 272.792 132.263 271.694 132.263C270.596 132.263 269.619 133.335 268.987 135.003C268.775 134.84 268.515 134.748 268.247 134.743C266.999 134.743 265.988 136.853 265.988 139.455H277.401C277.401 136.853 276.389 134.743 275.142 134.743Z" fill="#00BAFC"/>
<path d="M250.585 48.1599H195.483V47.0242H170.498V48.1599H115.17C114.68 48.1599 114.196 48.2563 113.743 48.4436C113.291 48.6309 112.88 48.9054 112.534 49.2515C112.188 49.5976 111.914 50.0085 111.726 50.4607C111.539 50.9129 111.443 51.3976 111.443 51.8871V127.338C111.443 128.326 111.835 129.274 112.534 129.973C113.233 130.672 114.181 131.065 115.17 131.065H250.585C251.573 131.065 252.521 130.672 253.22 129.973C253.919 129.274 254.312 128.326 254.312 127.338V51.8871C254.312 51.3976 254.216 50.9129 254.028 50.4607C253.841 50.0085 253.566 49.5976 253.22 49.2515C252.874 48.9054 252.463 48.6309 252.011 48.4436C251.559 48.2563 251.074 48.1599 250.585 48.1599Z" fill="#3F3D56"/>
<path opacity="0.2" d="M249.314 54.7458H116.441V129.703H249.314V54.7458Z" fill="black"/>
<path d="M182.764 52.7026C183.516 52.7026 184.127 52.0924 184.127 51.3398C184.127 50.5871 183.516 49.9769 182.764 49.9769C182.011 49.9769 181.401 50.5871 181.401 51.3398C181.401 52.0924 182.011 52.7026 182.764 52.7026Z" fill="#00BAFC"/>
<path d="M279.063 138.929H86.2645V139.455H279.063V138.929Z" fill="#3F3D56"/>
<path d="M201.032 82.7512V77.2055C201.032 76.312 200.856 75.4272 200.514 74.6017C200.172 73.7762 199.671 73.0261 199.039 72.3942C198.407 71.7624 197.657 71.2612 196.831 70.9193C196.006 70.5773 195.121 70.4013 194.227 70.4013H188.682C188.682 69.6527 186.276 69.0394 183.219 68.9813V62.2936C184.178 62.1728 185.055 61.691 185.672 60.9464C186.288 60.2017 186.597 59.2502 186.537 58.2855C186.476 57.3208 186.05 56.4154 185.346 55.7536C184.641 55.0919 183.711 54.7235 182.744 54.7235C181.778 54.7235 180.847 55.0919 180.143 55.7536C179.438 56.4154 179.012 57.3208 178.952 58.2855C178.891 59.2502 179.201 60.2017 179.817 60.9464C180.433 61.691 181.31 62.1728 182.269 62.2936V68.9813C179.213 69.0394 176.807 69.6527 176.807 70.4013H170.311C169.418 70.4013 168.533 70.5773 167.707 70.9193C166.882 71.2612 166.132 71.7624 165.5 72.3942C164.868 73.0261 164.367 73.7762 164.025 74.6017C163.683 75.4272 163.507 76.312 163.507 77.2055V82.7512C162.72 82.7512 162.082 85.4094 162.082 88.6886C162.082 91.9678 162.72 94.626 163.507 94.626V101.122C163.507 102.015 163.683 102.9 164.025 103.726C164.367 104.551 164.868 105.301 165.5 105.933C166.132 106.565 166.882 107.066 167.707 107.408C168.533 107.75 169.418 107.926 170.311 107.926H194.227C195.121 107.926 196.006 107.75 196.831 107.408C197.657 107.066 198.407 106.565 199.039 105.933C199.671 105.301 200.172 104.551 200.514 103.726C200.856 102.9 201.032 102.015 201.032 101.122V94.626C201.819 94.626 202.457 91.9677 202.457 88.6886C202.457 85.4094 201.819 82.7512 201.032 82.7512Z" fill="#00BAFC"/>
<path d="M171.674 72.5388H192.865C194.464 72.5388 195.998 73.174 197.128 74.3047C198.259 75.4354 198.894 76.9689 198.894 78.5679V99.7594C198.894 101.358 198.259 102.892 197.128 104.023C195.998 105.153 194.464 105.788 192.865 105.788H171.674C170.075 105.788 168.541 105.153 167.41 104.023C166.28 102.892 165.645 101.358 165.645 99.7594V78.5679C165.645 76.9689 166.28 75.4354 167.41 74.3047C168.541 73.174 170.075 72.5388 171.674 72.5388Z" fill="#3F3D56"/>
<path d="M174.669 88.3324C173.536 88.3311 172.449 87.8803 171.648 87.0789C170.847 86.2774 170.396 85.1908 170.394 84.0574C170.394 83.9945 170.419 83.934 170.464 83.8895C170.509 83.845 170.569 83.8199 170.632 83.8199C170.695 83.8199 170.755 83.845 170.8 83.8895C170.844 83.934 170.869 83.9945 170.869 84.0574C170.869 85.0652 171.27 86.0318 171.982 86.7444C172.695 87.457 173.662 87.8574 174.669 87.8574C175.677 87.8574 176.644 87.457 177.356 86.7444C178.069 86.0318 178.469 85.0652 178.469 84.0574C178.469 83.9945 178.494 83.934 178.539 83.8895C178.583 83.845 178.644 83.8199 178.707 83.8199C178.77 83.8199 178.83 83.845 178.875 83.8895C178.919 83.934 178.944 83.9945 178.944 84.0574C178.943 85.1908 178.492 86.2774 177.691 87.0789C176.889 87.8803 175.803 88.3311 174.669 88.3324Z" fill="#00BAFC"/>
<path d="M182.269 96.4073C181.388 96.4063 180.543 96.0557 179.919 95.4324C179.296 94.809 178.945 93.9639 178.944 93.0823C178.944 93.0194 178.969 92.9589 179.014 92.9144C179.058 92.8699 179.119 92.8448 179.182 92.8448C179.245 92.8448 179.305 92.8699 179.35 92.9144C179.394 92.9589 179.419 93.0194 179.419 93.0823C179.419 93.8382 179.72 94.5631 180.254 95.0976C180.789 95.6321 181.513 95.9323 182.269 95.9323C183.025 95.9323 183.75 95.6321 184.285 95.0976C184.819 94.5631 185.119 93.8382 185.119 93.0823C185.119 93.0194 185.144 92.9589 185.189 92.9144C185.233 92.8699 185.294 92.8448 185.357 92.8448C185.42 92.8448 185.48 92.8699 185.525 92.9144C185.569 92.9589 185.594 93.0194 185.594 93.0823C185.593 93.9639 185.243 94.809 184.619 95.4324C183.996 96.0557 183.151 96.4063 182.269 96.4073Z" fill="#00BAFC"/>
<path d="M189.869 88.3324C188.736 88.3311 187.649 87.8803 186.848 87.0789C186.046 86.2774 185.596 85.1908 185.594 84.0574C185.594 83.9945 185.619 83.934 185.664 83.8895C185.708 83.845 185.769 83.8199 185.832 83.8199C185.895 83.8199 185.955 83.845 186 83.8895C186.044 83.934 186.069 83.9945 186.069 84.0574C186.069 85.0652 186.47 86.0318 187.182 86.7444C187.895 87.457 188.861 87.8574 189.869 87.8574C190.877 87.8574 191.844 87.457 192.556 86.7444C193.269 86.0318 193.669 85.0652 193.669 84.0574C193.669 83.9945 193.694 83.934 193.739 83.8895C193.783 83.845 193.844 83.8199 193.907 83.8199C193.97 83.8199 194.03 83.845 194.075 83.8895C194.119 83.934 194.144 83.9945 194.144 84.0574C194.143 85.1908 193.692 86.2774 192.891 87.0789C192.089 87.8803 191.003 88.3311 189.869 88.3324Z" fill="#00BAFC"/>
<path d="M174.669 86.4324C175.85 86.4324 176.807 85.4754 176.807 84.2949C176.807 83.1144 175.85 82.1575 174.669 82.1575C173.489 82.1575 172.532 83.1144 172.532 84.2949C172.532 85.4754 173.489 86.4324 174.669 86.4324Z" fill="#00BAFC"/>
<path d="M189.869 86.4324C191.05 86.4324 192.007 85.4754 192.007 84.2949C192.007 83.1144 191.05 82.1575 189.869 82.1575C188.689 82.1575 187.732 83.1144 187.732 84.2949C187.732 85.4754 188.689 86.4324 189.869 86.4324Z" fill="#00BAFC"/>
<path d="M182.269 95.2198C183.319 95.2198 184.169 94.7945 184.169 94.2698C184.169 93.7451 183.319 93.3198 182.269 93.3198C181.22 93.3198 180.369 93.7451 180.369 94.2698C180.369 94.7945 181.22 95.2198 182.269 95.2198Z" fill="#00BAFC"/>
<path d="M258.043 128.339H245.075V127.405C245.075 127.381 245.07 127.357 245.061 127.334C245.052 127.312 245.038 127.291 245.021 127.274C245.004 127.257 244.983 127.243 244.961 127.234C244.938 127.225 244.914 127.22 244.89 127.22H240.444C240.419 127.22 240.395 127.225 240.373 127.234C240.35 127.243 240.33 127.257 240.313 127.274C240.296 127.291 240.282 127.312 240.273 127.334C240.263 127.357 240.259 127.381 240.259 127.405V128.339H237.48V127.405C237.48 127.381 237.475 127.357 237.466 127.334C237.456 127.312 237.443 127.291 237.425 127.274C237.408 127.257 237.388 127.243 237.365 127.234C237.343 127.225 237.319 127.22 237.294 127.22H232.848C232.824 127.22 232.8 127.225 232.778 127.234C232.755 127.243 232.735 127.257 232.717 127.274C232.7 127.291 232.687 127.312 232.677 127.334C232.668 127.357 232.663 127.381 232.663 127.405V128.339H229.884V127.405C229.884 127.381 229.88 127.357 229.87 127.334C229.861 127.312 229.847 127.291 229.83 127.274C229.813 127.257 229.792 127.243 229.77 127.234C229.747 127.225 229.723 127.22 229.699 127.22H225.253C225.229 127.22 225.205 127.225 225.182 127.234C225.16 127.243 225.139 127.257 225.122 127.274C225.105 127.291 225.091 127.312 225.082 127.334C225.073 127.357 225.068 127.381 225.068 127.405V128.339H222.289V127.405C222.289 127.381 222.284 127.357 222.275 127.334C222.265 127.312 222.252 127.291 222.235 127.274C222.217 127.257 222.197 127.243 222.175 127.234C222.152 127.225 222.128 127.22 222.104 127.22H217.658C217.633 127.22 217.609 127.225 217.587 127.234C217.564 127.243 217.544 127.257 217.527 127.274C217.509 127.291 217.496 127.312 217.486 127.334C217.477 127.357 217.472 127.381 217.472 127.405V128.339H214.693V127.405C214.693 127.381 214.689 127.357 214.679 127.334C214.67 127.312 214.656 127.291 214.639 127.274C214.622 127.257 214.602 127.243 214.579 127.234C214.557 127.225 214.533 127.22 214.508 127.22H210.062C210.038 127.22 210.014 127.225 209.991 127.234C209.969 127.243 209.948 127.257 209.931 127.274C209.914 127.291 209.9 127.312 209.891 127.334C209.882 127.357 209.877 127.381 209.877 127.405V128.339H207.098V127.405C207.098 127.381 207.093 127.357 207.084 127.334C207.075 127.312 207.061 127.291 207.044 127.274C207.027 127.257 207.006 127.243 206.984 127.234C206.961 127.225 206.937 127.22 206.913 127.22H202.467C202.442 127.22 202.418 127.225 202.396 127.234C202.373 127.243 202.353 127.257 202.336 127.274C202.319 127.291 202.305 127.312 202.296 127.334C202.286 127.357 202.281 127.381 202.281 127.405V128.339H199.503V127.405C199.503 127.381 199.498 127.357 199.489 127.334C199.479 127.312 199.466 127.291 199.448 127.274C199.431 127.257 199.411 127.243 199.388 127.234C199.366 127.225 199.342 127.22 199.317 127.22H164.49C164.465 127.22 164.441 127.225 164.419 127.234C164.396 127.243 164.376 127.257 164.359 127.274C164.341 127.291 164.328 127.312 164.318 127.334C164.309 127.357 164.304 127.381 164.304 127.405V128.339H161.526V127.405C161.526 127.381 161.521 127.357 161.511 127.334C161.502 127.312 161.489 127.291 161.471 127.274C161.454 127.257 161.434 127.243 161.411 127.234C161.389 127.225 161.365 127.22 161.34 127.22H156.894C156.87 127.22 156.846 127.225 156.823 127.234C156.801 127.243 156.78 127.257 156.763 127.274C156.746 127.291 156.732 127.312 156.723 127.334C156.714 127.357 156.709 127.381 156.709 127.405V128.339H153.93V127.405C153.93 127.381 153.925 127.357 153.916 127.334C153.907 127.312 153.893 127.291 153.876 127.274C153.859 127.257 153.838 127.243 153.816 127.234C153.793 127.225 153.769 127.22 153.745 127.22H149.299C149.274 127.22 149.25 127.225 149.228 127.234C149.205 127.243 149.185 127.257 149.168 127.274C149.151 127.291 149.137 127.312 149.128 127.334C149.118 127.357 149.114 127.381 149.114 127.405V128.339H146.335V127.405C146.335 127.381 146.33 127.357 146.321 127.334C146.311 127.312 146.298 127.291 146.28 127.274C146.263 127.257 146.243 127.243 146.22 127.234C146.198 127.225 146.174 127.22 146.149 127.22H141.703C141.679 127.22 141.655 127.225 141.633 127.234C141.61 127.243 141.59 127.257 141.572 127.274C141.555 127.291 141.542 127.312 141.532 127.334C141.523 127.357 141.518 127.381 141.518 127.405V128.339H138.739V127.405C138.739 127.381 138.735 127.357 138.725 127.334C138.716 127.312 138.702 127.291 138.685 127.274C138.668 127.257 138.647 127.243 138.625 127.234C138.603 127.225 138.578 127.22 138.554 127.22H134.108C134.084 127.22 134.06 127.225 134.037 127.234C134.015 127.243 133.994 127.257 133.977 127.274C133.96 127.291 133.946 127.312 133.937 127.334C133.928 127.357 133.923 127.381 133.923 127.405V128.339H131.144V127.405C131.144 127.381 131.139 127.357 131.13 127.334C131.121 127.312 131.107 127.291 131.09 127.274C131.072 127.257 131.052 127.243 131.03 127.234C131.007 127.225 130.983 127.22 130.959 127.22H126.513C126.488 127.22 126.464 127.225 126.442 127.234C126.419 127.243 126.399 127.257 126.382 127.274C126.364 127.291 126.351 127.312 126.341 127.334C126.332 127.357 126.327 127.381 126.327 127.405V128.339H123.549V127.405C123.549 127.381 123.544 127.357 123.534 127.334C123.525 127.312 123.511 127.291 123.494 127.274C123.477 127.257 123.457 127.243 123.434 127.234C123.412 127.225 123.388 127.22 123.363 127.22H118.917C118.893 127.22 118.869 127.225 118.846 127.234C118.824 127.243 118.803 127.257 118.786 127.274C118.769 127.291 118.755 127.312 118.746 127.334C118.737 127.357 118.732 127.381 118.732 127.405V128.339H110.21C109.626 128.339 109.048 128.454 108.509 128.678C107.969 128.901 107.479 129.229 107.066 129.642C106.653 130.055 106.326 130.545 106.103 131.084C105.879 131.624 105.764 132.202 105.764 132.786V134.796C105.764 135.975 106.233 137.106 107.066 137.94C107.9 138.774 109.031 139.242 110.21 139.242H258.043C259.222 139.242 260.353 138.774 261.187 137.94C262.021 137.106 262.489 135.975 262.489 134.796V132.786C262.489 132.202 262.374 131.624 262.151 131.084C261.927 130.545 261.6 130.055 261.187 129.642C260.774 129.229 260.284 128.901 259.744 128.678C259.205 128.454 258.627 128.339 258.043 128.339Z" fill="#3F3D56"/>
<path d="M225.406 107.629H136.766V108.155H225.406V107.629Z" fill="#00BAFC"/>
<path d="M143.078 107.366H121.247C121.946 99.1392 121.946 90.8681 121.247 82.6414H143.078C141.876 91.1094 141.806 99.3641 143.078 107.366Z" fill="#D0CDE1"/>
<path d="M140.185 87.6388H124.403V88.6909H140.185V87.6388Z" fill="#3F3D56"/>
<path d="M140.185 91.0582H124.403V92.1104H140.185V91.0582Z" fill="#3F3D56"/>
<path d="M140.185 94.4775H124.403V95.5296H140.185V94.4775Z" fill="#3F3D56"/>
<path d="M140.185 97.8969H124.403V98.949H140.185V97.8969Z" fill="#3F3D56"/>
<path d="M140.185 101.316H124.403V102.368H140.185V101.316Z" fill="#3F3D56"/>
<path d="M85.0661 24.8436C85.0661 24.8436 81.6359 23.6186 79.4308 28.5188C77.2257 33.4191 73.7955 38.8093 73.7955 38.8093L75.7556 39.2994C75.7556 39.2994 76.2457 35.8692 77.4707 35.3792L76.9807 39.7894C76.9807 39.7894 91.6815 44.9346 98.2968 39.2994L98.0518 37.5843C98.0518 37.5843 99.0318 37.8293 99.0318 39.2994L99.7669 38.5643C99.7669 38.5643 99.0318 37.0942 96.8267 35.1341C95.3794 33.8476 94.882 31.4 94.7111 29.8697C94.583 28.5919 94.0718 27.3827 93.2444 26.4005C91.779 24.7022 89.1088 22.8971 85.0661 24.8436Z" fill="#2F2E41"/>
<path d="M75.1739 132.929L76.226 138.979L80.4345 138.189L81.2235 132.929H75.1739Z" fill="#FFB9B9"/>
<path d="M81.2235 136.348L75.4369 136.874L75.6999 141.609L75.4369 147.659C75.4369 147.659 72.0175 154.497 77.0151 153.971C82.0126 153.445 81.4865 150.815 81.4865 150.815L82.8016 149.237L82.0126 145.291L81.2235 136.348Z" fill="#2F2E41"/>
<path d="M98.8463 132.929L97.7942 138.979L93.5858 138.189L92.7967 132.929H98.8463Z" fill="#FFB9B9"/>
<path d="M92.7967 136.348L98.5833 136.874L98.3202 141.609L98.5833 147.659C98.5833 147.659 102.003 154.497 97.0051 153.971C92.0076 153.445 92.5337 150.815 92.5337 150.815L91.2185 149.237L92.0076 145.291L92.7967 136.348Z" fill="#2F2E41"/>
<path d="M86.7471 41.1326C90.0882 41.1326 92.7967 38.4241 92.7967 35.0829C92.7967 31.7418 90.0882 29.0333 86.7471 29.0333C83.406 29.0333 80.6975 31.7418 80.6975 35.0829C80.6975 38.4241 83.406 41.1326 86.7471 41.1326Z" fill="#FFB9B9"/>
<path d="M82.8017 38.2393L83.5907 47.7082L90.9555 47.4452C90.9555 47.4452 88.8513 41.3956 90.1664 39.0283L82.8017 38.2393Z" fill="#FFB9B9"/>
<path d="M87.0101 45.867L90.0396 43.9775L93.3227 45.604L98.5833 47.9713L96.7421 70.3286C96.7421 70.3286 100.951 84.269 100.161 91.1077C99.3724 97.9464 108.841 132.14 101.214 133.718C93.5858 135.296 88.0622 136.874 87.7992 134.244C87.5362 131.614 87.0101 91.3707 87.0101 91.3707C87.0101 91.3707 86.221 133.981 83.0647 134.507C79.9084 135.033 66.231 137.137 67.2831 133.981C68.3352 130.825 75.4369 75.5891 78.8563 72.4328L79.3823 69.8025L74.9109 48.4973L83.3078 44.3124L87.0101 45.867Z" fill="#2F2E41"/>
<path d="M71.2284 78.4824L70.9654 89.2665C70.9654 89.2665 68.4335 99.9135 72.7242 99.8506C77.015 99.7876 73.8587 89.2665 73.8587 89.2665L75.6999 78.7454L71.2284 78.4824Z" fill="#FFB9B9"/>
<path d="M111.002 67.1641L118.393 75.0206C118.393 75.0206 127.384 81.261 124.146 84.0773C120.908 86.8935 116.239 76.9512 116.239 76.9512L107.847 70.3437L111.002 67.1641Z" fill="#FFB9B9"/>
<path d="M78.9878 71.7752L97.0025 71.2228L96.7684 69.9997V69.9945L79.356 69.6788L78.9878 71.7752Z" fill="#D0CDE1"/>
<path d="M82.6702 72.3012C83.5418 72.3012 84.2483 71.5947 84.2483 70.7231C84.2483 69.8515 83.5418 69.1449 82.6702 69.1449C81.7986 69.1449 81.092 69.8515 81.092 70.7231C81.092 71.5947 81.7986 72.3012 82.6702 72.3012Z" fill="#2F2E41"/>
<path d="M77.0151 48.7604L75.3054 48.3658C75.3054 48.3658 73.0697 49.2864 72.5436 52.1797C72.0175 55.073 65.1789 77.6933 68.5982 79.0085C72.0175 80.3236 77.0151 80.8497 77.0151 80.3236C77.0151 79.7976 79.1193 60.0705 79.1193 60.0705L77.0151 48.7604Z" fill="#2F2E41"/>
<path d="M93.1032 49.763L98.5833 47.9713C98.5833 47.9713 101.214 47.9713 101.214 50.8646C101.214 52.0582 106.255 61.8622 106.255 61.8622C106.255 61.8622 118.367 70.4961 116.513 70.8052C113.356 71.3312 111.515 76.8548 111.515 76.8548L99.6789 66.3337L93.1032 49.763Z" fill="#2F2E41"/>
<path d="M79.3688 35.5335C79.3688 35.5335 81.3289 32.8384 83.044 32.3484C84.7591 31.8584 85.0041 29.4082 85.0041 29.4082C85.0041 29.4082 89.4143 34.3085 92.1095 34.5535C94.8046 34.7985 92.3545 28.6732 92.3545 28.6732L87.4542 27.4481L82.799 27.9381L79.1238 30.3883L79.3688 35.5335Z" fill="#2F2E41"/>
<path d="M80.829 35.346C81.2648 35.346 81.6181 34.8161 81.6181 34.1624C81.6181 33.5087 81.2648 32.9788 80.829 32.9788C80.3932 32.9788 80.0399 33.5087 80.0399 34.1624C80.0399 34.8161 80.3932 35.346 80.829 35.346Z" fill="#FFB9B9"/>
</g>
<path d="M109.113 191H106.086V179.242H102.209V176.723H112.99V179.242H109.113V191ZM119.475 181.996C118.843 181.996 118.348 182.198 117.99 182.602C117.632 182.999 117.427 183.565 117.375 184.301H121.555C121.542 183.565 121.35 182.999 120.979 182.602C120.607 182.198 120.106 181.996 119.475 181.996ZM119.895 191.195C118.137 191.195 116.763 190.71 115.773 189.74C114.784 188.77 114.289 187.396 114.289 185.619C114.289 183.79 114.745 182.377 115.656 181.381C116.574 180.378 117.84 179.877 119.455 179.877C120.998 179.877 122.199 180.316 123.059 181.195C123.918 182.074 124.348 183.288 124.348 184.838V186.283H117.307C117.339 187.13 117.59 187.79 118.059 188.266C118.527 188.741 119.185 188.979 120.031 188.979C120.689 188.979 121.311 188.91 121.896 188.773C122.482 188.637 123.094 188.419 123.732 188.119V190.424C123.212 190.684 122.655 190.876 122.062 191C121.47 191.13 120.747 191.195 119.895 191.195ZM129.748 191H126.77V175.805H129.748V191ZM137.404 181.996C136.773 181.996 136.278 182.198 135.92 182.602C135.562 182.999 135.357 183.565 135.305 184.301H139.484C139.471 183.565 139.279 182.999 138.908 182.602C138.537 182.198 138.036 181.996 137.404 181.996ZM137.824 191.195C136.066 191.195 134.693 190.71 133.703 189.74C132.714 188.77 132.219 187.396 132.219 185.619C132.219 183.79 132.674 182.377 133.586 181.381C134.504 180.378 135.77 179.877 137.385 179.877C138.928 179.877 140.129 180.316 140.988 181.195C141.848 182.074 142.277 183.288 142.277 184.838V186.283H135.236C135.269 187.13 135.52 187.79 135.988 188.266C136.457 188.741 137.115 188.979 137.961 188.979C138.618 188.979 139.24 188.91 139.826 188.773C140.412 188.637 141.024 188.419 141.662 188.119V190.424C141.141 190.684 140.585 190.876 139.992 191C139.4 191.13 138.677 191.195 137.824 191.195ZM154.201 180.082V181.596L152.492 182.035C152.805 182.523 152.961 183.07 152.961 183.676C152.961 184.848 152.551 185.762 151.73 186.42C150.917 187.071 149.784 187.396 148.332 187.396L147.795 187.367L147.355 187.318C147.049 187.553 146.896 187.813 146.896 188.1C146.896 188.529 147.443 188.744 148.537 188.744H150.393C151.59 188.744 152.502 189.001 153.127 189.516C153.758 190.03 154.074 190.785 154.074 191.781C154.074 193.057 153.54 194.047 152.473 194.75C151.411 195.453 149.885 195.805 147.893 195.805C146.369 195.805 145.204 195.538 144.396 195.004C143.596 194.477 143.195 193.734 143.195 192.777C143.195 192.12 143.4 191.57 143.811 191.127C144.221 190.684 144.823 190.368 145.617 190.18C145.311 190.049 145.044 189.838 144.816 189.545C144.589 189.245 144.475 188.93 144.475 188.598C144.475 188.181 144.595 187.836 144.836 187.562C145.077 187.283 145.425 187.009 145.881 186.742C145.308 186.495 144.852 186.098 144.514 185.551C144.182 185.004 144.016 184.359 144.016 183.617C144.016 182.426 144.403 181.505 145.178 180.854C145.952 180.202 147.059 179.877 148.498 179.877C148.804 179.877 149.165 179.906 149.582 179.965C150.005 180.017 150.275 180.056 150.393 180.082H154.201ZM145.773 192.543C145.773 192.953 145.969 193.275 146.359 193.51C146.757 193.744 147.31 193.861 148.02 193.861C149.087 193.861 149.924 193.715 150.529 193.422C151.135 193.129 151.438 192.729 151.438 192.221C151.438 191.811 151.258 191.527 150.9 191.371C150.542 191.215 149.989 191.137 149.24 191.137H147.697C147.15 191.137 146.691 191.264 146.32 191.518C145.956 191.778 145.773 192.12 145.773 192.543ZM146.857 183.656C146.857 184.249 146.991 184.717 147.258 185.062C147.531 185.408 147.945 185.58 148.498 185.58C149.058 185.58 149.468 185.408 149.729 185.062C149.989 184.717 150.119 184.249 150.119 183.656C150.119 182.341 149.579 181.684 148.498 181.684C147.404 181.684 146.857 182.341 146.857 183.656ZM162.102 179.877C162.505 179.877 162.84 179.906 163.107 179.965L162.883 182.758C162.642 182.693 162.349 182.66 162.004 182.66C161.053 182.66 160.311 182.904 159.777 183.393C159.25 183.881 158.986 184.564 158.986 185.443V191H156.008V180.082H158.264L158.703 181.918H158.85C159.188 181.306 159.644 180.814 160.217 180.443C160.796 180.066 161.424 179.877 162.102 179.877ZM172.023 191L171.447 189.516H171.369C170.868 190.147 170.35 190.587 169.816 190.834C169.289 191.075 168.599 191.195 167.746 191.195C166.698 191.195 165.871 190.896 165.266 190.297C164.667 189.698 164.367 188.845 164.367 187.738C164.367 186.579 164.771 185.727 165.578 185.18C166.392 184.626 167.616 184.32 169.25 184.262L171.145 184.203V183.725C171.145 182.618 170.578 182.064 169.445 182.064C168.573 182.064 167.548 182.328 166.369 182.855L165.383 180.844C166.639 180.186 168.033 179.857 169.562 179.857C171.027 179.857 172.15 180.176 172.932 180.814C173.713 181.452 174.104 182.423 174.104 183.725V191H172.023ZM171.145 185.941L169.992 185.98C169.126 186.007 168.482 186.163 168.059 186.449C167.635 186.736 167.424 187.172 167.424 187.758C167.424 188.598 167.906 189.018 168.869 189.018C169.559 189.018 170.109 188.819 170.52 188.422C170.936 188.025 171.145 187.497 171.145 186.84V185.941ZM186.955 191H183.977V184.623C183.977 183.835 183.843 183.246 183.576 182.855C183.316 182.458 182.902 182.26 182.336 182.26C181.574 182.26 181.021 182.54 180.676 183.1C180.331 183.66 180.158 184.581 180.158 185.863V191H177.18V180.082H179.455L179.855 181.479H180.021C180.314 180.977 180.738 180.587 181.291 180.307C181.844 180.02 182.479 179.877 183.195 179.877C184.829 179.877 185.936 180.411 186.516 181.479H186.779C187.072 180.971 187.502 180.577 188.068 180.297C188.641 180.017 189.286 179.877 190.002 179.877C191.239 179.877 192.173 180.196 192.805 180.834C193.443 181.465 193.762 182.481 193.762 183.881V191H190.773V184.623C190.773 183.835 190.64 183.246 190.373 182.855C190.113 182.458 189.699 182.26 189.133 182.26C188.404 182.26 187.857 182.52 187.492 183.041C187.134 183.562 186.955 184.389 186.955 185.521V191ZM208.098 179.877C209.387 179.877 210.396 180.382 211.125 181.391C211.854 182.393 212.219 183.77 212.219 185.521C212.219 187.325 211.841 188.721 211.086 189.711C210.337 190.701 209.315 191.195 208.02 191.195C206.737 191.195 205.731 190.73 205.002 189.799H204.797L204.299 191H202.023V175.805H205.002V179.34C205.002 179.789 204.963 180.508 204.885 181.498H205.002C205.699 180.417 206.73 179.877 208.098 179.877ZM207.141 182.26C206.405 182.26 205.868 182.488 205.529 182.943C205.191 183.393 205.015 184.138 205.002 185.18V185.502C205.002 186.674 205.174 187.514 205.52 188.021C205.871 188.529 206.424 188.783 207.18 188.783C207.792 188.783 208.277 188.503 208.635 187.943C208.999 187.377 209.182 186.557 209.182 185.482C209.182 184.408 208.999 183.604 208.635 183.07C208.27 182.53 207.772 182.26 207.141 182.26ZM217.053 185.521C217.053 186.602 217.229 187.419 217.58 187.973C217.938 188.526 218.518 188.803 219.318 188.803C220.113 188.803 220.682 188.529 221.027 187.982C221.379 187.429 221.555 186.609 221.555 185.521C221.555 184.441 221.379 183.63 221.027 183.09C220.676 182.549 220.1 182.279 219.299 182.279C218.505 182.279 217.932 182.549 217.58 183.09C217.229 183.624 217.053 184.434 217.053 185.521ZM224.602 185.521C224.602 187.299 224.133 188.689 223.195 189.691C222.258 190.694 220.952 191.195 219.279 191.195C218.231 191.195 217.307 190.967 216.506 190.512C215.705 190.049 215.09 189.389 214.66 188.529C214.23 187.67 214.016 186.667 214.016 185.521C214.016 183.738 214.481 182.351 215.412 181.361C216.343 180.372 217.652 179.877 219.338 179.877C220.386 179.877 221.311 180.105 222.111 180.561C222.912 181.016 223.527 181.671 223.957 182.523C224.387 183.376 224.602 184.376 224.602 185.521ZM231.662 188.822C232.183 188.822 232.808 188.708 233.537 188.48V190.697C232.795 191.029 231.883 191.195 230.803 191.195C229.611 191.195 228.742 190.896 228.195 190.297C227.655 189.691 227.385 188.786 227.385 187.582V182.318H225.959V181.059L227.6 180.062L228.459 177.758H230.363V180.082H233.42V182.318H230.363V187.582C230.363 188.005 230.48 188.318 230.715 188.52C230.956 188.721 231.271 188.822 231.662 188.822Z" fill="black"/>
<path d="M50.4141 233.008C50.1536 233.008 49.9245 232.99 49.7266 232.953C49.5286 232.917 49.3594 232.867 49.2188 232.805V231.672C49.3854 231.724 49.5651 231.763 49.7578 231.789C49.9505 231.82 50.1589 231.836 50.3828 231.836C50.6745 231.836 50.9427 231.779 51.1875 231.664C51.4323 231.549 51.6276 231.354 51.7734 231.078C51.9193 230.802 51.9922 230.422 51.9922 229.938V218.578H53.3281V229.836C53.3281 230.549 53.2083 231.141 52.9688 231.609C52.7344 232.078 52.3984 232.427 51.9609 232.656C51.5286 232.891 51.013 233.008 50.4141 233.008ZM59.3672 221.297C60.388 221.297 61.1458 221.526 61.6406 221.984C62.1354 222.443 62.3828 223.174 62.3828 224.18V230H61.4375L61.1875 228.734H61.125C60.8854 229.047 60.6354 229.31 60.375 229.523C60.1146 229.732 59.8125 229.891 59.4688 230C59.1302 230.104 58.7135 230.156 58.2188 230.156C57.6979 230.156 57.2344 230.065 56.8281 229.883C56.4271 229.701 56.1094 229.424 55.875 229.055C55.6458 228.685 55.5312 228.216 55.5312 227.648C55.5312 226.794 55.8698 226.138 56.5469 225.68C57.224 225.221 58.2552 224.971 59.6406 224.93L61.1172 224.867V224.344C61.1172 223.604 60.9583 223.086 60.6406 222.789C60.3229 222.492 59.875 222.344 59.2969 222.344C58.849 222.344 58.4219 222.409 58.0156 222.539C57.6094 222.669 57.224 222.823 56.8594 223L56.4609 222.016C56.8464 221.818 57.2891 221.648 57.7891 221.508C58.2891 221.367 58.8151 221.297 59.3672 221.297ZM61.1016 225.781L59.7969 225.836C58.7292 225.878 57.9766 226.052 57.5391 226.359C57.1016 226.667 56.8828 227.102 56.8828 227.664C56.8828 228.154 57.0312 228.516 57.3281 228.75C57.625 228.984 58.0182 229.102 58.5078 229.102C59.2682 229.102 59.8906 228.891 60.375 228.469C60.8594 228.047 61.1016 227.414 61.1016 226.57V225.781ZM66.9375 230L63.6875 221.438H65.0781L66.9609 226.617C67.0911 226.971 67.224 227.362 67.3594 227.789C67.4948 228.216 67.5885 228.56 67.6406 228.82H67.6953C67.7578 228.56 67.862 228.216 68.0078 227.789C68.1536 227.357 68.2865 226.966 68.4062 226.617L70.2891 221.438H71.6797L68.4219 230H66.9375ZM76.2578 221.297C77.2786 221.297 78.0365 221.526 78.5312 221.984C79.026 222.443 79.2734 223.174 79.2734 224.18V230H78.3281L78.0781 228.734H78.0156C77.776 229.047 77.526 229.31 77.2656 229.523C77.0052 229.732 76.7031 229.891 76.3594 230C76.0208 230.104 75.6042 230.156 75.1094 230.156C74.5885 230.156 74.125 230.065 73.7188 229.883C73.3177 229.701 73 229.424 72.7656 229.055C72.5365 228.685 72.4219 228.216 72.4219 227.648C72.4219 226.794 72.7604 226.138 73.4375 225.68C74.1146 225.221 75.1458 224.971 76.5312 224.93L78.0078 224.867V224.344C78.0078 223.604 77.849 223.086 77.5312 222.789C77.2135 222.492 76.7656 222.344 76.1875 222.344C75.7396 222.344 75.3125 222.409 74.9062 222.539C74.5 222.669 74.1146 222.823 73.75 223L73.3516 222.016C73.737 221.818 74.1797 221.648 74.6797 221.508C75.1797 221.367 75.7057 221.297 76.2578 221.297ZM77.9922 225.781L76.6875 225.836C75.6198 225.878 74.8672 226.052 74.4297 226.359C73.9922 226.667 73.7734 227.102 73.7734 227.664C73.7734 228.154 73.9219 228.516 74.2188 228.75C74.5156 228.984 74.9089 229.102 75.3984 229.102C76.1589 229.102 76.7812 228.891 77.2656 228.469C77.75 228.047 77.9922 227.414 77.9922 226.57V225.781ZM88.5859 226.961C88.5859 227.638 88.4167 228.216 88.0781 228.695C87.7448 229.169 87.276 229.531 86.6719 229.781C86.0677 230.031 85.3568 230.156 84.5391 230.156C84.1068 230.156 83.6979 230.135 83.3125 230.094C82.9271 230.052 82.5729 229.992 82.25 229.914C81.9271 229.836 81.6432 229.74 81.3984 229.625V228.352C81.7891 228.513 82.2656 228.664 82.8281 228.805C83.3906 228.94 83.9792 229.008 84.5938 229.008C85.1667 229.008 85.651 228.932 86.0469 228.781C86.4427 228.625 86.7422 228.404 86.9453 228.117C87.1536 227.826 87.2578 227.477 87.2578 227.07C87.2578 226.68 87.1719 226.354 87 226.094C86.8281 225.828 86.5417 225.589 86.1406 225.375C85.7448 225.156 85.2031 224.924 84.5156 224.68C84.0312 224.508 83.6042 224.32 83.2344 224.117C82.8646 223.909 82.5547 223.674 82.3047 223.414C82.0547 223.154 81.8646 222.852 81.7344 222.508C81.6094 222.164 81.5469 221.771 81.5469 221.328C81.5469 220.719 81.7005 220.198 82.0078 219.766C82.3203 219.328 82.75 218.995 83.2969 218.766C83.849 218.531 84.4818 218.414 85.1953 218.414C85.8047 218.414 86.3672 218.471 86.8828 218.586C87.4036 218.701 87.8802 218.854 88.3125 219.047L87.8984 220.188C87.487 220.016 87.0495 219.872 86.5859 219.758C86.1276 219.643 85.6536 219.586 85.1641 219.586C84.6745 219.586 84.2604 219.659 83.9219 219.805C83.5885 219.945 83.3333 220.146 83.1562 220.406C82.9792 220.667 82.8906 220.977 82.8906 221.336C82.8906 221.737 82.974 222.07 83.1406 222.336C83.3125 222.602 83.5833 222.839 83.9531 223.047C84.3281 223.25 84.8229 223.464 85.4375 223.688C86.1094 223.932 86.6797 224.193 87.1484 224.469C87.6172 224.74 87.974 225.073 88.2188 225.469C88.4635 225.859 88.5859 226.357 88.5859 226.961ZM94.1562 230.156C93.3854 230.156 92.7057 229.997 92.1172 229.68C91.5286 229.362 91.0703 228.878 90.7422 228.227C90.4141 227.576 90.25 226.755 90.25 225.766C90.25 224.729 90.4219 223.883 90.7656 223.227C91.1146 222.565 91.5938 222.076 92.2031 221.758C92.8125 221.44 93.5052 221.281 94.2812 221.281C94.7083 221.281 95.1198 221.326 95.5156 221.414C95.9167 221.497 96.2448 221.604 96.5 221.734L96.1094 222.82C95.849 222.716 95.5469 222.622 95.2031 222.539C94.8646 222.456 94.5469 222.414 94.25 222.414C93.6562 222.414 93.1615 222.542 92.7656 222.797C92.375 223.052 92.0807 223.427 91.8828 223.922C91.6901 224.417 91.5938 225.026 91.5938 225.75C91.5938 226.443 91.6875 227.034 91.875 227.523C92.0677 228.013 92.3516 228.388 92.7266 228.648C93.1068 228.904 93.5807 229.031 94.1484 229.031C94.6016 229.031 95.0104 228.984 95.375 228.891C95.7396 228.792 96.0703 228.677 96.3672 228.547V229.703C96.0807 229.849 95.7604 229.961 95.4062 230.039C95.0573 230.117 94.6406 230.156 94.1562 230.156ZM102.289 221.281C102.461 221.281 102.641 221.292 102.828 221.312C103.016 221.328 103.182 221.352 103.328 221.383L103.164 222.586C103.023 222.549 102.867 222.521 102.695 222.5C102.523 222.479 102.362 222.469 102.211 222.469C101.867 222.469 101.542 222.539 101.234 222.68C100.932 222.815 100.667 223.013 100.438 223.273C100.208 223.529 100.029 223.839 99.8984 224.203C99.7682 224.562 99.7031 224.964 99.7031 225.406V230H98.3984V221.438H99.4766L99.6172 223.016H99.6719C99.849 222.698 100.062 222.409 100.312 222.148C100.562 221.883 100.852 221.672 101.18 221.516C101.513 221.359 101.883 221.281 102.289 221.281ZM106.242 221.438V230H104.945V221.438H106.242ZM105.609 218.234C105.823 218.234 106.005 218.305 106.156 218.445C106.312 218.581 106.391 218.794 106.391 219.086C106.391 219.372 106.312 219.586 106.156 219.727C106.005 219.867 105.823 219.938 105.609 219.938C105.385 219.938 105.198 219.867 105.047 219.727C104.901 219.586 104.828 219.372 104.828 219.086C104.828 218.794 104.901 218.581 105.047 218.445C105.198 218.305 105.385 218.234 105.609 218.234ZM113.016 221.281C114.083 221.281 114.935 221.648 115.57 222.383C116.206 223.117 116.523 224.221 116.523 225.695C116.523 226.669 116.378 227.487 116.086 228.148C115.794 228.81 115.383 229.31 114.852 229.648C114.326 229.987 113.703 230.156 112.984 230.156C112.531 230.156 112.133 230.096 111.789 229.977C111.445 229.857 111.151 229.695 110.906 229.492C110.661 229.289 110.458 229.068 110.297 228.828H110.203C110.219 229.031 110.237 229.276 110.258 229.562C110.284 229.849 110.297 230.099 110.297 230.312V233.828H108.992V221.438H110.062L110.234 222.703H110.297C110.464 222.443 110.667 222.206 110.906 221.992C111.146 221.773 111.438 221.602 111.781 221.477C112.13 221.346 112.542 221.281 113.016 221.281ZM112.789 222.375C112.195 222.375 111.716 222.49 111.352 222.719C110.992 222.948 110.729 223.292 110.562 223.75C110.396 224.203 110.307 224.773 110.297 225.461V225.711C110.297 226.435 110.375 227.047 110.531 227.547C110.693 228.047 110.956 228.427 111.32 228.688C111.69 228.948 112.185 229.078 112.805 229.078C113.336 229.078 113.779 228.935 114.133 228.648C114.487 228.362 114.75 227.964 114.922 227.453C115.099 226.938 115.188 226.346 115.188 225.68C115.188 224.669 114.99 223.867 114.594 223.273C114.203 222.674 113.602 222.375 112.789 222.375ZM121.555 229.094C121.768 229.094 121.987 229.076 122.211 229.039C122.435 229.003 122.617 228.958 122.758 228.906V229.914C122.607 229.982 122.396 230.039 122.125 230.086C121.859 230.133 121.599 230.156 121.344 230.156C120.891 230.156 120.479 230.078 120.109 229.922C119.74 229.76 119.443 229.49 119.219 229.109C119 228.729 118.891 228.203 118.891 227.531V222.453H117.672V221.82L118.898 221.312L119.414 219.453H120.195V221.438H122.703V222.453H120.195V227.492C120.195 228.029 120.318 228.43 120.562 228.695C120.812 228.961 121.143 229.094 121.555 229.094ZM130.531 230L127.281 221.438H128.672L130.555 226.617C130.685 226.971 130.818 227.362 130.953 227.789C131.089 228.216 131.182 228.56 131.234 228.82H131.289C131.352 228.56 131.456 228.216 131.602 227.789C131.747 227.357 131.88 226.966 132 226.617L133.883 221.438H135.273L132.016 230H130.531ZM139.852 221.297C140.872 221.297 141.63 221.526 142.125 221.984C142.62 222.443 142.867 223.174 142.867 224.18V230H141.922L141.672 228.734H141.609C141.37 229.047 141.12 229.31 140.859 229.523C140.599 229.732 140.297 229.891 139.953 230C139.615 230.104 139.198 230.156 138.703 230.156C138.182 230.156 137.719 230.065 137.312 229.883C136.911 229.701 136.594 229.424 136.359 229.055C136.13 228.685 136.016 228.216 136.016 227.648C136.016 226.794 136.354 226.138 137.031 225.68C137.708 225.221 138.74 224.971 140.125 224.93L141.602 224.867V224.344C141.602 223.604 141.443 223.086 141.125 222.789C140.807 222.492 140.359 222.344 139.781 222.344C139.333 222.344 138.906 222.409 138.5 222.539C138.094 222.669 137.708 222.823 137.344 223L136.945 222.016C137.331 221.818 137.773 221.648 138.273 221.508C138.773 221.367 139.299 221.297 139.852 221.297ZM141.586 225.781L140.281 225.836C139.214 225.878 138.461 226.052 138.023 226.359C137.586 226.667 137.367 227.102 137.367 227.664C137.367 228.154 137.516 228.516 137.812 228.75C138.109 228.984 138.503 229.102 138.992 229.102C139.753 229.102 140.375 228.891 140.859 228.469C141.344 228.047 141.586 227.414 141.586 226.57V225.781ZM152.875 218.578C154.349 218.578 155.424 218.867 156.102 219.445C156.784 220.018 157.125 220.841 157.125 221.914C157.125 222.398 157.044 222.859 156.883 223.297C156.727 223.729 156.471 224.112 156.117 224.445C155.763 224.773 155.297 225.034 154.719 225.227C154.146 225.414 153.443 225.508 152.609 225.508H151.219V230H149.891V218.578H152.875ZM152.75 219.711H151.219V224.367H152.461C153.19 224.367 153.797 224.289 154.281 224.133C154.771 223.977 155.138 223.724 155.383 223.375C155.628 223.021 155.75 222.552 155.75 221.969C155.75 221.208 155.508 220.643 155.023 220.273C154.539 219.898 153.781 219.711 152.75 219.711ZM157.969 221.438H159.359L161.25 226.406C161.359 226.698 161.461 226.979 161.555 227.25C161.648 227.516 161.732 227.771 161.805 228.016C161.878 228.26 161.935 228.497 161.977 228.727H162.031C162.104 228.466 162.208 228.125 162.344 227.703C162.479 227.276 162.625 226.841 162.781 226.398L164.57 221.438H165.969L162.242 231.258C162.044 231.784 161.812 232.242 161.547 232.633C161.286 233.023 160.969 233.323 160.594 233.531C160.219 233.745 159.766 233.852 159.234 233.852C158.99 233.852 158.773 233.836 158.586 233.805C158.398 233.779 158.237 233.747 158.102 233.711V232.672C158.216 232.698 158.354 232.721 158.516 232.742C158.682 232.763 158.854 232.773 159.031 232.773C159.354 232.773 159.633 232.711 159.867 232.586C160.107 232.466 160.312 232.289 160.484 232.055C160.656 231.82 160.805 231.542 160.93 231.219L161.398 230.016L157.969 221.438ZM170.102 229.094C170.315 229.094 170.534 229.076 170.758 229.039C170.982 229.003 171.164 228.958 171.305 228.906V229.914C171.154 229.982 170.943 230.039 170.672 230.086C170.406 230.133 170.146 230.156 169.891 230.156C169.438 230.156 169.026 230.078 168.656 229.922C168.286 229.76 167.99 229.49 167.766 229.109C167.547 228.729 167.438 228.203 167.438 227.531V222.453H166.219V221.82L167.445 221.312L167.961 219.453H168.742V221.438H171.25V222.453H168.742V227.492C168.742 228.029 168.865 228.43 169.109 228.695C169.359 228.961 169.69 229.094 170.102 229.094ZM174.336 217.844V221.477C174.336 221.685 174.331 221.896 174.32 222.109C174.31 222.318 174.292 222.51 174.266 222.688H174.352C174.529 222.385 174.753 222.133 175.023 221.93C175.299 221.721 175.612 221.565 175.961 221.461C176.31 221.352 176.68 221.297 177.07 221.297C177.758 221.297 178.331 221.406 178.789 221.625C179.253 221.844 179.599 222.182 179.828 222.641C180.062 223.099 180.18 223.693 180.18 224.422V230H178.898V224.508C178.898 223.794 178.734 223.26 178.406 222.906C178.083 222.552 177.586 222.375 176.914 222.375C176.279 222.375 175.771 222.497 175.391 222.742C175.016 222.982 174.745 223.336 174.578 223.805C174.417 224.273 174.336 224.846 174.336 225.523V230H173.039V217.844H174.336ZM190.234 225.703C190.234 226.406 190.143 227.034 189.961 227.586C189.779 228.138 189.516 228.604 189.172 228.984C188.828 229.365 188.411 229.656 187.922 229.859C187.438 230.057 186.888 230.156 186.273 230.156C185.701 230.156 185.174 230.057 184.695 229.859C184.221 229.656 183.81 229.365 183.461 228.984C183.117 228.604 182.849 228.138 182.656 227.586C182.469 227.034 182.375 226.406 182.375 225.703C182.375 224.766 182.534 223.969 182.852 223.312C183.169 222.651 183.622 222.148 184.211 221.805C184.805 221.456 185.51 221.281 186.328 221.281C187.109 221.281 187.792 221.456 188.375 221.805C188.964 222.154 189.419 222.659 189.742 223.32C190.07 223.977 190.234 224.771 190.234 225.703ZM183.719 225.703C183.719 226.391 183.81 226.987 183.992 227.492C184.174 227.997 184.456 228.388 184.836 228.664C185.216 228.94 185.706 229.078 186.305 229.078C186.898 229.078 187.385 228.94 187.766 228.664C188.151 228.388 188.435 227.997 188.617 227.492C188.799 226.987 188.891 226.391 188.891 225.703C188.891 225.021 188.799 224.432 188.617 223.938C188.435 223.438 188.154 223.052 187.773 222.781C187.393 222.51 186.901 222.375 186.297 222.375C185.406 222.375 184.753 222.669 184.336 223.258C183.924 223.846 183.719 224.661 183.719 225.703ZM196.531 221.281C197.547 221.281 198.315 221.531 198.836 222.031C199.357 222.526 199.617 223.323 199.617 224.422V230H198.336V224.508C198.336 223.794 198.172 223.26 197.844 222.906C197.521 222.552 197.023 222.375 196.352 222.375C195.404 222.375 194.737 222.643 194.352 223.18C193.966 223.716 193.773 224.495 193.773 225.516V230H192.477V221.438H193.523L193.719 222.672H193.789C193.971 222.37 194.203 222.117 194.484 221.914C194.766 221.706 195.081 221.549 195.43 221.445C195.779 221.336 196.146 221.281 196.531 221.281ZM205.094 221.438H206.484L208.375 226.406C208.484 226.698 208.586 226.979 208.68 227.25C208.773 227.516 208.857 227.771 208.93 228.016C209.003 228.26 209.06 228.497 209.102 228.727H209.156C209.229 228.466 209.333 228.125 209.469 227.703C209.604 227.276 209.75 226.841 209.906 226.398L211.695 221.438H213.094L209.367 231.258C209.169 231.784 208.938 232.242 208.672 232.633C208.411 233.023 208.094 233.323 207.719 233.531C207.344 233.745 206.891 233.852 206.359 233.852C206.115 233.852 205.898 233.836 205.711 233.805C205.523 233.779 205.362 233.747 205.227 233.711V232.672C205.341 232.698 205.479 232.721 205.641 232.742C205.807 232.763 205.979 232.773 206.156 232.773C206.479 232.773 206.758 232.711 206.992 232.586C207.232 232.466 207.438 232.289 207.609 232.055C207.781 231.82 207.93 231.542 208.055 231.219L208.523 230.016L205.094 221.438ZM221.844 225.703C221.844 226.406 221.753 227.034 221.57 227.586C221.388 228.138 221.125 228.604 220.781 228.984C220.438 229.365 220.021 229.656 219.531 229.859C219.047 230.057 218.497 230.156 217.883 230.156C217.31 230.156 216.784 230.057 216.305 229.859C215.831 229.656 215.419 229.365 215.07 228.984C214.727 228.604 214.458 228.138 214.266 227.586C214.078 227.034 213.984 226.406 213.984 225.703C213.984 224.766 214.143 223.969 214.461 223.312C214.779 222.651 215.232 222.148 215.82 221.805C216.414 221.456 217.12 221.281 217.938 221.281C218.719 221.281 219.401 221.456 219.984 221.805C220.573 222.154 221.029 222.659 221.352 223.32C221.68 223.977 221.844 224.771 221.844 225.703ZM215.328 225.703C215.328 226.391 215.419 226.987 215.602 227.492C215.784 227.997 216.065 228.388 216.445 228.664C216.826 228.94 217.315 229.078 217.914 229.078C218.508 229.078 218.995 228.94 219.375 228.664C219.76 228.388 220.044 227.997 220.227 227.492C220.409 226.987 220.5 226.391 220.5 225.703C220.5 225.021 220.409 224.432 220.227 223.938C220.044 223.438 219.763 223.052 219.383 222.781C219.003 222.51 218.51 222.375 217.906 222.375C217.016 222.375 216.362 222.669 215.945 223.258C215.534 223.846 215.328 224.661 215.328 225.703ZM227.977 221.281C228.148 221.281 228.328 221.292 228.516 221.312C228.703 221.328 228.87 221.352 229.016 221.383L228.852 222.586C228.711 222.549 228.555 222.521 228.383 222.5C228.211 222.479 228.049 222.469 227.898 222.469C227.555 222.469 227.229 222.539 226.922 222.68C226.62 222.815 226.354 223.013 226.125 223.273C225.896 223.529 225.716 223.839 225.586 224.203C225.456 224.562 225.391 224.964 225.391 225.406V230H224.086V221.438H225.164L225.305 223.016H225.359C225.536 222.698 225.75 222.409 226 222.148C226.25 221.883 226.539 221.672 226.867 221.516C227.201 221.359 227.57 221.281 227.977 221.281ZM233.68 230.156C232.596 230.156 231.737 229.786 231.102 229.047C230.471 228.307 230.156 227.208 230.156 225.75C230.156 224.276 230.479 223.164 231.125 222.414C231.771 221.659 232.63 221.281 233.703 221.281C234.156 221.281 234.552 221.341 234.891 221.461C235.229 221.581 235.521 221.742 235.766 221.945C236.01 222.143 236.216 222.37 236.383 222.625H236.477C236.456 222.464 236.435 222.242 236.414 221.961C236.393 221.68 236.383 221.451 236.383 221.273V217.844H237.68V230H236.633L236.438 228.781H236.383C236.221 229.036 236.016 229.268 235.766 229.477C235.521 229.685 235.227 229.852 234.883 229.977C234.544 230.096 234.143 230.156 233.68 230.156ZM233.883 229.078C234.799 229.078 235.448 228.818 235.828 228.297C236.208 227.776 236.398 227.003 236.398 225.977V225.742C236.398 224.654 236.216 223.818 235.852 223.234C235.492 222.651 234.836 222.359 233.883 222.359C233.086 222.359 232.49 222.667 232.094 223.281C231.698 223.891 231.5 224.724 231.5 225.781C231.5 226.833 231.695 227.646 232.086 228.219C232.482 228.792 233.081 229.078 233.883 229.078ZM243.633 221.297C244.654 221.297 245.411 221.526 245.906 221.984C246.401 222.443 246.648 223.174 246.648 224.18V230H245.703L245.453 228.734H245.391C245.151 229.047 244.901 229.31 244.641 229.523C244.38 229.732 244.078 229.891 243.734 230C243.396 230.104 242.979 230.156 242.484 230.156C241.964 230.156 241.5 230.065 241.094 229.883C240.693 229.701 240.375 229.424 240.141 229.055C239.911 228.685 239.797 228.216 239.797 227.648C239.797 226.794 240.135 226.138 240.812 225.68C241.49 225.221 242.521 224.971 243.906 224.93L245.383 224.867V224.344C245.383 223.604 245.224 223.086 244.906 222.789C244.589 222.492 244.141 222.344 243.562 222.344C243.115 222.344 242.688 222.409 242.281 222.539C241.875 222.669 241.49 222.823 241.125 223L240.727 222.016C241.112 221.818 241.555 221.648 242.055 221.508C242.555 221.367 243.081 221.297 243.633 221.297ZM245.367 225.781L244.062 225.836C242.995 225.878 242.242 226.052 241.805 226.359C241.367 226.667 241.148 227.102 241.148 227.664C241.148 228.154 241.297 228.516 241.594 228.75C241.891 228.984 242.284 229.102 242.773 229.102C243.534 229.102 244.156 228.891 244.641 228.469C245.125 228.047 245.367 227.414 245.367 226.57V225.781ZM258.617 221.281C259.56 221.281 260.271 221.529 260.75 222.023C261.229 222.513 261.469 223.302 261.469 224.391V230H260.188V224.453C260.188 223.76 260.036 223.242 259.734 222.898C259.438 222.549 258.995 222.375 258.406 222.375C257.578 222.375 256.977 222.615 256.602 223.094C256.227 223.573 256.039 224.279 256.039 225.211V230H254.75V224.453C254.75 223.99 254.682 223.604 254.547 223.297C254.417 222.99 254.219 222.76 253.953 222.609C253.693 222.453 253.362 222.375 252.961 222.375C252.393 222.375 251.938 222.492 251.594 222.727C251.25 222.961 251 223.31 250.844 223.773C250.693 224.232 250.617 224.797 250.617 225.469V230H249.32V221.438H250.367L250.562 222.648H250.633C250.805 222.352 251.021 222.102 251.281 221.898C251.542 221.695 251.833 221.542 252.156 221.438C252.479 221.333 252.823 221.281 253.188 221.281C253.839 221.281 254.383 221.404 254.82 221.648C255.263 221.888 255.583 222.255 255.781 222.75H255.852C256.133 222.255 256.518 221.888 257.008 221.648C257.497 221.404 258.034 221.281 258.617 221.281ZM265.43 221.438V230H264.133V221.438H265.43ZM264.797 218.234C265.01 218.234 265.193 218.305 265.344 218.445C265.5 218.581 265.578 218.794 265.578 219.086C265.578 219.372 265.5 219.586 265.344 219.727C265.193 219.867 265.01 219.938 264.797 219.938C264.573 219.938 264.385 219.867 264.234 219.727C264.089 219.586 264.016 219.372 264.016 219.086C264.016 218.794 264.089 218.581 264.234 218.445C264.385 218.305 264.573 218.234 264.797 218.234ZM271.227 230.156C270.143 230.156 269.284 229.786 268.648 229.047C268.018 228.307 267.703 227.208 267.703 225.75C267.703 224.276 268.026 223.164 268.672 222.414C269.318 221.659 270.177 221.281 271.25 221.281C271.703 221.281 272.099 221.341 272.438 221.461C272.776 221.581 273.068 221.742 273.312 221.945C273.557 222.143 273.763 222.37 273.93 222.625H274.023C274.003 222.464 273.982 222.242 273.961 221.961C273.94 221.68 273.93 221.451 273.93 221.273V217.844H275.227V230H274.18L273.984 228.781H273.93C273.768 229.036 273.562 229.268 273.312 229.477C273.068 229.685 272.773 229.852 272.43 229.977C272.091 230.096 271.69 230.156 271.227 230.156ZM271.43 229.078C272.346 229.078 272.995 228.818 273.375 228.297C273.755 227.776 273.945 227.003 273.945 225.977V225.742C273.945 224.654 273.763 223.818 273.398 223.234C273.039 222.651 272.383 222.359 271.43 222.359C270.633 222.359 270.036 222.667 269.641 223.281C269.245 223.891 269.047 224.724 269.047 225.781C269.047 226.833 269.242 227.646 269.633 228.219C270.029 228.792 270.628 229.078 271.43 229.078ZM281.18 221.297C282.201 221.297 282.958 221.526 283.453 221.984C283.948 222.443 284.195 223.174 284.195 224.18V230H283.25L283 228.734H282.938C282.698 229.047 282.448 229.31 282.188 229.523C281.927 229.732 281.625 229.891 281.281 230C280.943 230.104 280.526 230.156 280.031 230.156C279.51 230.156 279.047 230.065 278.641 229.883C278.24 229.701 277.922 229.424 277.688 229.055C277.458 228.685 277.344 228.216 277.344 227.648C277.344 226.794 277.682 226.138 278.359 225.68C279.036 225.221 280.068 224.971 281.453 224.93L282.93 224.867V224.344C282.93 223.604 282.771 223.086 282.453 222.789C282.135 222.492 281.688 222.344 281.109 222.344C280.661 222.344 280.234 222.409 279.828 222.539C279.422 222.669 279.036 222.823 278.672 223L278.273 222.016C278.659 221.818 279.102 221.648 279.602 221.508C280.102 221.367 280.628 221.297 281.18 221.297ZM282.914 225.781L281.609 225.836C280.542 225.878 279.789 226.052 279.352 226.359C278.914 226.667 278.695 227.102 278.695 227.664C278.695 228.154 278.844 228.516 279.141 228.75C279.438 228.984 279.831 229.102 280.32 229.102C281.081 229.102 281.703 228.891 282.188 228.469C282.672 228.047 282.914 227.414 282.914 226.57V225.781Z" fill="black"/>
</g>
<defs>
<filter id="filter0_d_0_172" x="0" y="0" width="336" height="276" filterUnits="userSpaceOnUse" color-interpolation-filters="sRGB">
<feFlood flood-opacity="0" result="BackgroundImageFix"/>
<feColorMatrix in="SourceAlpha" type="matrix" values="0 0 0 0 0 0 0 0 0 0 0 0 0 0 0 0 0 0 127 0" result="hardAlpha"/>
<feOffset dy="8"/>
<feGaussianBlur stdDeviation="4"/>
<feColorMatrix type="matrix" values="0 0 0 0 0 0 0 0 0 0 0 0 0 0 0 0 0 0 0.1 0"/>
<feBlend mode="normal" in2="BackgroundImageFix" result="effect1_dropShadow_0_172"/>
<feBlend mode="normal" in="SourceGraphic" in2="effect1_dropShadow_0_172" result="shape"/>
</filter>
<clipPath id="clip0_0_172">
<rect width="222.126" height="130" fill="white" transform="translate(56.9369 24)"/>
</clipPath>
</defs>
</svg>
