<svg width="336" height="276" viewBox="0 0 336 276" fill="none" xmlns="http://www.w3.org/2000/svg">
<g filter="url(#filter0_d_0_25)">
<rect x="8" width="320" height="260" rx="5" fill="white"/>
<g clip-path="url(#clip0_0_25)">
<path opacity="0.5" d="M257.138 135.268C256.772 133.755 255.568 132.616 254.682 131.335C253.616 129.757 252.994 127.921 252.879 126.02C252.764 124.119 253.16 122.222 254.027 120.527C254.88 118.906 256.216 117.229 255.732 115.458C255.408 114.267 254.332 113.451 253.275 112.812C249.261 110.394 244.627 109.203 239.945 109.384C234.205 109.618 228.484 111.911 222.855 110.775C217.373 109.665 212.729 106.917 206.993 106.591C202.709 106.348 198.471 106.621 194.178 106.152C183.571 105.001 172.885 104.746 162.235 105.389C151.585 104.746 140.9 105.001 130.293 106.152C126.011 106.621 121.771 106.348 117.478 106.591C111.726 106.915 107.092 109.667 101.608 110.775C95.9766 111.913 90.2582 109.618 84.5185 109.384C79.8357 109.203 75.2021 110.394 71.1876 112.812C70.1223 113.451 69.0571 114.267 68.7311 115.458C68.2496 117.227 69.5833 118.903 70.4355 120.527C71.3032 122.222 71.7005 124.119 71.5862 126.02C71.472 127.921 70.8502 129.756 69.7857 131.335C68.8994 132.614 67.6956 133.755 67.3292 135.268C66.592 138.311 69.5492 140.991 72.4425 142.199C80.3362 145.499 89.9365 143.903 97.1569 148.499C100.393 150.561 103.225 153.872 107.06 153.996C109.653 154.079 112.011 152.639 114.276 151.371C117.665 149.474 121.208 147.865 124.867 146.562C128.063 145.425 131.448 144.513 134.821 144.89C139.97 145.459 162.23 156.214 172.265 149.858C179.139 145.501 184.499 145.465 189.661 144.888C193.034 144.511 196.417 145.422 199.615 146.56C203.274 147.863 206.817 149.471 210.206 151.369C212.469 152.636 214.83 154.077 217.422 153.994C221.257 153.87 224.089 150.559 227.325 148.497C234.541 143.899 244.14 145.497 252.04 142.197C254.918 140.984 257.877 138.313 257.138 135.268Z" fill="url(#paint0_linear_0_25)"/>
<path d="M256.094 135.206C255.732 133.715 254.541 132.582 253.665 131.316C252.614 129.754 252 127.938 251.888 126.059C251.775 124.179 252.168 122.303 253.026 120.627C253.878 119.023 255.191 117.365 254.714 115.616C254.392 114.438 253.329 113.63 252.285 113C248.315 110.608 243.732 109.429 239.101 109.608C233.425 109.838 227.768 112.107 222.199 110.982C216.775 109.887 212.186 107.164 206.503 106.842C202.266 106.604 198.066 106.872 193.831 106.416C183.34 105.278 172.772 105.026 162.239 105.662C151.706 105.026 141.138 105.278 130.647 106.416C126.412 106.881 122.212 106.61 117.975 106.842C112.295 107.162 107.703 109.885 102.279 110.982C96.7117 112.107 91.0529 109.838 85.3771 109.608C80.7458 109.429 76.1633 110.608 72.1932 113C71.1493 113.639 70.0861 114.438 69.7644 115.616C69.2872 117.365 70.6166 119.025 71.4518 120.627C72.3094 122.303 72.7025 124.179 72.5901 126.059C72.4777 127.938 71.8639 129.754 70.8126 131.316C69.9348 132.582 68.746 133.709 68.3838 135.206C67.636 138.215 70.5612 140.865 73.4183 142.05C81.2268 145.312 90.7205 143.733 97.8558 148.279C101.052 150.318 103.858 153.595 107.656 153.717C110.213 153.8 112.557 152.374 114.794 151.119C118.146 149.242 121.65 147.651 125.27 146.362C128.433 145.235 131.778 144.334 135.115 144.707C140.228 145.277 162.237 155.907 172.152 149.622C178.951 145.314 184.252 145.277 189.357 144.707C192.693 144.334 196.04 145.235 199.202 146.362C202.821 147.651 206.326 149.242 209.678 151.119C211.917 152.372 214.25 153.798 216.815 153.717C220.608 153.595 223.409 150.321 226.616 148.279C233.753 143.733 243.247 145.312 251.053 142.05C253.9 140.865 256.825 138.215 256.094 135.206Z" fill="#00BAFC"/>
<path opacity="0.6" d="M74.0468 70.706C74.6561 70.4929 75.3038 70.2905 75.9409 70.4013C77.0061 70.5867 77.754 71.5966 78.0714 72.6341C78.3889 73.6717 78.3782 74.7647 78.5806 75.83C78.783 76.8953 79.2667 77.9967 80.2212 78.5059C81.1756 79.0152 82.3027 78.8149 83.3616 78.6913C84.7504 78.5311 86.1523 78.5183 87.5439 78.653C88.7114 78.7659 90.0835 79.16 90.4265 80.2828C90.7077 81.199 90.1495 82.1343 89.7873 83.0185C89.0928 84.6718 89.0374 86.6255 89.8321 88.2319C90.6268 89.8384 92.2375 91.0357 92.9107 92.7316C93.1058 93.1558 93.1625 93.6306 93.0727 94.0888C92.9731 94.4096 92.8092 94.7068 92.5911 94.9623C92.0628 95.642 91.4321 96.2407 90.9506 96.9565C89.9471 98.4479 89.6723 100.302 89.5572 102.093C89.4425 103.855 89.4524 105.623 89.5871 107.383C88.2789 106.957 86.8344 107.337 85.4858 107.057C82.6159 106.465 80.8241 103.069 77.901 102.862C76.5183 102.764 75.0311 103.416 73.7975 102.784C73.2082 102.444 72.747 101.92 72.4851 101.292C71.9637 100.181 71.8447 98.9234 72.1485 97.7342C72.3615 96.9118 72.7877 96.1064 72.7046 95.2606C72.6343 94.5362 72.1996 93.8971 71.7011 93.3666C70.28 91.8581 68.2176 90.9356 67.1971 89.131C66.7329 88.2738 66.5392 87.2962 66.6416 86.3268C66.7439 85.3574 67.1373 84.4417 67.7702 83.7002C68.1344 83.3447 68.4794 82.9699 68.8035 82.5774C69.2935 81.8871 69.4427 81.0157 69.5087 80.1699C69.6493 78.1438 69.2957 75.9983 69.9583 74.0297C70.5527 72.2485 72.3679 71.3026 74.0468 70.706Z" fill="#00BAFC"/>
<path opacity="0.6" d="M74.0767 70.7656C74.0767 70.7656 79.8952 103.08 87.4501 106.934" stroke="#535461" stroke-miterlimit="10"/>
<path opacity="0.6" d="M90.2646 79.7097C90.2646 79.7097 84.0327 80.5619 77.8073 86.9643" stroke="#535461" stroke-miterlimit="10"/>
<path opacity="0.6" d="M78.9023 90.7183C78.9023 90.7183 74.1065 86.031 66.6133 86.8257" stroke="#535461" stroke-miterlimit="10"/>
<path opacity="0.6" d="M93.0087 92.7572C93.0087 92.7572 84.2564 93.5008 81.0158 96.8606" stroke="#535461" stroke-miterlimit="10"/>
<path opacity="0.6" d="M82.3261 99.9905C82.3261 99.9905 77.4259 99.1383 72.9027 102.025" stroke="#535461" stroke-miterlimit="10"/>
<path opacity="0.6" d="M254.183 45.3226C253.205 44.9753 252.168 44.6579 251.147 44.8347C249.443 45.133 248.241 46.7522 247.738 48.4119C247.235 50.0716 247.246 51.8421 246.922 53.5465C246.598 55.251 245.823 57.0172 244.293 57.8353C242.763 58.6535 240.957 58.3296 239.259 58.1336C237.034 57.8743 234.789 57.8508 232.56 58.0633C230.687 58.2444 228.491 58.8772 227.941 60.6754C227.492 62.1454 228.384 63.6411 228.981 65.0579C230.095 67.7062 230.185 70.8402 228.908 73.4161C227.611 76.0366 225.052 77.9115 223.974 80.628C223.701 81.3183 223.529 82.0832 223.714 82.8012C223.874 83.3161 224.137 83.7931 224.487 84.2031C225.34 85.2939 226.345 86.2548 227.117 87.3989C228.725 89.7851 229.162 92.7594 229.349 95.6314C229.533 98.4548 229.518 101.288 229.302 104.109C231.399 103.419 233.717 104.034 235.877 103.589C240.477 102.641 243.349 97.1973 248.034 96.8649C250.25 96.7094 252.634 97.7513 254.611 96.7371C255.574 96.2428 256.258 95.3203 256.716 94.3381C257.538 92.5578 257.718 90.5476 257.226 88.6495C256.878 87.3307 256.203 86.0417 256.335 84.6846C256.448 83.5234 257.142 82.4986 257.944 81.6507C260.221 79.2325 263.528 77.7539 265.164 74.8627C266.698 72.1527 266.31 68.486 264.246 66.1573C263.705 65.5458 263.061 65.0217 262.588 64.357C261.802 63.2512 261.551 61.8536 261.457 60.4985C261.233 57.2494 261.785 53.8128 260.735 50.6575C259.776 47.7855 256.868 46.2664 254.183 45.3226Z" fill="#00BAFC"/>
<path opacity="0.6" d="M254.128 45.4078C254.128 45.4078 244.802 97.2037 232.69 103.38" stroke="#535461" stroke-miterlimit="10"/>
<path opacity="0.6" d="M228.18 59.7443C228.18 59.7443 238.168 61.1163 248.147 71.375" stroke="#535461" stroke-miterlimit="10"/>
<path opacity="0.6" d="M246.392 77.3895C246.392 77.3895 254.081 69.8708 266.089 71.1491" stroke="#535461" stroke-miterlimit="10"/>
<path opacity="0.6" d="M223.793 80.6578C223.793 80.6578 237.82 81.8488 243.015 87.237" stroke="#535461" stroke-miterlimit="10"/>
<path opacity="0.6" d="M240.905 92.2523C240.905 92.2523 248.765 90.876 256.011 95.512" stroke="#535461" stroke-miterlimit="10"/>
<path d="M82.5627 24V29.3243V129.505H237.439V29.3243V24H82.5627Z" fill="url(#paint1_linear_0_25)"/>
<path d="M235.798 28.7874H84.8594V127.596H235.798V28.7874Z" fill="white"/>
<path d="M235.798 24.0874H84.8594V31.3569H235.798V24.0874Z" fill="#EEEEEE"/>
<path d="M90.6033 29.3733C91.5764 29.3733 92.3653 28.5844 92.3653 27.6113C92.3653 26.6382 91.5764 25.8494 90.6033 25.8494C89.6302 25.8494 88.8414 26.6382 88.8414 27.6113C88.8414 28.5844 89.6302 29.3733 90.6033 29.3733Z" fill="#FF5252"/>
<path d="M95.4504 29.3733C96.4235 29.3733 97.2123 28.5844 97.2123 27.6113C97.2123 26.6382 96.4235 25.8494 95.4504 25.8494C94.4772 25.8494 93.6884 26.6382 93.6884 27.6113C93.6884 28.5844 94.4772 29.3733 95.4504 29.3733Z" fill="#FFFF00"/>
<path d="M100.297 29.3733C101.27 29.3733 102.059 28.5844 102.059 27.6113C102.059 26.6382 101.27 25.8494 100.297 25.8494C99.3243 25.8494 98.5354 26.6382 98.5354 27.6113C98.5354 28.5844 99.3243 29.3733 100.297 29.3733Z" fill="#69F0AE"/>
<path opacity="0.5" d="M146.89 43.0002H90.6438V45.3439H146.89V43.0002Z" fill="#00BAFC"/>
<path opacity="0.5" d="M146.89 47.6875H90.6438V50.0311H146.89V47.6875Z" fill="#00BAFC"/>
<path opacity="0.5" d="M146.89 52.3748H90.6438V54.7184H146.89V52.3748Z" fill="#00BAFC"/>
<path opacity="0.5" d="M146.89 57.0619H110.032V59.4055H146.89V57.0619Z" fill="#00BAFC"/>
<path opacity="0.5" d="M120.259 61.7491H90.6438V64.0928H120.259V61.7491Z" fill="#00BAFC"/>
<path opacity="0.5" d="M129.42 66.4364H106.623V68.78H129.42V66.4364Z" fill="#00BAFC"/>
<path opacity="0.5" d="M220.608 59.4055H154.347V97.5424H220.608V59.4055Z" fill="#00BAFC"/>
<path d="M228.491 63.0275H162.23V101.164H228.491V63.0275Z" fill="#EEEEEE"/>
<path opacity="0.5" d="M268.328 98.2115C268.465 98.0357 268.54 97.819 268.541 97.5958C268.541 97.5958 268.541 97.583 268.541 97.5787C268.541 97.5745 268.554 97.534 268.56 97.5127V97.485C268.561 97.4644 268.561 97.4438 268.56 97.4232C268.56 97.4232 268.56 97.4061 268.56 97.3976C268.562 97.3721 268.562 97.3464 268.56 97.3209C268.434 96.4687 263.37 90.9165 262.104 84.1434C261.964 83.4061 261.755 82.6835 261.48 81.9852C261.519 81.6359 261.496 81.2825 261.412 80.9412C261.199 80.0741 260.773 79.1942 260.986 78.3292C261.016 78.216 261.055 78.1056 261.103 77.9989C261.369 77.6085 261.613 77.2038 261.834 76.7866C261.916 76.6506 261.988 76.5081 262.047 76.3605C262.825 74.3109 260.417 72.1953 260.86 70.0562C261.052 69.1294 261.77 68.3198 261.751 67.376C261.727 66.2958 260.734 65.4585 259.703 65.058C258.672 64.6574 257.537 64.5424 256.525 64.0949C254.307 63.1128 253.092 60.7415 251.068 59.4226C248.497 57.7502 245.141 58.0484 242.058 58.4809C241.957 58.4958 241.86 58.5355 241.778 58.5965C241.695 58.6574 241.629 58.7377 241.585 58.8303H241.555C241.532 58.8985 241.504 58.9646 241.474 59.0306C241.048 59.7571 240.33 60.309 239.621 60.8182C238.756 61.4275 237.829 62.0283 237.301 62.9317C237.222 63.0659 237.156 63.1937 237.098 63.3173C235.948 65.369 237.33 66.2553 239.016 66.7475C238.965 67.041 238.939 67.3382 238.939 67.6359C238.939 70.6187 241.434 73.0539 244.508 73.0539C244.751 73.0536 244.994 73.038 245.235 73.007L245.414 73.1242H245.454C246.025 73.5354 246.519 74.051 246.732 74.6646L244.947 76.0282C244.947 76.0282 245.02 76.2157 245.126 76.5139L238.108 79.7481C235.449 79.8717 231.145 71.4965 231.145 71.4965C231.145 71.4965 230.506 66.6942 228.233 65.8313C227.547 65.5714 227.274 66.1147 227.227 67.001C226.211 68.0663 227.918 74.0489 227.918 74.0489L233.361 83.6556C233.868 84.6399 234 85.2556 236.399 85.6263C238.374 85.9289 244.527 83.7429 246.669 82.9503L246.769 83.8026C246.52 84.4522 246.41 85.1467 246.445 85.8415C246.445 87.4117 247.146 89.6957 250.567 91.5152C250.567 91.5152 254.1 96.0809 253.708 100.391C253.708 100.391 253.878 100.57 254.151 100.804C254.113 102.019 253.938 103.517 253.327 104.1C253.286 104.138 253.256 104.186 253.239 104.239C253.223 104.292 253.22 104.348 253.231 104.403C253.218 104.467 253.225 104.533 253.252 104.592C253.279 104.651 253.323 104.701 253.38 104.733L248.921 112.542C248.754 112.755 248.586 112.968 248.413 113.181C247.586 114.236 246.667 115.216 245.667 116.11C244.924 116.773 244.15 117.497 243.997 117.768C243.76 118.194 243.166 119.568 243.417 120.704C243.743 122.081 243.876 123.496 243.814 124.909L243.236 135.01C243.043 136.138 242.776 137.252 242.437 138.345H242.35C242.35 138.345 240.198 140.931 236.781 141.541C233.363 142.15 233.489 143.884 234.501 144.127C235.513 144.37 247.793 143.88 247.793 143.88C247.793 143.88 248.258 142.974 248.13 142.148C252.05 141.771 257.481 141.131 257.481 141.131C257.481 141.131 258.225 139.344 257.145 138.564C256.738 138.252 256.436 137.823 256.279 137.335C256.216 137.062 256.145 136.751 256.077 136.425C256.06 136.265 256.06 136.167 256.06 136.167H256.024C255.834 135.215 255.683 134.194 255.77 133.66C256.088 132.243 256.91 124.053 254.884 121.714C253.964 120.648 254.089 119.438 254.498 118.428C256.929 116.837 260.33 113.413 262.296 111.342C262.407 111.434 262.509 111.525 262.605 111.617L262.669 111.679C262.669 111.679 269.361 108.366 269.389 102.517C269.399 101.016 269.034 99.536 268.328 98.2115ZM246.892 139.468C246.88 139.254 246.888 139.04 246.916 138.828L246.703 138.805C246.826 137.876 247.129 136.836 247.806 136.118C248.97 134.011 249.792 131.733 250.244 129.369L251.473 134.02C251.473 134.02 251.597 134.983 251.631 136.001H251.609C251.609 136.001 249.894 138.449 246.892 139.468Z" fill="url(#paint2_linear_0_25)"/>
<path d="M252.449 79.2283C252.449 79.2283 249.443 80.3106 247.762 82.1152C247.762 82.1152 239.582 85.3621 237.296 85.002C235.01 84.642 234.891 84.039 234.409 83.0846L229.236 73.7101C229.236 73.7101 227.072 65.891 229.236 66.7326C231.401 67.5741 232.006 72.272 232.006 72.272C232.006 72.272 236.097 80.4512 238.621 80.3319L245.471 77.0679C245.471 77.0679 247.035 74.7818 247.757 74.9032C248.48 75.0247 252.449 79.2283 252.449 79.2283Z" fill="#FDB797"/>
<g opacity="0.05">
<path opacity="0.05" d="M252.449 79.2283C252.449 79.2283 249.443 80.3106 247.762 82.1152C247.762 82.1152 239.582 85.3621 237.296 85.002C235.01 84.642 234.891 84.039 234.409 83.0846L229.236 73.7101C229.236 73.7101 227.072 65.891 229.236 66.7326C231.401 67.5741 232.006 72.272 232.006 72.272C232.006 72.272 236.097 80.4512 238.621 80.3319L245.471 77.0679C245.471 77.0679 247.035 74.7818 247.757 74.9032C248.48 75.0247 252.449 79.2283 252.449 79.2283Z" fill="black"/>
</g>
<path d="M247.51 74.7945L245.111 76.6779C245.111 76.6779 246.311 79.8162 246.01 80.9156C245.71 82.015 250.808 79.1898 250.808 79.1898L248.71 74.4813L247.51 74.7945Z" fill="#F9CE43"/>
<g opacity="0.05">
<path opacity="0.05" d="M247.51 74.7945L245.111 76.6779C245.111 76.6779 246.311 79.8162 246.01 80.9156C245.71 82.015 250.808 79.1898 250.808 79.1898L248.71 74.4813L247.51 74.7945Z" fill="black"/>
</g>
<path d="M243.368 72.698C243.368 72.698 248.72 74.443 246.255 77.5088L253.953 73.7804C253.953 73.7804 250.706 74.0211 248.661 69.0931L243.368 72.698Z" fill="#FDB797"/>
<path d="M253.471 104.094L246.856 116.002L251.309 133.314C251.309 133.314 251.79 137.164 251.068 137.524H256.12C256.12 137.524 255.146 134.115 255.397 132.954C255.698 131.572 256.48 123.58 254.545 121.287C252.611 118.995 255.508 115.995 255.508 115.995L261.282 106.853L253.471 104.094Z" fill="#FDB797"/>
<g opacity="0.05">
<path opacity="0.05" d="M253.471 104.094L246.856 116.002L251.309 133.314C251.309 133.314 251.79 137.164 251.068 137.524H256.12C256.12 137.524 255.218 134.096 255.397 132.954C255.576 131.812 256.48 123.58 254.545 121.287C252.611 118.995 255.508 115.995 255.508 115.995L261.282 106.853L253.471 104.094Z" fill="black"/>
</g>
<path d="M251.437 135.258C251.437 135.258 249.604 137.957 246.409 138.813C243.213 139.67 243.473 141.34 244.451 141.502C245.429 141.664 257.021 140.26 257.021 140.26C257.021 140.26 257.726 138.515 256.701 137.752C255.677 136.99 255.67 135.409 255.67 135.409L251.437 135.258Z" fill="#0D134D"/>
<g opacity="0.1">
<path opacity="0.1" d="M253.834 99.281C253.834 99.281 254.119 103.193 253.077 104.22C253.041 104.254 253.013 104.296 252.996 104.343C252.979 104.39 252.973 104.44 252.98 104.489C252.986 104.539 253.004 104.586 253.032 104.628C253.06 104.669 253.097 104.703 253.141 104.727L256.239 106.378L259.009 101.086L253.834 99.281Z" fill="black"/>
</g>
<path d="M253.834 99.1616C253.834 99.1616 254.119 103.073 253.077 104.1C253.041 104.134 253.013 104.177 252.996 104.223C252.979 104.27 252.973 104.321 252.98 104.37C252.986 104.42 253.004 104.467 253.032 104.508C253.06 104.549 253.097 104.583 253.141 104.607L256.239 106.259L259.009 100.966L253.834 99.1616Z" fill="#E23553"/>
<g opacity="0.1">
<path opacity="0.1" d="M253.834 99.3748C253.834 99.3748 254.119 103.286 253.077 104.313C253.041 104.347 253.013 104.39 252.996 104.437C252.979 104.483 252.973 104.534 252.98 104.583C252.986 104.633 253.004 104.68 253.032 104.721C253.06 104.762 253.097 104.796 253.141 104.82L256.239 106.472L259.009 101.179L253.834 99.3748Z" fill="black"/>
</g>
<path d="M253.953 106.859C253.953 106.859 252.165 108.052 248.413 112.963C247.629 113.992 246.756 114.949 245.804 115.825C245.098 116.464 244.363 117.18 244.216 117.444C243.99 117.851 243.426 119.204 243.667 120.312C243.976 121.658 244.103 123.039 244.044 124.419L243.496 134.286C243.496 134.286 242.774 138.737 241.813 139.218L246.745 140.07C246.745 140.07 246.385 136.943 247.828 135.383C247.828 135.383 251.196 129.609 250.354 123.113C250.354 123.113 249.994 120.226 253.241 118.663C256.488 117.099 263.106 109.52 263.106 109.52L253.953 106.859Z" fill="#FDB797"/>
<path d="M242.646 137.533C242.646 137.533 240.601 140.06 237.354 140.661C234.107 141.261 234.226 142.947 235.189 143.187C236.152 143.428 247.819 142.947 247.819 142.947C247.819 142.947 248.671 141.264 247.7 140.42C246.728 139.576 246.978 138.014 246.978 138.014L242.646 137.533Z" fill="#0D134D"/>
<g opacity="0.1">
<path opacity="0.1" d="M256.961 100.485C256.961 100.485 255.493 105.415 253.633 106.851C253.599 106.877 253.572 106.911 253.556 106.951C253.539 106.991 253.534 107.034 253.54 107.077C253.547 107.12 253.564 107.16 253.592 107.193C253.619 107.226 253.655 107.252 253.695 107.266C255.233 107.827 260.176 109.714 261.894 111.431L261.953 111.491C261.953 111.491 272.237 106.259 266.704 97.3571L256.961 100.485Z" fill="black"/>
</g>
<path d="M256.961 100.365C256.961 100.365 255.493 105.296 253.633 106.732C253.599 106.757 253.572 106.792 253.556 106.832C253.539 106.872 253.534 106.915 253.54 106.958C253.547 107 253.564 107.04 253.592 107.074C253.619 107.107 253.655 107.132 253.695 107.147C255.233 107.707 260.176 109.595 261.894 111.312L261.953 111.372C261.953 111.372 272.237 106.139 266.704 97.2378L256.961 100.365Z" fill="#E23553"/>
<g opacity="0.1">
<path opacity="0.1" d="M248.516 75.9194C247.752 76.4335 246.916 76.8326 246.036 77.104L246.862 84.4608C246.862 84.4608 244.93 88.7858 250.457 91.807C250.457 91.807 253.812 96.2662 253.44 100.476C253.44 100.476 255.24 102.406 256.444 101.927C257.647 101.448 256.563 102.168 256.804 102.049C257.044 101.929 257.524 103.014 261.254 102.059C264.985 101.105 267.646 98.5885 267.52 97.7448C267.395 96.9011 262.605 91.4767 261.418 84.8571C260.232 78.2375 253.148 73.5289 253.148 73.5289C253.148 73.5289 252.913 73.6589 252.508 73.8315C251.124 74.4191 249.788 75.1173 248.516 75.9194Z" fill="black"/>
</g>
<g opacity="0.1">
<path opacity="0.1" d="M253.54 106.896C253.535 106.947 253.548 106.999 253.576 107.043C253.604 107.086 253.646 107.119 253.695 107.136C255.02 107.62 258.872 109.088 261.012 110.584C259.16 109.088 255.221 107.535 253.54 106.896Z" fill="black"/>
<path opacity="0.1" d="M266.704 97.2378L266.491 97.3102C271.219 105.575 262.315 110.567 261.538 110.982C261.672 111.093 261.793 111.195 261.904 111.312L261.964 111.372C261.964 111.372 272.237 106.139 266.704 97.2378Z" fill="black"/>
</g>
<path d="M261.291 101.808C257.562 102.771 257.081 101.689 256.84 101.808C256.599 101.927 257.692 101.207 256.48 101.689C255.267 102.17 253.474 100.244 253.474 100.244C253.491 100.031 253.499 99.8328 253.499 99.6261C253.512 95.6037 250.457 91.5833 250.457 91.5833C244.917 88.5771 246.848 84.2457 246.848 84.2457L246.622 82.2728L246.002 76.891C246.881 76.6181 247.715 76.2175 248.477 75.7022C249.748 74.898 251.081 74.197 252.464 73.6057C252.871 73.431 253.103 73.301 253.103 73.301C253.103 73.301 260.2 77.9882 261.412 84.6079C262.624 91.2275 267.427 96.637 267.546 97.4785C267.665 98.3201 265.019 100.845 261.291 101.808Z" fill="#F9CE43"/>
<g opacity="0.1">
<path opacity="0.1" d="M248.78 69.2103L243.488 72.8195C244.217 73.0726 244.911 73.4184 245.552 73.8486C247.355 73.595 248.458 72.3039 249.202 70.7145C248.912 70.25 249.04 69.8346 248.78 69.2103Z" fill="black"/>
</g>
<path d="M244.691 73.7825C247.614 73.7825 249.984 71.413 249.984 68.4902C249.984 65.5673 247.614 63.1979 244.691 63.1979C241.768 63.1979 239.399 65.5673 239.399 68.4902C239.399 71.413 241.768 73.7825 244.691 73.7825Z" fill="#FDB797"/>
<g opacity="0.1">
<path opacity="0.1" d="M262.132 101.207C258.404 102.17 257.922 101.088 257.681 101.207C257.441 101.326 258.534 100.606 257.321 101.088C256.109 101.569 254.315 99.6432 254.315 99.6432C254.332 99.4301 254.341 99.232 254.341 99.0253C254.356 95.0092 251.307 90.9825 251.307 90.9825C245.767 87.9763 247.698 83.6449 247.698 83.6449L247.474 81.6698L246.888 76.5757C246.605 76.7033 246.312 76.808 246.012 76.8889L246.622 82.2728L246.85 84.2457C246.85 84.2457 244.932 88.5771 250.459 91.5833C250.459 91.5833 253.508 95.6101 253.493 99.6261C253.493 99.8392 253.493 100.037 253.467 100.244C253.467 100.244 255.272 102.162 256.473 101.689C257.675 101.216 256.593 101.929 256.833 101.808C257.074 101.686 257.556 102.771 261.284 101.808C262.976 101.37 264.561 100.594 265.944 99.526C264.771 100.286 263.484 100.853 262.132 101.207Z" fill="black"/>
</g>
<path d="M252.148 80.2765C252.148 80.2765 249.142 81.3588 247.461 83.1634C247.461 83.1634 239.282 86.4103 236.996 86.0503C234.71 85.6902 234.59 85.0873 234.109 84.1328L228.936 74.7583C228.936 74.7583 226.771 66.9392 228.936 67.7808C231.101 68.6223 231.706 73.3202 231.706 73.3202C231.706 73.3202 235.796 81.4994 238.321 81.3801L245.173 78.1118C245.173 78.1118 246.737 75.8257 247.459 75.9472C248.181 76.0686 252.148 80.2765 252.148 80.2765Z" fill="#FDB797"/>
<g opacity="0.1">
<path opacity="0.1" d="M248.088 75.8726C248.088 75.8726 245.593 75.6446 244.87 78.7723C244.148 81.8999 250.41 83.8238 250.41 83.8238L253.778 79.1366L248.088 75.8726Z" fill="black"/>
</g>
<path d="M248.209 75.8726C248.209 75.8726 245.714 75.6446 244.992 78.7723C244.27 81.8999 250.531 83.8238 250.531 83.8238L253.9 79.1366L248.209 75.8726Z" fill="#F9CE43"/>
<g opacity="0.1">
<path opacity="0.1" d="M247.19 76.4287C246.813 76.619 246.418 76.7717 246.01 76.8847L246.031 77.0658C246.429 76.8741 246.816 76.6615 247.19 76.4287Z" fill="black"/>
<path opacity="0.1" d="M267.546 97.4786C267.427 96.6263 262.614 91.2233 261.412 84.6079C260.21 77.9925 253.103 73.301 253.103 73.301C253.103 73.301 252.868 73.431 252.464 73.6057C251.383 74.0701 250.331 74.6002 249.315 75.193C249.989 74.8379 250.678 74.5098 251.381 74.2086C251.788 74.0339 252.021 73.904 252.021 73.904C252.021 73.904 259.117 78.5912 260.33 85.2108C261.542 91.8305 266.344 97.2399 266.464 98.0815C266.54 98.612 265.515 99.8115 263.813 100.868C266.15 99.7071 267.637 98.1135 267.546 97.4786Z" fill="black"/>
</g>
<path opacity="0.1" d="M249.639 75.9216C249.639 75.9216 252.749 77.462 253.335 80.4235" stroke="black" stroke-miterlimit="10"/>
<g opacity="0.1">
<path opacity="0.1" d="M242.033 68.1919C242.529 68.3027 243.083 68.4582 243.328 68.9035C243.505 69.2273 243.473 69.6343 243.645 69.9688C244.088 70.804 245.388 70.5163 246.202 71.0064C247.693 71.9054 246.72 74.7093 248.205 75.6126C248.484 75.7831 248.814 75.8512 249.102 76.0068C250.357 76.6928 250.18 78.508 249.954 79.9206C249.728 81.3332 249.997 83.2656 251.413 83.4658C252.193 83.5745 253.069 83.0589 253.725 83.4914C254.068 83.7172 254.224 84.1306 254.511 84.431C254.709 84.628 254.96 84.7631 255.233 84.8195C255.506 84.8759 255.79 84.8512 256.049 84.7484C256.531 84.5482 256.878 84.0901 257.379 83.9431C258.184 83.7066 259.083 84.3585 259.859 84.0581C260.634 83.7577 260.811 82.6371 260.611 81.7912C260.411 80.9454 260.002 80.0868 260.215 79.2346C260.391 78.5315 260.967 77.9946 261.218 77.3171C261.955 75.3165 259.669 73.2498 260.091 71.1598C260.274 70.2543 260.956 69.4553 260.943 68.5413C260.922 67.476 259.978 66.6686 258.996 66.2765C258.014 65.8845 256.936 65.7737 255.975 65.337C253.868 64.3782 252.715 62.0602 250.789 60.7733C249.926 60.2103 248.954 59.8371 247.936 59.6782C246.623 59.4668 245.279 59.538 243.996 59.887C242.712 60.236 241.518 60.8549 240.492 61.7022C240.303 61.8556 240.109 62.0005 239.913 62.1411C239.09 62.7355 238.208 63.3215 237.707 64.2035C235.879 67.3865 240.079 67.7509 242.033 68.1919Z" fill="black"/>
</g>
<path d="M242.182 67.8915C242.678 68.0023 243.232 68.1578 243.477 68.6031C243.654 68.9269 243.622 69.3339 243.794 69.6684C244.238 70.5036 245.537 70.2159 246.351 70.706C247.842 71.6051 246.869 74.4089 248.354 75.3122C248.633 75.4827 248.963 75.5508 249.251 75.7064C250.506 76.3924 250.329 78.2077 250.103 79.6202C249.877 81.0328 250.146 82.9652 251.562 83.1654C252.342 83.2741 253.218 82.7585 253.874 83.191C254.217 83.4169 254.373 83.8302 254.66 84.1306C254.858 84.3277 255.109 84.4627 255.382 84.5191C255.655 84.5755 255.939 84.5508 256.199 84.448C256.68 84.2478 257.027 83.7897 257.528 83.6427C258.333 83.4062 259.232 84.0582 260.008 83.7577C260.783 83.4573 260.96 82.3367 260.76 81.4908C260.56 80.645 260.151 79.7864 260.364 78.9342C260.541 78.2311 261.116 77.6942 261.367 77.0167C262.104 75.0161 259.818 72.9494 260.24 70.8594C260.423 69.9539 261.105 69.1549 261.092 68.2409C261.071 67.1756 260.127 66.3682 259.145 65.9761C258.163 65.5841 257.085 65.4733 256.124 65.0366C254.017 64.0778 252.864 61.7598 250.938 60.4729C250.156 59.9592 249.28 59.6045 248.36 59.4289C247.006 59.1692 245.612 59.2118 244.276 59.5536C242.941 59.8954 241.697 60.528 240.635 61.4061C240.447 61.5574 240.253 61.7022 240.062 61.8322C239.239 62.4266 238.357 63.0125 237.857 63.8946C236.029 67.0862 240.23 67.4526 242.182 67.8915Z" fill="#00BAFC"/>
<path d="M199.302 101.164H162.23V94.1784C171.287 89.945 185.223 87.5673 199.302 101.164Z" fill="#00BAFC"/>
<g opacity="0.1">
<path opacity="0.1" d="M228.065 100.165V101.164H181.832V100.951C181.832 100.951 204.582 78.8 228.065 100.165Z" fill="black"/>
</g>
<path d="M228.491 100.165V101.164H182.258V100.951C182.258 100.951 205.008 78.8 228.491 100.165Z" fill="#00BAFC"/>
<path d="M169.9 73.2542C171.783 73.2542 173.309 71.728 173.309 69.8453C173.309 67.9626 171.783 66.4364 169.9 66.4364C168.018 66.4364 166.492 67.9626 166.492 69.8453C166.492 71.728 168.018 73.2542 169.9 73.2542Z" fill="#00BAFC"/>
<path d="M198.923 67.2673C198.533 67.2673 198.098 67.2673 197.802 67.2908C197.67 67.2981 197.539 67.3246 197.414 67.3696L195.41 68.0897C197.029 68.1302 198.718 68.1174 200.378 68.1047L209.684 68.0322C210.635 68.0322 211.632 68.0152 212.422 67.9598C212.953 67.9214 213.342 67.866 213.832 67.8234C215.594 67.6658 218.162 67.6956 220.456 67.7041C222.751 67.7126 225.521 67.653 226.328 67.4229H221.402C220.872 67.4229 220.314 67.4229 219.845 67.3973C219.297 67.3653 218.963 67.3057 218.481 67.2631C217.684 67.1949 216.585 67.1864 215.562 67.1821C209.948 67.1587 204.405 67.2908 198.923 67.2673Z" fill="#F4F4F4"/>
<path d="M204.437 71.3963C204.351 71.3963 204.258 71.3963 204.194 71.3963C204.165 71.3978 204.136 71.4035 204.109 71.4133L203.682 71.5689C204.034 71.5689 204.398 71.5689 204.758 71.5689L206.774 71.554C206.987 71.554 207.2 71.554 207.366 71.5391C207.481 71.5391 207.566 71.5177 207.671 71.5092C208.052 71.4751 208.608 71.4815 209.107 71.4837C209.534 71.498 209.962 71.4773 210.385 71.4219H209.32C209.205 71.4219 209.083 71.4219 208.983 71.4219C208.883 71.4219 208.792 71.4027 208.687 71.392C208.515 71.3771 208.276 71.375 208.048 71.375C206.834 71.375 205.632 71.4027 204.437 71.3963Z" fill="#F4F4F4"/>
<path d="M190.162 77.3619C190.077 77.3619 189.983 77.3619 189.919 77.3619C189.89 77.3633 189.861 77.3691 189.834 77.3789L189.408 77.5345C189.759 77.5345 190.124 77.5345 190.484 77.5345L192.499 77.5196C192.712 77.5196 192.925 77.5196 193.092 77.5046C193.207 77.5046 193.292 77.4833 193.396 77.4748C193.778 77.4407 194.334 77.4471 194.832 77.4492C195.259 77.4636 195.687 77.4429 196.111 77.3875H195.045C194.93 77.3875 194.809 77.3875 194.709 77.3875C194.608 77.3875 194.517 77.3683 194.412 77.3576C194.24 77.3427 194.001 77.3406 193.773 77.3406C192.559 77.3406 191.357 77.3683 190.162 77.3619Z" fill="#F4F4F4"/>
<path d="M182.153 99.2746H180.551C180.551 99.2746 180.05 81.7529 182.153 76.3456H182.554C182.554 76.3456 181.152 96.1704 182.153 99.2746Z" fill="#00BAFC"/>
<path d="M181.052 75.4444C181.052 75.4444 179.75 79.0493 180.351 80.6514C180.351 80.6514 181.252 77.3469 182.302 76.8463C183.353 76.3456 184.454 80.6514 184.454 80.6514C184.454 80.6514 185.055 77.9478 183.954 75.7512C183.954 75.7512 186.157 76.9528 187.258 79.2559C187.258 79.2559 187.458 77.7645 184.855 74.6497C184.855 74.6497 187.158 75.2505 188.66 76.6524C188.66 76.6524 189.161 75.5509 186.056 73.7484C186.056 73.7484 186.457 72.4467 188.86 73.0475C188.86 73.0475 188.86 71.3431 185.055 71.6456C185.055 71.6456 185.055 70.5441 187.558 70.7444C187.558 70.7444 187.558 69.3425 184.655 69.8431C184.655 69.8431 185.255 68.9419 185.656 68.7417C185.155 68.6953 184.655 68.8382 184.254 69.1422C184.254 69.1422 184.354 67.3397 182.852 66.6388L182.652 69.1422C182.652 69.1422 180.969 67.1587 181.35 67.54C181.45 67.6402 181.751 68.8418 181.65 69.4426C181.65 69.4426 179.946 68.0407 177.845 69.5427C177.845 69.5427 180.449 69.743 180.849 70.6442C180.849 70.6442 178.646 70.2437 178.146 70.5441C178.146 70.5441 179.85 71.1449 179.748 71.5455C179.748 71.5455 176.744 71.5455 176.339 72.647C176.339 72.647 179.443 73.0475 179.643 73.3479C179.643 73.3479 176.039 75.9514 175.838 76.6524C175.838 76.6524 179.543 74.4494 180.144 74.4494C180.745 74.4494 177.44 77.6452 177.641 78.4548C177.649 78.4484 180.361 75.2441 181.052 75.4444Z" fill="#00BAFC"/>
<path d="M201.914 98.6184H203.137C203.137 98.6184 203.521 85.2321 201.914 81.101H201.607C201.607 81.101 202.681 96.2428 201.914 98.6184Z" fill="#00BAFC"/>
<path d="M202.756 80.4129C202.756 80.4129 203.751 83.1677 203.29 84.3906C203.29 84.3906 202.602 81.8659 201.799 81.4845C200.996 81.1032 200.154 84.3906 200.154 84.3906C200.154 84.3906 199.696 82.3261 200.538 80.6429C199.461 81.2803 198.586 82.2086 198.013 83.3211C198.013 83.3211 197.86 82.1727 199.85 79.8014C199.85 79.8014 198.09 80.2595 196.944 81.3311C196.944 81.3311 196.56 80.4896 198.934 79.1132C198.934 79.1132 198.627 78.1182 196.792 78.5784C196.792 78.5784 196.792 77.2788 199.698 77.5132C199.698 77.5132 199.698 76.6716 197.781 76.825C197.781 76.825 197.781 75.7597 199.999 76.1368C199.999 76.1368 199.541 75.4487 199.234 75.2953C199.615 75.2616 199.995 75.371 200.299 75.6021C200.299 75.6021 200.222 74.2257 201.364 73.6846L201.518 75.6021C201.518 75.6021 202.796 74.0872 202.513 74.3791C202.33 74.8405 202.251 75.3368 202.283 75.8322C202.283 75.8322 203.582 74.7669 205.189 75.9089C205.189 75.9089 203.199 76.0623 202.894 76.7504C202.894 76.7504 204.577 76.4436 204.959 76.6737C204.959 76.6737 203.659 77.1318 203.736 77.4386C203.736 77.4386 206.03 77.4386 206.337 78.2802C206.337 78.2802 203.966 78.587 203.812 78.8149C203.812 78.8149 206.567 80.8049 206.719 81.3396C206.719 81.3396 203.889 79.6565 203.429 79.6565C202.969 79.6565 205.493 82.1045 205.346 82.716C205.357 82.7075 203.293 80.2637 202.756 80.4129Z" fill="#00BAFC"/>
<path d="M216.557 96.0021H217.316C217.316 96.0021 217.552 87.7121 216.557 85.1533H216.368C216.368 85.1533 217.03 94.5384 216.557 96.0021Z" fill="#00BAFC"/>
<path d="M217.079 84.7272C217.079 84.7272 217.695 86.4316 217.412 87.1901C217.412 87.1901 216.986 85.6263 216.487 85.3898C215.989 85.1533 215.469 87.1901 215.469 87.1901C215.469 87.1901 215.185 85.9118 215.705 84.8678C215.038 85.2622 214.496 85.8367 214.141 86.5254C214.141 86.5254 214.048 85.8138 215.279 84.3458C214.618 84.5297 214.004 84.853 213.479 85.2939C213.479 85.2939 213.242 84.7719 214.71 83.9197C214.71 83.9197 214.521 83.304 213.383 83.5873C213.383 83.5873 213.383 82.782 215.183 82.9247C215.183 82.9247 215.183 82.4027 213.999 82.4986C213.999 82.4986 213.999 81.836 215.373 82.0725C215.246 81.8729 215.086 81.6964 214.9 81.5505C215.137 81.5288 215.373 81.5964 215.563 81.7401C215.563 81.7401 215.516 80.8879 216.225 80.5555L216.319 81.7401C216.319 81.7401 217.116 80.8027 216.935 80.9817C216.821 81.2671 216.772 81.5742 216.792 81.8807C217.055 81.6889 217.374 81.5894 217.7 81.5979C218.026 81.6064 218.339 81.7223 218.592 81.9276C218.592 81.9276 217.361 82.0214 217.171 82.4496C217.171 82.4496 218.213 82.26 218.449 82.4027C218.449 82.4027 217.644 82.6861 217.691 82.8757C217.691 82.8757 219.112 82.8757 219.302 83.3977C219.302 83.3977 217.834 83.5873 217.738 83.7301C217.738 83.7301 219.442 84.9615 219.538 85.2939C219.538 85.2939 217.785 84.2521 217.501 84.2521C217.218 84.2521 218.78 85.769 218.686 86.1461C218.69 86.1482 217.41 84.6313 217.079 84.7272Z" fill="#00BAFC"/>
<path d="M188.86 86.6276L188.7 85.7754C188.7 85.7128 188.687 85.6508 188.662 85.5933C188.637 85.5358 188.601 85.484 188.556 85.4409L187.816 85.0787C187.762 85.0147 187.717 84.9429 187.684 84.8657L187.697 84.8465C187.738 84.7959 187.767 84.737 187.782 84.6739C187.784 84.6576 187.784 84.6412 187.782 84.6249H187.793C187.861 84.634 187.93 84.6172 187.987 84.5777C188.043 84.5383 188.083 84.4791 188.097 84.4119V84.3927C188.084 84.4503 188.053 84.5021 188.008 84.5405C187.963 84.5788 187.907 84.6017 187.848 84.6058C187.951 84.5368 188.035 84.4436 188.094 84.3344C188.152 84.2251 188.183 84.1032 188.183 83.9794C188.183 83.9794 188.183 83.9581 188.183 83.9474C188.215 83.9274 188.243 83.9008 188.265 83.8692C188.287 83.8376 188.302 83.8018 188.308 83.7642V83.745C188.299 83.7807 188.283 83.8142 188.261 83.8435C188.239 83.8728 188.211 83.8973 188.178 83.9155C188.173 83.8425 188.158 83.7708 188.132 83.7024H188.151C188.224 83.7024 188.294 83.6734 188.345 83.6219C188.397 83.5704 188.426 83.5005 188.426 83.4276C188.426 83.4276 188.426 83.4148 188.426 83.4084C188.421 83.4775 188.39 83.5423 188.339 83.5897C188.289 83.6371 188.222 83.6637 188.153 83.664H188.119V83.6513C188.201 83.6267 188.274 83.5794 188.329 83.5149C188.385 83.4504 188.422 83.3713 188.434 83.2869C188.434 83.2869 188.434 83.2742 188.434 83.2678C188.43 83.3211 188.411 83.3723 188.379 83.4148C188.382 83.3465 188.36 83.2793 188.317 83.2264C188.274 83.1734 188.213 83.1385 188.145 83.1284C188.077 83.1183 188.008 83.1337 187.952 83.1717C187.895 83.2097 187.854 83.2675 187.838 83.3338L187.789 83.3061C187.804 83.2512 187.836 83.2025 187.88 83.1666C187.924 83.1307 187.979 83.1095 188.036 83.1058H188.017C187.959 83.1054 187.903 83.123 187.856 83.1563C187.809 83.1896 187.773 83.2367 187.754 83.2912C187.59 83.2146 187.403 83.2001 187.228 83.2502C187.054 83.3003 186.903 83.4117 186.804 83.5639C186.747 83.6065 186.672 83.6683 186.674 83.7216C186.65 83.7463 186.627 83.7734 186.608 83.8025C186.527 83.9804 186.498 84.1775 186.523 84.3714C186.535 84.4678 186.523 84.5655 186.489 84.6564C186.455 84.7473 186.399 84.8286 186.327 84.8934C186.359 84.9066 186.393 84.9134 186.427 84.9134C186.462 84.9134 186.496 84.9066 186.527 84.8934C186.591 84.8666 186.65 84.8315 186.704 84.789C186.755 84.7584 186.797 84.7169 186.83 84.6675V84.6569C186.865 84.6806 186.903 84.7006 186.943 84.7165C186.958 84.8444 186.962 84.9914 186.904 85.0404L186.915 85.0169C186.778 85.1203 186.607 85.1689 186.436 85.1533C186.332 85.1591 186.232 85.1916 186.145 85.2477C186.058 85.3037 185.987 85.3813 185.939 85.4729L185.707 86.4423V86.4593V86.4764C185.711 86.4894 185.718 86.5013 185.727 86.5107C185.737 86.5201 185.749 86.5266 185.762 86.5296L185.835 86.5488C185.846 86.7144 185.829 86.8807 185.786 87.041C185.737 87.2796 185.709 87.5219 185.703 87.7654C185.72 87.8868 185.75 88.5196 185.765 88.82C185.739 88.9226 185.718 89.0264 185.703 89.131L185.36 91.1892C185.36 91.1892 185.104 92.8361 185.117 93.3346L185.072 93.6223C185.072 93.6223 184.375 94.4958 184.58 94.6193C184.784 94.7429 185.1 94.7962 185.4 94.3317C185.441 94.2223 185.507 94.1238 185.592 94.0441C185.626 94.0146 185.653 93.9773 185.669 93.9354C185.686 93.8935 185.692 93.8482 185.688 93.8033L185.667 93.5903L185.703 93.6031H185.724C185.724 93.6031 186.067 92.476 186.029 91.6856C186.029 91.6856 186.668 89.4229 187.147 89.0671V89.0522L187.192 89.0309L187.294 91.2232L187.19 93.6393L187.166 93.7842C187.166 93.7842 186.47 94.6577 186.674 94.7813C186.879 94.9048 187.194 94.9581 187.495 94.4936C187.535 94.3842 187.601 94.2857 187.686 94.206C187.72 94.1765 187.747 94.1392 187.764 94.0973C187.78 94.0554 187.787 94.0101 187.782 93.9653L187.75 93.6457C187.87 93.2387 188.176 92.0669 188.051 91.3873L188.264 89.9428C188.477 89.702 188.449 89.0906 188.449 89.0906C188.617 88.739 188.662 87.3606 188.662 87.3606L188.705 86.6788C188.737 86.6761 188.769 86.6761 188.801 86.6788H188.822H188.835V86.666C188.841 86.6606 188.846 86.6541 188.85 86.6468H188.862V86.6298L188.86 86.6276ZM188.264 88.0125C188.245 87.9656 188.223 87.9188 188.2 87.8719H188.183V87.8548C188.182 87.8492 188.182 87.8435 188.183 87.8378V87.8208C188.193 87.7979 188.201 87.7744 188.208 87.7505C188.236 87.7064 188.25 87.6553 188.249 87.6034C188.274 87.7383 188.279 87.8762 188.264 88.0125ZM188.2 87.4287L188.157 86.9728L188.17 86.9366L188.227 87.5161L188.2 87.4287ZM186.18 87.4905C186.165 87.5073 186.154 87.527 186.148 87.5483C186.141 87.5695 186.139 87.592 186.142 87.6141C186.142 87.6141 186.142 87.6141 186.142 87.629C186.142 87.6751 186.148 87.721 186.161 87.7654L186.095 88.0509V87.5054C186.139 87.4479 186.177 87.3866 186.21 87.3222C186.217 87.38 186.206 87.4385 186.18 87.4905Z" fill="url(#paint3_linear_0_25)"/>
<path d="M186.61 83.9708C186.532 84.142 186.503 84.3317 186.527 84.5184C186.538 84.6113 186.527 84.7055 186.494 84.793C186.461 84.8805 186.407 84.9588 186.338 85.0212C186.368 85.034 186.401 85.0406 186.435 85.0406C186.468 85.0406 186.501 85.034 186.532 85.0212C186.593 84.9955 186.65 84.9619 186.702 84.921C186.751 84.8915 186.792 84.8515 186.823 84.8039C186.853 84.7302 186.862 84.6501 186.851 84.5716C186.851 84.4324 186.864 84.2934 186.887 84.1562C186.9 84.071 186.981 83.8387 186.887 83.794C186.794 83.7493 186.651 83.9069 186.61 83.9708Z" fill="#72351C"/>
<path d="M185.202 93.0278L185.136 93.4539C185.136 93.4539 184.465 94.3061 184.663 94.4148C184.861 94.5234 185.164 94.5852 185.453 94.1378C185.492 94.0325 185.555 93.9377 185.637 93.8608C185.669 93.8323 185.695 93.7963 185.711 93.7559C185.727 93.7155 185.733 93.6718 185.728 93.6286L185.662 92.9788L185.202 93.0278Z" fill="#333333"/>
<path d="M187.222 93.1961L187.156 93.6222C187.156 93.6222 186.485 94.4744 186.683 94.5831C186.881 94.6917 187.183 94.7535 187.473 94.3061C187.512 94.2008 187.575 94.106 187.656 94.0291C187.689 94.0006 187.715 93.9646 187.731 93.9242C187.747 93.8838 187.753 93.8401 187.748 93.7969L187.682 93.1471L187.222 93.1961Z" fill="#333333"/>
<path d="M186.176 88.102C186.176 88.102 185.86 88.33 185.75 89.1225L185.419 91.1061C185.419 91.1061 185.14 92.9043 185.191 93.2494L185.75 93.4412C185.75 93.4412 186.08 92.3546 186.044 91.5982C186.044 91.5982 186.715 89.2078 187.186 89.0416L187.286 91.153L187.179 93.5285L187.657 93.6244C187.657 93.6244 188.14 92.1117 187.987 91.3106L188.236 89.6062C188.236 89.6062 188.522 88.6964 188.125 87.9017L186.176 88.102Z" fill="#4D8AF0"/>
<g opacity="0.1">
<path opacity="0.1" d="M187.137 89.0736V89.0374C186.666 89.2057 185.995 91.594 185.995 91.594C185.983 92.2123 185.886 92.826 185.707 93.4177L185.767 93.439C185.767 93.439 186.097 92.3525 186.061 91.5961C186.059 91.5983 186.672 89.4251 187.137 89.0736Z" fill="black"/>
<path opacity="0.1" d="M188.144 87.9124H188.08C188.31 88.4464 188.347 89.0432 188.187 89.6019L187.938 91.3063C188.085 92.0648 187.656 93.4603 187.612 93.6073L187.674 93.6201C187.674 93.6201 188.157 92.1074 188.004 91.3063L188.253 89.6019C188.253 89.6019 188.541 88.6964 188.144 87.9124Z" fill="black"/>
</g>
<path d="M185.748 86.5488C185.747 86.5651 185.752 86.5811 185.763 86.5939C185.773 86.6067 185.787 86.6156 185.803 86.6191C185.959 86.6583 186.104 86.731 186.229 86.8322C186.463 87.0154 185.98 86.4657 185.98 86.4657L185.818 86.5019L185.752 86.5616L185.748 86.5488Z" fill="#F55F44"/>
<path opacity="0.1" d="M185.748 86.5488C185.747 86.5651 185.752 86.5811 185.763 86.5939C185.773 86.6067 185.787 86.6156 185.803 86.6191C185.959 86.6583 186.104 86.731 186.229 86.8322C186.463 87.0154 185.98 86.4657 185.98 86.4657L185.818 86.5019L185.752 86.5616L185.748 86.5488Z" fill="black"/>
<path d="M188.053 87.0345C188.25 86.8946 188.478 86.8047 188.717 86.7725C188.734 86.7725 188.75 86.766 188.761 86.7544C188.773 86.7428 188.779 86.7271 188.779 86.7107C188.779 86.7107 188.221 86.4912 188.053 87.0345Z" fill="#F55F44"/>
<path opacity="0.1" d="M188.779 86.7086C188.779 86.7086 188.221 86.4955 188.053 87.0324C188.053 87.0324 188.464 86.7171 188.749 86.7682" fill="black"/>
<path d="M187.405 84.8678C187.806 84.8678 188.132 84.5426 188.132 84.1413C188.132 83.7401 187.806 83.4148 187.405 83.4148C187.004 83.4148 186.679 83.7401 186.679 84.1413C186.679 84.5426 187.004 84.8678 187.405 84.8678Z" fill="#72351C"/>
<path d="M186.904 84.6505C186.904 84.6505 187.007 85.0766 186.904 85.164C186.802 85.2513 186.595 85.4132 186.751 85.5389C186.907 85.6646 187.463 85.8777 187.648 85.7733C187.833 85.6689 188.044 85.7009 187.993 85.4878C187.942 85.2748 187.537 85.3195 187.531 84.2606L186.904 84.6505Z" fill="#FDB797"/>
<path opacity="0.1" d="M185.875 86.421C185.891 86.6521 185.876 86.8842 185.831 87.1113C185.784 87.3408 185.756 87.5739 185.75 87.808C185.771 87.9614 185.816 88.9756 185.816 88.9756C185.816 88.9756 185.735 89.864 186.167 89.783C186.6 89.7021 186.101 88.7689 186.101 88.7689L186.122 87.5566C186.24 87.3973 186.313 87.2099 186.336 87.0133C186.368 86.7214 185.875 86.421 185.875 86.421Z" fill="black"/>
<path d="M185.869 86.421C185.884 86.6521 185.869 86.8842 185.824 87.1113C185.777 87.3408 185.75 87.5739 185.743 87.808C185.765 87.9614 185.809 88.9756 185.809 88.9756C185.809 88.9756 185.728 89.864 186.161 89.783C186.593 89.7021 186.095 88.7689 186.095 88.7689L186.116 87.5566C186.233 87.3973 186.307 87.2099 186.329 87.0133C186.359 86.7214 185.869 86.421 185.869 86.421Z" fill="#FDB797"/>
<path opacity="0.1" d="M188.636 86.4871L188.577 87.4352C188.577 87.4352 188.541 88.7646 188.379 89.1013C188.379 89.1013 188.423 90.0345 187.989 90.011C187.554 89.9876 188.061 88.9905 188.061 88.9905C188.061 88.9905 188.293 87.9529 188.174 87.6248L188.061 86.4871H188.636Z" fill="black"/>
<path d="M188.643 86.4871L188.583 87.4352C188.583 87.4352 188.547 88.7646 188.385 89.1013C188.385 89.1013 188.43 90.0345 187.995 90.011C187.561 89.9876 188.068 88.9905 188.068 88.9905C188.068 88.9905 188.3 87.9529 188.181 87.6248L188.068 86.4871H188.643Z" fill="#FDB797"/>
<path opacity="0.1" d="M187.235 85.5688C187.235 85.5688 187.586 85.7307 187.778 85.2492L188.492 85.5986C188.536 85.6403 188.57 85.6906 188.594 85.7462C188.618 85.8019 188.63 85.8619 188.63 85.9224L188.784 86.7448C188.784 86.7448 188.262 86.568 188.1 87.0538L188.144 87.5161C188.178 87.6303 188.17 87.7527 188.121 87.8612C188.117 87.871 188.114 87.8815 188.114 87.8921C188.114 87.9028 188.117 87.9133 188.121 87.923C188.132 87.9567 188.134 87.9924 188.129 88.0272C188.123 88.0621 188.109 88.0951 188.089 88.1237C188.068 88.1523 188.041 88.1757 188.009 88.1919C187.978 88.2081 187.943 88.2167 187.908 88.217C187.716 88.2193 187.525 88.2342 187.335 88.2618C187.181 88.3065 186.717 88.1744 186.564 88.2618C186.41 88.3491 186.086 88.1957 186.086 88.1957L186.174 87.8208C186.174 87.8208 186.114 87.6375 186.189 87.5715C186.263 87.5054 186.218 86.9323 186.152 86.7704C186.152 86.7704 185.888 86.5211 185.726 86.5573L185.939 85.6092C185.985 85.5208 186.053 85.4459 186.137 85.3917C186.221 85.3375 186.317 85.3061 186.416 85.3003C186.582 85.3151 186.746 85.268 186.879 85.1682C186.879 85.1682 186.719 85.5176 187.235 85.5688Z" fill="black"/>
<path opacity="0.1" d="M187.271 85.5516C187.367 85.5772 187.622 85.6049 187.776 85.2193L188.49 85.5687C188.533 85.6104 188.568 85.6607 188.592 85.7163C188.616 85.772 188.628 85.832 188.628 85.8925L188.781 86.7149C188.781 86.7149 188.259 86.5381 188.098 87.0239L188.142 87.4862L188.172 87.5778C188.185 87.617 188.188 87.6586 188.182 87.6993C188.176 87.74 188.16 87.7787 188.136 87.8122C188.126 87.8236 188.119 87.8377 188.116 87.8527C188.114 87.8677 188.115 87.8832 188.121 87.8974C188.132 87.9311 188.134 87.9667 188.129 88.0016C188.123 88.0365 188.109 88.0695 188.089 88.0981C188.068 88.1267 188.041 88.15 188.009 88.1662C187.978 88.1824 187.943 88.1911 187.908 88.1914C187.716 88.1936 187.525 88.2086 187.335 88.2362C187.181 88.2809 186.717 88.1488 186.564 88.2362C186.41 88.3235 186.086 88.1701 186.086 88.1701L186.174 87.7951C186.174 87.7951 186.114 87.6119 186.189 87.5459C186.263 87.4798 186.218 86.9067 186.152 86.7448C186.152 86.7448 185.888 86.4955 185.726 86.5317L185.939 85.5836C185.985 85.4952 186.053 85.4202 186.137 85.3661C186.221 85.3119 186.317 85.2804 186.416 85.2747C186.582 85.2895 186.746 85.2424 186.879 85.1426C186.879 85.1426 186.706 85.4579 187.16 85.5261L187.271 85.5516Z" fill="black"/>
<path d="M187.271 85.5666C187.367 85.5922 187.622 85.6199 187.776 85.2343L188.49 85.5837C188.533 85.6254 188.568 85.6757 188.592 85.7313C188.616 85.787 188.628 85.847 188.628 85.9075L188.781 86.7299C188.781 86.7299 188.259 86.5531 188.097 87.0389L188.142 87.5012C188.176 87.6154 188.168 87.7378 188.119 87.8463C188.115 87.8561 188.112 87.8666 188.112 87.8772C188.112 87.8879 188.115 87.8984 188.119 87.9081C188.129 87.9418 188.132 87.9775 188.126 88.0123C188.121 88.0472 188.107 88.0802 188.086 88.1088C188.066 88.1374 188.039 88.1608 188.007 88.177C187.976 88.1932 187.941 88.2018 187.906 88.2022C187.714 88.2044 187.522 88.2193 187.333 88.2469C187.179 88.2916 186.715 88.1595 186.561 88.2469C186.408 88.3342 186.084 88.1808 186.084 88.1808L186.171 87.8059C186.171 87.8059 186.112 87.6226 186.186 87.5566C186.261 87.4905 186.216 86.9174 186.15 86.7555C186.15 86.7555 185.886 86.5062 185.724 86.5424L185.937 85.5943C185.983 85.5059 186.051 85.431 186.135 85.3768C186.219 85.3226 186.315 85.2912 186.414 85.2854C186.58 85.3002 186.744 85.2531 186.877 85.1533C186.877 85.1533 186.704 85.4686 187.158 85.5368L187.271 85.5666Z" fill="#F55F44"/>
<path opacity="0.1" d="M187.541 84.299L186.917 84.6888C186.933 84.7592 186.945 84.8303 186.953 84.9019C187.025 84.9302 187.1 84.9447 187.177 84.9445C187.33 84.9338 187.473 84.8688 187.582 84.7613C187.554 84.6088 187.54 84.454 187.541 84.299Z" fill="black"/>
<path d="M187.164 84.8977C187.497 84.8977 187.767 84.6277 187.767 84.2947C187.767 83.9617 187.497 83.6918 187.164 83.6918C186.831 83.6918 186.561 83.9617 186.561 84.2947C186.561 84.6277 186.831 84.8977 187.164 84.8977Z" fill="#FDB797"/>
<path d="M188.053 83.8323C188.199 83.8323 188.317 83.714 188.317 83.5681C188.317 83.4222 188.199 83.304 188.053 83.304C187.907 83.304 187.789 83.4222 187.789 83.5681C187.789 83.714 187.907 83.8323 188.053 83.8323Z" fill="#72351C"/>
<path d="M188.104 83.8473C188.037 83.8475 187.973 83.8223 187.924 83.7768C187.875 83.7314 187.845 83.669 187.84 83.6023C187.84 83.6023 187.84 83.6151 187.84 83.6215C187.84 83.6915 187.868 83.7587 187.917 83.8083C187.967 83.8578 188.034 83.8857 188.104 83.8857C188.174 83.8857 188.241 83.8578 188.291 83.8083C188.34 83.7587 188.368 83.6915 188.368 83.6215C188.368 83.6215 188.368 83.6087 188.368 83.6023C188.363 83.669 188.333 83.7314 188.284 83.7768C188.235 83.8223 188.171 83.8475 188.104 83.8473Z" fill="#72351C"/>
<path d="M187.953 84.0987C187.887 84.0862 187.829 84.0494 187.789 83.9957C187.75 83.9419 187.732 83.8752 187.74 83.809V83.826C187.727 83.8949 187.742 83.9661 187.782 84.0238C187.822 84.0816 187.883 84.1212 187.952 84.1339C188.02 84.1466 188.092 84.1314 188.149 84.0916C188.207 84.0519 188.247 83.9908 188.259 83.9219V83.9027C188.243 83.9685 188.202 84.0255 188.145 84.062C188.088 84.0985 188.019 84.1116 187.953 84.0987Z" fill="#72351C"/>
<path d="M187.748 84.7379C187.683 84.7254 187.624 84.6886 187.585 84.6348C187.545 84.5811 187.527 84.5144 187.535 84.4481V84.4652C187.522 84.5341 187.538 84.6053 187.577 84.663C187.617 84.7207 187.678 84.7603 187.747 84.773C187.816 84.7857 187.887 84.7706 187.945 84.7308C188.003 84.691 188.042 84.63 188.055 84.561V84.5419C188.039 84.6076 187.998 84.6647 187.941 84.7012C187.884 84.7376 187.815 84.7508 187.748 84.7379Z" fill="#72351C"/>
<path d="M188.104 83.7066C188.037 83.7068 187.972 83.6813 187.923 83.6354C187.874 83.5894 187.844 83.5265 187.84 83.4595C187.84 83.4595 187.84 83.4723 187.84 83.4786C187.84 83.5487 187.868 83.6159 187.917 83.6655C187.967 83.715 188.034 83.7428 188.104 83.7428C188.174 83.7428 188.241 83.715 188.291 83.6655C188.34 83.6159 188.368 83.5487 188.368 83.4786C188.368 83.4786 188.368 83.4659 188.368 83.4595C188.364 83.5265 188.334 83.5894 188.285 83.6354C188.236 83.6813 188.171 83.7068 188.104 83.7066Z" fill="#72351C"/>
<path d="M187.735 83.5639C187.736 83.4967 187.762 83.4322 187.808 83.3836C187.854 83.3349 187.918 83.3057 187.985 83.3019H187.965C187.895 83.3019 187.828 83.3297 187.779 83.3793C187.729 83.4288 187.701 83.496 187.701 83.5661C187.701 83.6361 187.729 83.7033 187.779 83.7529C187.828 83.8024 187.895 83.8303 187.965 83.8303H187.985C187.917 83.8264 187.853 83.7966 187.807 83.747C187.76 83.6974 187.735 83.6319 187.735 83.5639Z" fill="#72351C"/>
<path opacity="0.1" d="M188.002 86.0566C188.029 86.1873 188.029 86.3223 188.002 86.4529C188.002 86.4529 187.965 86.7981 188.023 86.8577" fill="black"/>
<path opacity="0.1" d="M186.216 86.1376C186.244 86.2682 186.244 86.4032 186.216 86.5339C186.216 86.5339 186.18 86.879 186.238 86.9387" fill="black"/>
<path opacity="0.1" d="M186.201 87.5544C186.258 87.5749 186.321 87.5749 186.378 87.5544C186.448 87.5333 186.522 87.5333 186.591 87.5544" fill="black"/>
<path opacity="0.1" d="M186.291 87.0346C186.498 87.0445 186.706 87.0119 186.9 86.9387C186.9 86.9387 187.65 87.122 187.863 86.9899" fill="black"/>
<path d="M186.065 90.2006H185.888C185.809 90.2006 185.745 90.2645 185.745 90.3433C185.745 90.4221 185.809 90.486 185.888 90.486H186.065C186.144 90.486 186.208 90.4221 186.208 90.3433C186.208 90.2645 186.144 90.2006 186.065 90.2006Z" fill="#FDB797"/>
<path d="M185.747 90.2773L185.995 90.2666L186.208 90.3007H186.133L185.747 90.2773Z" fill="#F0E4E4"/>
<path d="M187.414 89.082H187.661L187.874 89.1033H187.799L187.414 89.082Z" fill="#F0E4E4"/>
<path d="M187.414 89.1332H187.661L187.874 89.1545H187.799L187.414 89.1332Z" fill="#F0E4E4"/>
<path d="M187.414 89.1864H187.661L187.874 89.2077H187.799L187.414 89.1864Z" fill="#F0E4E4"/>
<path d="M187.414 89.2375H187.661L187.874 89.2588H187.799L187.414 89.2375Z" fill="#F0E4E4"/>
<path d="M185.747 90.4753H185.995L186.208 90.5009H186.133L185.747 90.4753Z" fill="#F0E4E4"/>
<path d="M185.747 90.4498H185.995L186.208 90.4754H186.133L185.747 90.4498Z" fill="#F0E4E4"/>
<path d="M185.747 90.4243H185.995L186.208 90.4499H186.133L185.747 90.4243Z" fill="#F0E4E4"/>
<path d="M185.747 90.3987H185.995L186.208 90.4243H186.133L185.747 90.3987Z" fill="#F0E4E4"/>
<path d="M185.747 90.2389L185.995 90.2283L186.208 90.2624H186.133L185.747 90.2389Z" fill="#F0E4E4"/>
<path d="M185.747 90.1941L185.995 90.1835L186.208 90.2176H186.133L185.747 90.1941Z" fill="#F0E4E4"/>
<path opacity="0.1" d="M187.267 83.909C187.243 84.1342 187.272 84.3618 187.352 84.5738C187.391 84.6767 187.409 84.7867 187.403 84.8968C187.398 85.0068 187.369 85.1145 187.32 85.213C187.353 85.2205 187.387 85.2202 187.419 85.212C187.452 85.2039 187.482 85.1881 187.507 85.1661C187.56 85.1197 187.606 85.0659 187.644 85.0063C187.683 84.9577 187.712 84.9009 187.727 84.8401C187.733 84.7444 187.719 84.6484 187.684 84.5589C187.643 84.3957 187.613 84.2298 187.595 84.0624C187.582 83.9602 187.595 83.6662 187.48 83.6363C187.365 83.6065 187.288 83.8238 187.267 83.909Z" fill="black"/>
<path d="M187.282 83.9026C187.258 84.1278 187.287 84.3554 187.367 84.5673C187.406 84.6702 187.424 84.7802 187.418 84.8903C187.413 85.0004 187.384 85.1081 187.335 85.2065C187.368 85.214 187.402 85.2137 187.434 85.2056C187.467 85.1974 187.497 85.1817 187.522 85.1596C187.575 85.1133 187.621 85.0594 187.659 84.9998C187.698 84.9512 187.727 84.8945 187.742 84.8337C187.748 84.7379 187.734 84.6419 187.699 84.5524C187.658 84.3892 187.628 84.2234 187.61 84.056C187.597 83.9537 187.61 83.6597 187.495 83.6299C187.38 83.6001 187.303 83.8152 187.282 83.9026Z" fill="#72351C"/>
<path opacity="0.1" d="M187.022 84.0603C187.073 84.1135 187.083 84.1924 187.126 84.252C187.164 84.2926 187.21 84.3244 187.262 84.345C187.313 84.3657 187.369 84.3746 187.424 84.3713C187.455 84.3697 187.485 84.3764 187.512 84.3905C187.558 84.4203 187.561 84.4885 187.59 84.5354C187.606 84.5525 187.626 84.5661 187.647 84.5754C187.669 84.5848 187.692 84.5896 187.715 84.5896C187.738 84.5896 187.762 84.5848 187.783 84.5754C187.804 84.5661 187.824 84.5525 187.84 84.5354C187.901 84.4619 187.935 84.3692 187.936 84.2733C187.946 84.1678 187.946 84.0614 187.936 83.9559C187.933 83.835 187.885 83.7195 187.801 83.632C187.731 83.5802 187.651 83.5452 187.565 83.5298C187.448 83.4885 187.322 83.4789 187.201 83.5021C187.141 83.5217 187.086 83.5497 187.034 83.5852C186.962 83.632 186.891 83.6796 186.821 83.7279C186.742 83.7833 186.593 83.8941 186.738 83.9537C186.83 83.9964 186.945 83.9772 187.022 84.0603Z" fill="black"/>
<path d="M187.036 84.0517C187.088 84.105 187.098 84.1838 187.141 84.2435C187.179 84.2841 187.225 84.3159 187.277 84.3365C187.328 84.3571 187.384 84.3661 187.439 84.3628C187.469 84.3612 187.5 84.3678 187.527 84.3819C187.573 84.4118 187.576 84.48 187.605 84.5268C187.621 84.5439 187.641 84.5576 187.662 84.5669C187.683 84.5762 187.707 84.581 187.73 84.581C187.753 84.581 187.776 84.5762 187.798 84.5669C187.819 84.5576 187.839 84.5439 187.855 84.5268C187.916 84.4533 187.95 84.3606 187.95 84.2648C187.961 84.1592 187.961 84.0529 187.95 83.9473C187.948 83.8264 187.9 83.711 187.816 83.6235C187.746 83.5717 187.665 83.5367 187.58 83.5212C187.463 83.4799 187.337 83.4704 187.215 83.4935C187.156 83.5132 187.1 83.5412 187.049 83.5766C186.977 83.6235 186.906 83.6711 186.836 83.7194C186.757 83.7748 186.608 83.8855 186.753 83.9452C186.845 83.9878 186.966 83.9708 187.036 84.0517Z" fill="#72351C"/>
<path d="M187.428 89.082H187.676L187.889 89.1033H187.818L187.428 89.082Z" fill="#F0E4E4"/>
<path d="M187.428 89.1332H187.676L187.889 89.1545H187.818L187.428 89.1332Z" fill="#F0E4E4"/>
<path d="M187.428 89.1864H187.676L187.889 89.2077H187.818L187.428 89.1864Z" fill="#F0E4E4"/>
<path d="M187.428 89.2375H187.676L187.889 89.2588H187.818L187.428 89.2375Z" fill="#F0E4E4"/>
<path d="M187.322 92.0648H187.569L187.782 92.0861H187.708L187.322 92.0648Z" fill="#F0E4E4"/>
<path d="M187.322 92.118H187.569L187.782 92.1393H187.708L187.322 92.118Z" fill="#F0E4E4"/>
<path d="M187.322 92.1692H187.569L187.782 92.1905H187.708L187.322 92.1692Z" fill="#F0E4E4"/>
<path d="M187.322 92.2203H187.569L187.782 92.2416H187.708L187.322 92.2203Z" fill="#F0E4E4"/>
</g>
<path d="M67.5605 191H64.582V176.723H72.7656V179.203H67.5605V182.885H72.4043V185.355H67.5605V191ZM81.418 179.877C81.5677 179.877 81.7402 179.887 81.9355 179.906C82.1374 179.919 82.3001 179.939 82.4238 179.965L82.1992 182.758C82.1016 182.725 81.9616 182.702 81.7793 182.689C81.6035 182.67 81.4505 182.66 81.3203 182.66C80.9362 182.66 80.5618 182.709 80.1973 182.807C79.8392 182.904 79.5169 183.064 79.2305 183.285C78.944 183.5 78.7161 183.786 78.5469 184.145C78.3841 184.496 78.3027 184.929 78.3027 185.443V191H75.3242V180.082H77.5801L78.0195 181.918H78.166C78.3809 181.547 78.6478 181.208 78.9668 180.902C79.2923 180.59 79.6602 180.342 80.0703 180.16C80.487 179.971 80.9362 179.877 81.418 179.877ZM94.3281 185.521C94.3281 186.433 94.2044 187.24 93.957 187.943C93.7161 188.646 93.3613 189.242 92.8926 189.73C92.4303 190.212 91.8704 190.577 91.2129 190.824C90.5618 191.072 89.8262 191.195 89.0059 191.195C88.2376 191.195 87.5312 191.072 86.8867 190.824C86.2487 190.577 85.6921 190.212 85.2168 189.73C84.748 189.242 84.3835 188.646 84.123 187.943C83.8691 187.24 83.7422 186.433 83.7422 185.521C83.7422 184.311 83.957 183.285 84.3867 182.445C84.8164 181.605 85.4284 180.967 86.2227 180.531C87.0169 180.095 87.9642 179.877 89.0645 179.877C90.0866 179.877 90.9915 180.095 91.7793 180.531C92.5736 180.967 93.1953 181.605 93.6445 182.445C94.1003 183.285 94.3281 184.311 94.3281 185.521ZM86.7793 185.521C86.7793 186.238 86.8574 186.84 87.0137 187.328C87.1699 187.816 87.4141 188.184 87.7461 188.432C88.0781 188.679 88.5111 188.803 89.0449 188.803C89.5723 188.803 89.9987 188.679 90.3242 188.432C90.6562 188.184 90.8971 187.816 91.0469 187.328C91.2031 186.84 91.2812 186.238 91.2812 185.521C91.2812 184.799 91.2031 184.2 91.0469 183.725C90.8971 183.243 90.6562 182.882 90.3242 182.641C89.9922 182.4 89.5592 182.279 89.0254 182.279C88.2376 182.279 87.6647 182.549 87.3066 183.09C86.9551 183.63 86.7793 184.441 86.7793 185.521ZM102.99 179.877C104.156 179.877 105.093 180.196 105.803 180.834C106.512 181.465 106.867 182.481 106.867 183.881V191H103.889V184.623C103.889 183.842 103.745 183.253 103.459 182.855C103.179 182.458 102.736 182.26 102.131 182.26C101.219 182.26 100.598 182.569 100.266 183.188C99.9336 183.806 99.7676 184.698 99.7676 185.863V191H96.7891V180.082H99.0645L99.4648 181.479H99.6309C99.8652 181.101 100.155 180.795 100.5 180.561C100.852 180.326 101.239 180.154 101.662 180.043C102.092 179.932 102.535 179.877 102.99 179.877ZM114.533 188.822C114.859 188.822 115.174 188.79 115.48 188.725C115.793 188.66 116.102 188.578 116.408 188.48V190.697C116.089 190.84 115.692 190.958 115.217 191.049C114.748 191.146 114.234 191.195 113.674 191.195C113.023 191.195 112.437 191.091 111.916 190.883C111.402 190.668 110.995 190.3 110.695 189.779C110.402 189.252 110.256 188.52 110.256 187.582V182.318H108.83V181.059L110.471 180.062L111.33 177.758H113.234V180.082H116.291V182.318H113.234V187.582C113.234 187.999 113.352 188.311 113.586 188.52C113.827 188.721 114.143 188.822 114.533 188.822ZM117.658 186.859V184.418H122.902V186.859H117.658ZM129.572 179.877C130.581 179.877 131.451 180.072 132.18 180.463C132.909 180.847 133.472 181.407 133.869 182.143C134.266 182.878 134.465 183.777 134.465 184.838V186.283H127.424C127.456 187.123 127.707 187.784 128.176 188.266C128.651 188.741 129.309 188.979 130.148 188.979C130.845 188.979 131.483 188.907 132.062 188.764C132.642 188.62 133.238 188.406 133.85 188.119V190.424C133.309 190.691 132.743 190.886 132.15 191.01C131.564 191.133 130.852 191.195 130.012 191.195C128.918 191.195 127.948 190.993 127.102 190.59C126.262 190.186 125.601 189.571 125.119 188.744C124.644 187.917 124.406 186.876 124.406 185.619C124.406 184.343 124.621 183.282 125.051 182.436C125.487 181.583 126.092 180.945 126.867 180.521C127.642 180.092 128.544 179.877 129.572 179.877ZM129.592 181.996C129.012 181.996 128.531 182.182 128.146 182.553C127.769 182.924 127.551 183.507 127.492 184.301H131.672C131.665 183.858 131.584 183.464 131.428 183.119C131.278 182.774 131.05 182.501 130.744 182.299C130.445 182.097 130.061 181.996 129.592 181.996ZM143.088 179.877C144.253 179.877 145.191 180.196 145.9 180.834C146.61 181.465 146.965 182.481 146.965 183.881V191H143.986V184.623C143.986 183.842 143.843 183.253 143.557 182.855C143.277 182.458 142.834 182.26 142.229 182.26C141.317 182.26 140.695 182.569 140.363 183.188C140.031 183.806 139.865 184.698 139.865 185.863V191H136.887V180.082H139.162L139.562 181.479H139.729C139.963 181.101 140.253 180.795 140.598 180.561C140.949 180.326 141.337 180.154 141.76 180.043C142.189 179.932 142.632 179.877 143.088 179.877ZM153.488 191.195C152.271 191.195 151.278 190.72 150.51 189.77C149.748 188.812 149.367 187.41 149.367 185.561C149.367 183.692 149.755 182.279 150.529 181.322C151.304 180.359 152.316 179.877 153.566 179.877C154.087 179.877 154.546 179.949 154.943 180.092C155.34 180.235 155.682 180.427 155.969 180.668C156.262 180.909 156.509 181.179 156.711 181.479H156.809C156.77 181.27 156.721 180.964 156.662 180.561C156.61 180.15 156.584 179.73 156.584 179.301V175.805H159.572V191H157.287L156.711 189.584H156.584C156.395 189.883 156.158 190.157 155.871 190.404C155.591 190.645 155.256 190.837 154.865 190.98C154.475 191.124 154.016 191.195 153.488 191.195ZM154.533 188.822C155.347 188.822 155.92 188.581 156.252 188.1C156.59 187.611 156.77 186.879 156.789 185.902V185.58C156.789 184.519 156.626 183.708 156.301 183.148C155.975 182.582 155.37 182.299 154.484 182.299C153.827 182.299 153.312 182.582 152.941 183.148C152.57 183.715 152.385 184.532 152.385 185.6C152.385 186.667 152.57 187.471 152.941 188.012C153.319 188.552 153.85 188.822 154.533 188.822ZM171.34 191.195C170.122 191.195 169.13 190.72 168.361 189.77C167.6 188.812 167.219 187.41 167.219 185.561C167.219 183.692 167.606 182.279 168.381 181.322C169.156 180.359 170.168 179.877 171.418 179.877C171.939 179.877 172.398 179.949 172.795 180.092C173.192 180.235 173.534 180.427 173.82 180.668C174.113 180.909 174.361 181.179 174.562 181.479H174.66C174.621 181.27 174.572 180.964 174.514 180.561C174.462 180.15 174.436 179.73 174.436 179.301V175.805H177.424V191H175.139L174.562 189.584H174.436C174.247 189.883 174.009 190.157 173.723 190.404C173.443 190.645 173.107 190.837 172.717 190.98C172.326 191.124 171.867 191.195 171.34 191.195ZM172.385 188.822C173.199 188.822 173.771 188.581 174.104 188.1C174.442 187.611 174.621 186.879 174.641 185.902V185.58C174.641 184.519 174.478 183.708 174.152 183.148C173.827 182.582 173.221 182.299 172.336 182.299C171.678 182.299 171.164 182.582 170.793 183.148C170.422 183.715 170.236 184.532 170.236 185.6C170.236 186.667 170.422 187.471 170.793 188.012C171.171 188.552 171.701 188.822 172.385 188.822ZM185.012 179.857C186.477 179.857 187.6 180.176 188.381 180.814C189.162 181.452 189.553 182.423 189.553 183.725V191H187.473L186.896 189.516H186.818C186.506 189.906 186.187 190.225 185.861 190.473C185.536 190.72 185.161 190.902 184.738 191.02C184.315 191.137 183.801 191.195 183.195 191.195C182.551 191.195 181.971 191.072 181.457 190.824C180.949 190.577 180.549 190.199 180.256 189.691C179.963 189.177 179.816 188.526 179.816 187.738C179.816 186.579 180.223 185.727 181.037 185.18C181.851 184.626 183.072 184.32 184.699 184.262L186.594 184.203V183.725C186.594 183.152 186.444 182.732 186.145 182.465C185.845 182.198 185.428 182.064 184.895 182.064C184.367 182.064 183.85 182.139 183.342 182.289C182.834 182.439 182.326 182.628 181.818 182.855L180.832 180.844C181.411 180.538 182.059 180.297 182.775 180.121C183.498 179.945 184.243 179.857 185.012 179.857ZM186.594 185.941L185.441 185.98C184.478 186.007 183.807 186.179 183.43 186.498C183.059 186.817 182.873 187.237 182.873 187.758C182.873 188.214 183.007 188.539 183.273 188.734C183.54 188.923 183.889 189.018 184.318 189.018C184.956 189.018 185.493 188.829 185.93 188.451C186.372 188.074 186.594 187.536 186.594 186.84V185.941ZM200.246 187.758C200.246 188.5 200.07 189.128 199.719 189.643C199.374 190.15 198.856 190.538 198.166 190.805C197.476 191.065 196.617 191.195 195.588 191.195C194.826 191.195 194.172 191.146 193.625 191.049C193.085 190.951 192.538 190.788 191.984 190.561V188.1C192.577 188.367 193.212 188.588 193.889 188.764C194.572 188.933 195.171 189.018 195.686 189.018C196.265 189.018 196.678 188.933 196.926 188.764C197.18 188.588 197.307 188.36 197.307 188.08C197.307 187.898 197.255 187.735 197.15 187.592C197.053 187.442 196.838 187.276 196.506 187.094C196.174 186.905 195.653 186.661 194.943 186.361C194.26 186.075 193.697 185.785 193.254 185.492C192.818 185.199 192.492 184.854 192.277 184.457C192.069 184.053 191.965 183.542 191.965 182.924C191.965 181.915 192.355 181.156 193.137 180.648C193.924 180.134 194.976 179.877 196.291 179.877C196.968 179.877 197.613 179.945 198.225 180.082C198.843 180.219 199.478 180.437 200.129 180.736L199.23 182.885C198.69 182.65 198.179 182.458 197.697 182.309C197.222 182.159 196.737 182.084 196.242 182.084C195.806 182.084 195.477 182.143 195.256 182.26C195.035 182.377 194.924 182.556 194.924 182.797C194.924 182.973 194.979 183.129 195.09 183.266C195.207 183.402 195.428 183.555 195.754 183.725C196.086 183.887 196.571 184.099 197.209 184.359C197.827 184.613 198.365 184.88 198.82 185.16C199.276 185.434 199.628 185.775 199.875 186.186C200.122 186.589 200.246 187.113 200.246 187.758ZM207.17 188.822C207.495 188.822 207.811 188.79 208.117 188.725C208.43 188.66 208.739 188.578 209.045 188.48V190.697C208.726 190.84 208.329 190.958 207.854 191.049C207.385 191.146 206.87 191.195 206.311 191.195C205.66 191.195 205.074 191.091 204.553 190.883C204.038 190.668 203.632 190.3 203.332 189.779C203.039 189.252 202.893 188.52 202.893 187.582V182.318H201.467V181.059L203.107 180.062L203.967 177.758H205.871V180.082H208.928V182.318H205.871V187.582C205.871 187.999 205.988 188.311 206.223 188.52C206.464 188.721 206.779 188.822 207.17 188.822ZM221.281 180.082V191H218.996L218.596 189.604H218.439C218.205 189.975 217.912 190.277 217.561 190.512C217.209 190.746 216.822 190.919 216.398 191.029C215.975 191.14 215.536 191.195 215.08 191.195C214.299 191.195 213.618 191.059 213.039 190.785C212.46 190.505 212.007 190.072 211.682 189.486C211.363 188.9 211.203 188.139 211.203 187.201V180.082H214.182V186.459C214.182 187.24 214.322 187.829 214.602 188.227C214.882 188.624 215.327 188.822 215.939 188.822C216.545 188.822 217.02 188.686 217.365 188.412C217.71 188.132 217.951 187.725 218.088 187.191C218.231 186.651 218.303 185.993 218.303 185.219V180.082H221.281ZM230.5 179.877C230.65 179.877 230.822 179.887 231.018 179.906C231.219 179.919 231.382 179.939 231.506 179.965L231.281 182.758C231.184 182.725 231.044 182.702 230.861 182.689C230.686 182.67 230.533 182.66 230.402 182.66C230.018 182.66 229.644 182.709 229.279 182.807C228.921 182.904 228.599 183.064 228.312 183.285C228.026 183.5 227.798 183.786 227.629 184.145C227.466 184.496 227.385 184.929 227.385 185.443V191H224.406V180.082H226.662L227.102 181.918H227.248C227.463 181.547 227.73 181.208 228.049 180.902C228.374 180.59 228.742 180.342 229.152 180.16C229.569 179.971 230.018 179.877 230.5 179.877ZM236.467 191H233.488V175.805H236.467V191ZM244.074 179.857C245.539 179.857 246.662 180.176 247.443 180.814C248.225 181.452 248.615 182.423 248.615 183.725V191H246.535L245.959 189.516H245.881C245.568 189.906 245.249 190.225 244.924 190.473C244.598 190.72 244.224 190.902 243.801 191.02C243.378 191.137 242.863 191.195 242.258 191.195C241.613 191.195 241.034 191.072 240.52 190.824C240.012 190.577 239.611 190.199 239.318 189.691C239.025 189.177 238.879 188.526 238.879 187.738C238.879 186.579 239.286 185.727 240.1 185.18C240.913 184.626 242.134 184.32 243.762 184.262L245.656 184.203V183.725C245.656 183.152 245.507 182.732 245.207 182.465C244.908 182.198 244.491 182.064 243.957 182.064C243.43 182.064 242.912 182.139 242.404 182.289C241.896 182.439 241.389 182.628 240.881 182.855L239.895 180.844C240.474 180.538 241.122 180.297 241.838 180.121C242.561 179.945 243.306 179.857 244.074 179.857ZM245.656 185.941L244.504 185.98C243.54 186.007 242.87 186.179 242.492 186.498C242.121 186.817 241.936 187.237 241.936 187.758C241.936 188.214 242.069 188.539 242.336 188.734C242.603 188.923 242.951 189.018 243.381 189.018C244.019 189.018 244.556 188.829 244.992 188.451C245.435 188.074 245.656 187.536 245.656 186.84V185.941ZM259.309 187.758C259.309 188.5 259.133 189.128 258.781 189.643C258.436 190.15 257.919 190.538 257.229 190.805C256.538 191.065 255.679 191.195 254.65 191.195C253.889 191.195 253.234 191.146 252.688 191.049C252.147 190.951 251.6 190.788 251.047 190.561V188.1C251.639 188.367 252.274 188.588 252.951 188.764C253.635 188.933 254.234 189.018 254.748 189.018C255.327 189.018 255.741 188.933 255.988 188.764C256.242 188.588 256.369 188.36 256.369 188.08C256.369 187.898 256.317 187.735 256.213 187.592C256.115 187.442 255.9 187.276 255.568 187.094C255.236 186.905 254.715 186.661 254.006 186.361C253.322 186.075 252.759 185.785 252.316 185.492C251.88 185.199 251.555 184.854 251.34 184.457C251.132 184.053 251.027 183.542 251.027 182.924C251.027 181.915 251.418 181.156 252.199 180.648C252.987 180.134 254.038 179.877 255.354 179.877C256.031 179.877 256.675 179.945 257.287 180.082C257.906 180.219 258.54 180.437 259.191 180.736L258.293 182.885C257.753 182.65 257.242 182.458 256.76 182.309C256.285 182.159 255.799 182.084 255.305 182.084C254.868 182.084 254.54 182.143 254.318 182.26C254.097 182.377 253.986 182.556 253.986 182.797C253.986 182.973 254.042 183.129 254.152 183.266C254.27 183.402 254.491 183.555 254.816 183.725C255.148 183.887 255.633 184.099 256.271 184.359C256.89 184.613 257.427 184.88 257.883 185.16C258.339 185.434 258.69 185.775 258.938 186.186C259.185 186.589 259.309 187.113 259.309 187.758ZM264.611 175.805V178.9C264.611 179.441 264.592 179.955 264.553 180.443C264.52 180.932 264.494 181.277 264.475 181.479H264.631C264.865 181.101 265.142 180.795 265.461 180.561C265.786 180.326 266.145 180.154 266.535 180.043C266.926 179.932 267.346 179.877 267.795 179.877C268.583 179.877 269.27 180.017 269.855 180.297C270.441 180.57 270.897 181.003 271.223 181.596C271.548 182.182 271.711 182.943 271.711 183.881V191H268.732V184.623C268.732 183.842 268.589 183.253 268.303 182.855C268.016 182.458 267.574 182.26 266.975 182.26C266.376 182.26 265.904 182.4 265.559 182.68C265.214 182.953 264.969 183.36 264.826 183.9C264.683 184.434 264.611 185.089 264.611 185.863V191H261.633V175.805H264.611Z" fill="black"/>
<path d="M55.0391 230H53.7109V224.617H47.7109V230H46.3828V218.578H47.7109V223.445H53.7109V218.578H55.0391V230ZM61.6875 230H60.3516V219.75H56.7578V218.578H65.2656V219.75H61.6875V230ZM72.0156 230L68.1797 219.891H68.1172C68.138 220.104 68.1562 220.365 68.1719 220.672C68.1875 220.979 68.2005 221.315 68.2109 221.68C68.2214 222.039 68.2266 222.406 68.2266 222.781V230H66.9922V218.578H68.9609L72.5781 228.078H72.6328L76.3047 218.578H78.2578V230H76.9453V222.688C76.9453 222.349 76.9505 222.01 76.9609 221.672C76.9714 221.328 76.9844 221.005 77 220.703C77.0156 220.396 77.0312 220.13 77.0469 219.906H76.9844L73.1016 230H72.0156ZM81.3828 230V218.578H82.7109V228.812H87.7812V230H81.3828ZM91.0312 228.141L91.1328 228.32C91.0391 228.701 90.9193 229.107 90.7734 229.539C90.6328 229.971 90.4766 230.404 90.3047 230.836C90.138 231.273 89.9688 231.682 89.7969 232.062H88.8281C88.9375 231.646 89.0443 231.206 89.1484 230.742C89.2526 230.284 89.3464 229.831 89.4297 229.383C89.5182 228.93 89.5885 228.516 89.6406 228.141H91.0312ZM102.922 219.586C102.292 219.586 101.724 219.695 101.219 219.914C100.719 220.128 100.292 220.44 99.9375 220.852C99.5885 221.258 99.3203 221.75 99.1328 222.328C98.9453 222.906 98.8516 223.557 98.8516 224.281C98.8516 225.24 99 226.073 99.2969 226.781C99.599 227.484 100.047 228.029 100.641 228.414C101.24 228.799 101.987 228.992 102.883 228.992C103.393 228.992 103.872 228.951 104.32 228.867C104.773 228.779 105.214 228.669 105.641 228.539V229.695C105.224 229.852 104.786 229.966 104.328 230.039C103.87 230.117 103.326 230.156 102.695 230.156C101.534 230.156 100.562 229.917 99.7812 229.438C99.0052 228.953 98.4219 228.271 98.0312 227.391C97.6458 226.51 97.4531 225.471 97.4531 224.273C97.4531 223.409 97.5729 222.62 97.8125 221.906C98.0573 221.188 98.4115 220.568 98.875 220.047C99.3438 219.526 99.9167 219.125 100.594 218.844C101.276 218.557 102.057 218.414 102.938 218.414C103.516 218.414 104.073 218.471 104.609 218.586C105.146 218.701 105.63 218.865 106.062 219.078L105.531 220.203C105.167 220.036 104.766 219.893 104.328 219.773C103.896 219.648 103.427 219.586 102.922 219.586ZM114.562 226.961C114.562 227.638 114.393 228.216 114.055 228.695C113.721 229.169 113.253 229.531 112.648 229.781C112.044 230.031 111.333 230.156 110.516 230.156C110.083 230.156 109.674 230.135 109.289 230.094C108.904 230.052 108.549 229.992 108.227 229.914C107.904 229.836 107.62 229.74 107.375 229.625V228.352C107.766 228.513 108.242 228.664 108.805 228.805C109.367 228.94 109.956 229.008 110.57 229.008C111.143 229.008 111.628 228.932 112.023 228.781C112.419 228.625 112.719 228.404 112.922 228.117C113.13 227.826 113.234 227.477 113.234 227.07C113.234 226.68 113.148 226.354 112.977 226.094C112.805 225.828 112.518 225.589 112.117 225.375C111.721 225.156 111.18 224.924 110.492 224.68C110.008 224.508 109.581 224.32 109.211 224.117C108.841 223.909 108.531 223.674 108.281 223.414C108.031 223.154 107.841 222.852 107.711 222.508C107.586 222.164 107.523 221.771 107.523 221.328C107.523 220.719 107.677 220.198 107.984 219.766C108.297 219.328 108.727 218.995 109.273 218.766C109.826 218.531 110.458 218.414 111.172 218.414C111.781 218.414 112.344 218.471 112.859 218.586C113.38 218.701 113.857 218.854 114.289 219.047L113.875 220.188C113.464 220.016 113.026 219.872 112.562 219.758C112.104 219.643 111.63 219.586 111.141 219.586C110.651 219.586 110.237 219.659 109.898 219.805C109.565 219.945 109.31 220.146 109.133 220.406C108.956 220.667 108.867 220.977 108.867 221.336C108.867 221.737 108.951 222.07 109.117 222.336C109.289 222.602 109.56 222.839 109.93 223.047C110.305 223.25 110.799 223.464 111.414 223.688C112.086 223.932 112.656 224.193 113.125 224.469C113.594 224.74 113.951 225.073 114.195 225.469C114.44 225.859 114.562 226.357 114.562 226.961ZM123.344 226.961C123.344 227.638 123.174 228.216 122.836 228.695C122.503 229.169 122.034 229.531 121.43 229.781C120.826 230.031 120.115 230.156 119.297 230.156C118.865 230.156 118.456 230.135 118.07 230.094C117.685 230.052 117.331 229.992 117.008 229.914C116.685 229.836 116.401 229.74 116.156 229.625V228.352C116.547 228.513 117.023 228.664 117.586 228.805C118.148 228.94 118.737 229.008 119.352 229.008C119.924 229.008 120.409 228.932 120.805 228.781C121.201 228.625 121.5 228.404 121.703 228.117C121.911 227.826 122.016 227.477 122.016 227.07C122.016 226.68 121.93 226.354 121.758 226.094C121.586 225.828 121.299 225.589 120.898 225.375C120.503 225.156 119.961 224.924 119.273 224.68C118.789 224.508 118.362 224.32 117.992 224.117C117.622 223.909 117.312 223.674 117.062 223.414C116.812 223.154 116.622 222.852 116.492 222.508C116.367 222.164 116.305 221.771 116.305 221.328C116.305 220.719 116.458 220.198 116.766 219.766C117.078 219.328 117.508 218.995 118.055 218.766C118.607 218.531 119.24 218.414 119.953 218.414C120.562 218.414 121.125 218.471 121.641 218.586C122.161 218.701 122.638 218.854 123.07 219.047L122.656 220.188C122.245 220.016 121.807 219.872 121.344 219.758C120.885 219.643 120.411 219.586 119.922 219.586C119.432 219.586 119.018 219.659 118.68 219.805C118.346 219.945 118.091 220.146 117.914 220.406C117.737 220.667 117.648 220.977 117.648 221.336C117.648 221.737 117.732 222.07 117.898 222.336C118.07 222.602 118.341 222.839 118.711 223.047C119.086 223.25 119.581 223.464 120.195 223.688C120.867 223.932 121.438 224.193 121.906 224.469C122.375 224.74 122.732 225.073 122.977 225.469C123.221 225.859 123.344 226.357 123.344 226.961ZM126.969 228.141L127.07 228.32C126.977 228.701 126.857 229.107 126.711 229.539C126.57 229.971 126.414 230.404 126.242 230.836C126.076 231.273 125.906 231.682 125.734 232.062H124.766C124.875 231.646 124.982 231.206 125.086 230.742C125.19 230.284 125.284 229.831 125.367 229.383C125.456 228.93 125.526 228.516 125.578 228.141H126.969ZM140.422 226.961C140.422 227.638 140.253 228.216 139.914 228.695C139.581 229.169 139.112 229.531 138.508 229.781C137.904 230.031 137.193 230.156 136.375 230.156C135.943 230.156 135.534 230.135 135.148 230.094C134.763 230.052 134.409 229.992 134.086 229.914C133.763 229.836 133.479 229.74 133.234 229.625V228.352C133.625 228.513 134.102 228.664 134.664 228.805C135.227 228.94 135.815 229.008 136.43 229.008C137.003 229.008 137.487 228.932 137.883 228.781C138.279 228.625 138.578 228.404 138.781 228.117C138.99 227.826 139.094 227.477 139.094 227.07C139.094 226.68 139.008 226.354 138.836 226.094C138.664 225.828 138.378 225.589 137.977 225.375C137.581 225.156 137.039 224.924 136.352 224.68C135.867 224.508 135.44 224.32 135.07 224.117C134.701 223.909 134.391 223.674 134.141 223.414C133.891 223.154 133.701 222.852 133.57 222.508C133.445 222.164 133.383 221.771 133.383 221.328C133.383 220.719 133.536 220.198 133.844 219.766C134.156 219.328 134.586 218.995 135.133 218.766C135.685 218.531 136.318 218.414 137.031 218.414C137.641 218.414 138.203 218.471 138.719 218.586C139.24 218.701 139.716 218.854 140.148 219.047L139.734 220.188C139.323 220.016 138.885 219.872 138.422 219.758C137.964 219.643 137.49 219.586 137 219.586C136.51 219.586 136.096 219.659 135.758 219.805C135.424 219.945 135.169 220.146 134.992 220.406C134.815 220.667 134.727 220.977 134.727 221.336C134.727 221.737 134.81 222.07 134.977 222.336C135.148 222.602 135.419 222.839 135.789 223.047C136.164 223.25 136.659 223.464 137.273 223.688C137.945 223.932 138.516 224.193 138.984 224.469C139.453 224.74 139.81 225.073 140.055 225.469C140.299 225.859 140.422 226.357 140.422 226.961ZM149.922 230L148.516 226.375H143.938L142.539 230H141.195L145.664 218.531H146.859L151.297 230H149.922ZM148.117 225.195L146.781 221.594C146.75 221.5 146.698 221.346 146.625 221.133C146.557 220.919 146.487 220.698 146.414 220.469C146.341 220.24 146.281 220.055 146.234 219.914C146.182 220.128 146.125 220.341 146.062 220.555C146.005 220.763 145.948 220.958 145.891 221.141C145.833 221.318 145.784 221.469 145.742 221.594L144.383 225.195H148.117ZM160.047 230L158.641 226.375H154.062L152.664 230H151.32L155.789 218.531H156.984L161.422 230H160.047ZM158.242 225.195L156.906 221.594C156.875 221.5 156.823 221.346 156.75 221.133C156.682 220.919 156.612 220.698 156.539 220.469C156.466 220.24 156.406 220.055 156.359 219.914C156.307 220.128 156.25 220.341 156.188 220.555C156.13 220.763 156.073 220.958 156.016 221.141C155.958 221.318 155.909 221.469 155.867 221.594L154.508 225.195H158.242ZM169.453 226.961C169.453 227.638 169.284 228.216 168.945 228.695C168.612 229.169 168.143 229.531 167.539 229.781C166.935 230.031 166.224 230.156 165.406 230.156C164.974 230.156 164.565 230.135 164.18 230.094C163.794 230.052 163.44 229.992 163.117 229.914C162.794 229.836 162.51 229.74 162.266 229.625V228.352C162.656 228.513 163.133 228.664 163.695 228.805C164.258 228.94 164.846 229.008 165.461 229.008C166.034 229.008 166.518 228.932 166.914 228.781C167.31 228.625 167.609 228.404 167.812 228.117C168.021 227.826 168.125 227.477 168.125 227.07C168.125 226.68 168.039 226.354 167.867 226.094C167.695 225.828 167.409 225.589 167.008 225.375C166.612 225.156 166.07 224.924 165.383 224.68C164.898 224.508 164.471 224.32 164.102 224.117C163.732 223.909 163.422 223.674 163.172 223.414C162.922 223.154 162.732 222.852 162.602 222.508C162.477 222.164 162.414 221.771 162.414 221.328C162.414 220.719 162.568 220.198 162.875 219.766C163.188 219.328 163.617 218.995 164.164 218.766C164.716 218.531 165.349 218.414 166.062 218.414C166.672 218.414 167.234 218.471 167.75 218.586C168.271 218.701 168.747 218.854 169.18 219.047L168.766 220.188C168.354 220.016 167.917 219.872 167.453 219.758C166.995 219.643 166.521 219.586 166.031 219.586C165.542 219.586 165.128 219.659 164.789 219.805C164.456 219.945 164.201 220.146 164.023 220.406C163.846 220.667 163.758 220.977 163.758 221.336C163.758 221.737 163.841 222.07 164.008 222.336C164.18 222.602 164.451 222.839 164.82 223.047C165.195 223.25 165.69 223.464 166.305 223.688C166.977 223.932 167.547 224.193 168.016 224.469C168.484 224.74 168.841 225.073 169.086 225.469C169.331 225.859 169.453 226.357 169.453 226.961ZM173.078 228.141L173.18 228.32C173.086 228.701 172.966 229.107 172.82 229.539C172.68 229.971 172.523 230.404 172.352 230.836C172.185 231.273 172.016 231.682 171.844 232.062H170.875C170.984 231.646 171.091 231.206 171.195 230.742C171.299 230.284 171.393 229.831 171.477 229.383C171.565 228.93 171.635 228.516 171.688 228.141H173.078ZM178.438 233.008C178.177 233.008 177.948 232.99 177.75 232.953C177.552 232.917 177.383 232.867 177.242 232.805V231.672C177.409 231.724 177.589 231.763 177.781 231.789C177.974 231.82 178.182 231.836 178.406 231.836C178.698 231.836 178.966 231.779 179.211 231.664C179.456 231.549 179.651 231.354 179.797 231.078C179.943 230.802 180.016 230.422 180.016 229.938V218.578H181.352V229.836C181.352 230.549 181.232 231.141 180.992 231.609C180.758 232.078 180.422 232.427 179.984 232.656C179.552 232.891 179.036 233.008 178.438 233.008ZM190.828 226.961C190.828 227.638 190.659 228.216 190.32 228.695C189.987 229.169 189.518 229.531 188.914 229.781C188.31 230.031 187.599 230.156 186.781 230.156C186.349 230.156 185.94 230.135 185.555 230.094C185.169 230.052 184.815 229.992 184.492 229.914C184.169 229.836 183.885 229.74 183.641 229.625V228.352C184.031 228.513 184.508 228.664 185.07 228.805C185.633 228.94 186.221 229.008 186.836 229.008C187.409 229.008 187.893 228.932 188.289 228.781C188.685 228.625 188.984 228.404 189.188 228.117C189.396 227.826 189.5 227.477 189.5 227.07C189.5 226.68 189.414 226.354 189.242 226.094C189.07 225.828 188.784 225.589 188.383 225.375C187.987 225.156 187.445 224.924 186.758 224.68C186.273 224.508 185.846 224.32 185.477 224.117C185.107 223.909 184.797 223.674 184.547 223.414C184.297 223.154 184.107 222.852 183.977 222.508C183.852 222.164 183.789 221.771 183.789 221.328C183.789 220.719 183.943 220.198 184.25 219.766C184.562 219.328 184.992 218.995 185.539 218.766C186.091 218.531 186.724 218.414 187.438 218.414C188.047 218.414 188.609 218.471 189.125 218.586C189.646 218.701 190.122 218.854 190.555 219.047L190.141 220.188C189.729 220.016 189.292 219.872 188.828 219.758C188.37 219.643 187.896 219.586 187.406 219.586C186.917 219.586 186.503 219.659 186.164 219.805C185.831 219.945 185.576 220.146 185.398 220.406C185.221 220.667 185.133 220.977 185.133 221.336C185.133 221.737 185.216 222.07 185.383 222.336C185.555 222.602 185.826 222.839 186.195 223.047C186.57 223.25 187.065 223.464 187.68 223.688C188.352 223.932 188.922 224.193 189.391 224.469C189.859 224.74 190.216 225.073 190.461 225.469C190.706 225.859 190.828 226.357 190.828 226.961ZM194.453 228.141L194.555 228.32C194.461 228.701 194.341 229.107 194.195 229.539C194.055 229.971 193.898 230.404 193.727 230.836C193.56 231.273 193.391 231.682 193.219 232.062H192.25C192.359 231.646 192.466 231.206 192.57 230.742C192.674 230.284 192.768 229.831 192.852 229.383C192.94 228.93 193.01 228.516 193.062 228.141H194.453ZM201.461 218.578H204.695C206.122 218.578 207.195 218.792 207.914 219.219C208.633 219.646 208.992 220.372 208.992 221.398C208.992 221.841 208.906 222.24 208.734 222.594C208.568 222.943 208.323 223.232 208 223.461C207.677 223.69 207.279 223.849 206.805 223.938V224.016C207.305 224.094 207.747 224.237 208.133 224.445C208.518 224.654 208.82 224.945 209.039 225.32C209.258 225.695 209.367 226.172 209.367 226.75C209.367 227.453 209.203 228.047 208.875 228.531C208.552 229.016 208.094 229.383 207.5 229.633C206.906 229.878 206.203 230 205.391 230H201.461V218.578ZM202.789 223.477H204.977C205.971 223.477 206.659 223.312 207.039 222.984C207.424 222.656 207.617 222.177 207.617 221.547C207.617 220.896 207.388 220.427 206.93 220.141C206.477 219.854 205.753 219.711 204.758 219.711H202.789V223.477ZM202.789 224.594V228.867H205.164C206.18 228.867 206.898 228.669 207.32 228.273C207.742 227.872 207.953 227.333 207.953 226.656C207.953 226.224 207.857 225.854 207.664 225.547C207.477 225.24 207.169 225.005 206.742 224.844C206.32 224.677 205.755 224.594 205.047 224.594H202.789ZM221.711 224.273C221.711 225.154 221.599 225.956 221.375 226.68C221.151 227.398 220.818 228.018 220.375 228.539C219.938 229.055 219.393 229.453 218.742 229.734C218.091 230.016 217.336 230.156 216.477 230.156C215.591 230.156 214.818 230.016 214.156 229.734C213.5 229.453 212.953 229.052 212.516 228.531C212.083 228.01 211.758 227.388 211.539 226.664C211.326 225.94 211.219 225.138 211.219 224.258C211.219 223.091 211.411 222.068 211.797 221.188C212.182 220.307 212.766 219.622 213.547 219.133C214.333 218.643 215.318 218.398 216.5 218.398C217.63 218.398 218.581 218.641 219.352 219.125C220.128 219.609 220.714 220.292 221.109 221.172C221.51 222.047 221.711 223.081 221.711 224.273ZM212.617 224.273C212.617 225.242 212.755 226.081 213.031 226.789C213.307 227.497 213.729 228.044 214.297 228.43C214.87 228.815 215.596 229.008 216.477 229.008C217.362 229.008 218.086 228.815 218.648 228.43C219.216 228.044 219.635 227.497 219.906 226.789C220.177 226.081 220.312 225.242 220.312 224.273C220.312 222.799 220.003 221.648 219.383 220.82C218.768 219.987 217.807 219.57 216.5 219.57C215.615 219.57 214.885 219.76 214.312 220.141C213.74 220.521 213.312 221.062 213.031 221.766C212.755 222.464 212.617 223.299 212.617 224.273ZM234.164 224.273C234.164 225.154 234.052 225.956 233.828 226.68C233.604 227.398 233.271 228.018 232.828 228.539C232.391 229.055 231.846 229.453 231.195 229.734C230.544 230.016 229.789 230.156 228.93 230.156C228.044 230.156 227.271 230.016 226.609 229.734C225.953 229.453 225.406 229.052 224.969 228.531C224.536 228.01 224.211 227.388 223.992 226.664C223.779 225.94 223.672 225.138 223.672 224.258C223.672 223.091 223.865 222.068 224.25 221.188C224.635 220.307 225.219 219.622 226 219.133C226.786 218.643 227.771 218.398 228.953 218.398C230.083 218.398 231.034 218.641 231.805 219.125C232.581 219.609 233.167 220.292 233.562 221.172C233.964 222.047 234.164 223.081 234.164 224.273ZM225.07 224.273C225.07 225.242 225.208 226.081 225.484 226.789C225.76 227.497 226.182 228.044 226.75 228.43C227.323 228.815 228.049 229.008 228.93 229.008C229.815 229.008 230.539 228.815 231.102 228.43C231.669 228.044 232.089 227.497 232.359 226.789C232.63 226.081 232.766 225.242 232.766 224.273C232.766 222.799 232.456 221.648 231.836 220.82C231.221 219.987 230.26 219.57 228.953 219.57C228.068 219.57 227.339 219.76 226.766 220.141C226.193 220.521 225.766 221.062 225.484 221.766C225.208 222.464 225.07 223.299 225.07 224.273ZM240.219 230H238.883V219.75H235.289V218.578H243.797V219.75H240.219V230ZM251.969 226.961C251.969 227.638 251.799 228.216 251.461 228.695C251.128 229.169 250.659 229.531 250.055 229.781C249.451 230.031 248.74 230.156 247.922 230.156C247.49 230.156 247.081 230.135 246.695 230.094C246.31 230.052 245.956 229.992 245.633 229.914C245.31 229.836 245.026 229.74 244.781 229.625V228.352C245.172 228.513 245.648 228.664 246.211 228.805C246.773 228.94 247.362 229.008 247.977 229.008C248.549 229.008 249.034 228.932 249.43 228.781C249.826 228.625 250.125 228.404 250.328 228.117C250.536 227.826 250.641 227.477 250.641 227.07C250.641 226.68 250.555 226.354 250.383 226.094C250.211 225.828 249.924 225.589 249.523 225.375C249.128 225.156 248.586 224.924 247.898 224.68C247.414 224.508 246.987 224.32 246.617 224.117C246.247 223.909 245.938 223.674 245.688 223.414C245.438 223.154 245.247 222.852 245.117 222.508C244.992 222.164 244.93 221.771 244.93 221.328C244.93 220.719 245.083 220.198 245.391 219.766C245.703 219.328 246.133 218.995 246.68 218.766C247.232 218.531 247.865 218.414 248.578 218.414C249.188 218.414 249.75 218.471 250.266 218.586C250.786 218.701 251.263 218.854 251.695 219.047L251.281 220.188C250.87 220.016 250.432 219.872 249.969 219.758C249.51 219.643 249.036 219.586 248.547 219.586C248.057 219.586 247.643 219.659 247.305 219.805C246.971 219.945 246.716 220.146 246.539 220.406C246.362 220.667 246.273 220.977 246.273 221.336C246.273 221.737 246.357 222.07 246.523 222.336C246.695 222.602 246.966 222.839 247.336 223.047C247.711 223.25 248.206 223.464 248.82 223.688C249.492 223.932 250.062 224.193 250.531 224.469C251 224.74 251.357 225.073 251.602 225.469C251.846 225.859 251.969 226.357 251.969 226.961ZM257.812 230H256.477V219.75H252.883V218.578H261.391V219.75H257.812V230ZM266.203 218.578C267.141 218.578 267.914 218.695 268.523 218.93C269.138 219.159 269.596 219.51 269.898 219.984C270.201 220.458 270.352 221.062 270.352 221.797C270.352 222.401 270.242 222.906 270.023 223.312C269.805 223.714 269.518 224.039 269.164 224.289C268.81 224.539 268.432 224.732 268.031 224.867L271.164 230H269.617L266.82 225.234H264.445V230H263.117V218.578H266.203ZM266.125 219.727H264.445V224.109H266.258C267.19 224.109 267.875 223.919 268.312 223.539C268.755 223.159 268.977 222.599 268.977 221.859C268.977 221.083 268.742 220.534 268.273 220.211C267.81 219.888 267.094 219.727 266.125 219.727ZM280.156 230L278.75 226.375H274.172L272.773 230H271.43L275.898 218.531H277.094L281.531 230H280.156ZM278.352 225.195L277.016 221.594C276.984 221.5 276.932 221.346 276.859 221.133C276.792 220.919 276.721 220.698 276.648 220.469C276.576 220.24 276.516 220.055 276.469 219.914C276.417 220.128 276.359 220.341 276.297 220.555C276.24 220.763 276.182 220.958 276.125 221.141C276.068 221.318 276.018 221.469 275.977 221.594L274.617 225.195H278.352ZM286.102 218.578C287.576 218.578 288.651 218.867 289.328 219.445C290.01 220.018 290.352 220.841 290.352 221.914C290.352 222.398 290.271 222.859 290.109 223.297C289.953 223.729 289.698 224.112 289.344 224.445C288.99 224.773 288.523 225.034 287.945 225.227C287.372 225.414 286.669 225.508 285.836 225.508H284.445V230H283.117V218.578H286.102ZM285.977 219.711H284.445V224.367H285.688C286.417 224.367 287.023 224.289 287.508 224.133C287.997 223.977 288.365 223.724 288.609 223.375C288.854 223.021 288.977 222.552 288.977 221.969C288.977 221.208 288.734 220.643 288.25 220.273C287.766 219.898 287.008 219.711 285.977 219.711Z" fill="black"/>
</g>
<defs>
<filter id="filter0_d_0_25" x="0" y="0" width="336" height="276" filterUnits="userSpaceOnUse" color-interpolation-filters="sRGB">
<feFlood flood-opacity="0" result="BackgroundImageFix"/>
<feColorMatrix in="SourceAlpha" type="matrix" values="0 0 0 0 0 0 0 0 0 0 0 0 0 0 0 0 0 0 127 0" result="hardAlpha"/>
<feOffset dy="8"/>
<feGaussianBlur stdDeviation="4"/>
<feColorMatrix type="matrix" values="0 0 0 0 0 0 0 0 0 0 0 0 0 0 0 0 0 0 0.1 0"/>
<feBlend mode="normal" in2="BackgroundImageFix" result="effect1_dropShadow_0_25"/>
<feBlend mode="normal" in="SourceGraphic" in2="effect1_dropShadow_0_25" result="shape"/>
</filter>
<linearGradient id="paint0_linear_0_25" x1="162.23" y1="153.998" x2="162.23" y2="105.051" gradientUnits="userSpaceOnUse">
<stop stop-color="#808080" stop-opacity="0.25"/>
<stop offset="0.54" stop-color="#808080" stop-opacity="0.12"/>
<stop offset="1" stop-color="#808080" stop-opacity="0.1"/>
</linearGradient>
<linearGradient id="paint1_linear_0_25" x1="67975.7" y1="52270.1" x2="67975.7" y2="24" gradientUnits="userSpaceOnUse">
<stop stop-color="#808080" stop-opacity="0.25"/>
<stop offset="0.54" stop-color="#808080" stop-opacity="0.12"/>
<stop offset="1" stop-color="#808080" stop-opacity="0.1"/>
</linearGradient>
<linearGradient id="paint2_linear_0_25" x1="41700.5" y1="61071.3" x2="41700.5" y2="26317.6" gradientUnits="userSpaceOnUse">
<stop stop-color="#808080" stop-opacity="0.25"/>
<stop offset="0.54" stop-color="#808080" stop-opacity="0.12"/>
<stop offset="1" stop-color="#808080" stop-opacity="0.1"/>
</linearGradient>
<linearGradient id="paint3_linear_0_25" x1="3155.72" y1="5700.23" x2="3155.72" y2="5049.35" gradientUnits="userSpaceOnUse">
<stop stop-color="#808080" stop-opacity="0.25"/>
<stop offset="0.54" stop-color="#808080" stop-opacity="0.12"/>
<stop offset="1" stop-color="#808080" stop-opacity="0.1"/>
</linearGradient>
<clipPath id="clip0_0_25">
<rect width="202.795" height="130" fill="white" transform="translate(66.6027 24)"/>
</clipPath>
</defs>
</svg>
