<svg width="336" height="276" viewBox="0 0 336 276" fill="none" xmlns="http://www.w3.org/2000/svg">
<g filter="url(#filter0_d_0_554)">
<rect x="8" width="320" height="260" rx="5" fill="white"/>
<g clip-path="url(#clip0_0_554)">
<path opacity="0.1" d="M249.336 53.6001C247.607 50.2399 245.339 47.1855 242.623 44.558L149.498 43.7823L226.171 34.6789C221.154 33.0002 215.905 32.12 210.615 32.0702C203.234 27.031 193.747 24.0075 183.399 24.0075C174.114 24.0075 165.529 26.447 158.53 30.5861C152.581 27.9954 145.801 26.5263 138.596 26.5263C117.905 26.5263 100.664 38.6413 96.7957 54.7082L249.336 53.6001Z" fill="#00BAFC"/>
<path opacity="0.1" d="M252.61 67.0748C252.604 62.6724 251.612 58.3272 249.708 54.3578L88.3108 68.6802C86.6726 71.1775 85.3993 73.896 84.5295 76.7533L134.509 83.0519L83.3899 87.6433C84.9279 105.832 103.371 120.193 125.902 120.193C137.242 120.193 147.547 116.554 155.183 110.62C162.843 116.667 173.246 120.385 184.709 120.385C201.717 120.385 216.397 112.198 223.233 100.362C236.947 96.6809 247.601 87.4411 251.247 75.8818L188.041 67.5945H252.61C252.61 67.4207 252.61 67.2485 252.61 67.0748Z" fill="#00BAFC"/>
<path opacity="0.1" d="M158.263 153.999C182.246 153.999 201.688 153.131 201.688 152.061C201.688 150.991 182.246 150.123 158.263 150.123C134.28 150.123 114.838 150.991 114.838 152.061C114.838 153.131 134.28 153.999 158.263 153.999Z" fill="#00BAFC"/>
<path d="M184.037 148.652V149.823H149.407V148.872C151.519 148.09 153.351 146.699 154.672 144.874C155.993 143.05 156.742 140.875 156.826 138.624C156.91 136.373 156.324 134.148 155.143 132.231C153.962 130.313 152.238 128.789 150.19 127.852H183.802C181.8 128.768 180.107 130.246 178.928 132.106C177.749 133.965 177.135 136.127 177.159 138.328C177.184 140.53 177.847 142.677 179.068 144.51C180.289 146.342 182.015 147.781 184.037 148.652Z" fill="#C8CAD7"/>
<path opacity="0.1" d="M183.802 127.852C182.257 128.561 180.891 129.607 179.802 130.912C178.714 132.218 177.932 133.751 177.512 135.398H156.481C156.062 133.751 155.279 132.218 154.191 130.913C153.102 129.607 151.736 128.561 150.191 127.852H183.802Z" fill="black"/>
<path d="M109.746 121.886V128.46C109.746 132.09 112.403 135.032 115.681 135.032H217.576C220.854 135.032 223.51 132.09 223.51 128.46V121.886H109.746Z" fill="#C8CAD7"/>
<path opacity="0.1" d="M184.037 148.652V149.823H149.407V148.872C150.356 148.519 151.254 148.041 152.077 147.45H181.914C182.576 147.925 183.288 148.328 184.037 148.652Z" fill="black"/>
<path d="M194.058 147.815H139.385C138.6 147.815 137.963 148.452 137.963 149.238V149.862C137.963 150.648 138.6 151.285 139.385 151.285H194.058C194.844 151.285 195.481 150.648 195.481 149.862V149.238C195.481 148.452 194.844 147.815 194.058 147.815Z" fill="#C8CAD7"/>
<path d="M223.51 49.8503C223.508 48.2777 222.882 46.7703 221.769 45.6592C220.656 44.5481 219.148 43.9242 217.576 43.9246H115.686C114.112 43.923 112.603 44.5463 111.489 45.6576C110.375 46.7688 109.748 48.2769 109.746 49.8503V123.165H223.51V49.8503Z" fill="#474157"/>
<path d="M220.413 52.4979V115.494C220.414 115.878 220.338 116.258 220.191 116.613C220.045 116.967 219.829 117.289 219.558 117.561C219.287 117.832 218.965 118.047 218.61 118.194C218.255 118.341 217.875 118.416 217.492 118.416H115.777C115.393 118.416 115.013 118.341 114.659 118.194C114.304 118.047 113.982 117.832 113.71 117.561C113.439 117.289 113.224 116.967 113.077 116.613C112.93 116.258 112.855 115.878 112.855 115.494V52.4979C112.855 51.723 113.163 50.9799 113.711 50.432C114.259 49.8841 115.002 49.5762 115.777 49.5762H217.484C217.868 49.5753 218.249 49.6501 218.605 49.7965C218.96 49.9429 219.283 50.1579 219.555 50.4293C219.827 50.7007 220.043 51.0231 220.19 51.3781C220.338 51.7331 220.413 52.1136 220.413 52.4979Z" fill="#4C4C78"/>
<path d="M166.63 48.1161C167.387 48.1161 168 47.5027 168 46.7459C168 45.9891 167.387 45.3757 166.63 45.3757C165.873 45.3757 165.26 45.9891 165.26 46.7459C165.26 47.5027 165.873 48.1161 166.63 48.1161Z" fill="white"/>
<path d="M166.63 132.112C168.496 132.112 170.008 130.6 170.008 128.734C170.008 126.868 168.496 125.355 166.63 125.355C164.764 125.355 163.251 126.868 163.251 128.734C163.251 130.6 164.764 132.112 166.63 132.112Z" fill="white"/>
<path d="M135.583 51.0378V118.416H115.777C115.393 118.416 115.013 118.341 114.659 118.194C114.304 118.047 113.982 117.832 113.71 117.561C113.439 117.289 113.224 116.967 113.077 116.612C112.93 116.258 112.855 115.878 112.855 115.494V52.4979L112.962 52.101L113.246 51.0378H135.583Z" fill="white"/>
<path d="M138.124 52.101V58.166H112.855V52.4979L112.962 52.101H138.124Z" fill="#4C4C78"/>
<path d="M220.413 52.4979H112.855C112.855 52.1143 112.931 51.7344 113.078 51.38C113.224 51.0256 113.44 50.7037 113.711 50.4325C113.982 50.1613 114.304 49.9462 114.659 49.7996C115.013 49.6529 115.393 49.5775 115.777 49.5777H217.484C217.868 49.5765 218.249 49.6512 218.604 49.7974C218.96 49.9436 219.283 50.1585 219.555 50.4298C219.827 50.7011 220.043 51.0234 220.19 51.3783C220.337 51.7332 220.413 52.1136 220.413 52.4979Z" fill="#C8CAD7"/>
<path d="M115.777 51.7686C116.18 51.7686 116.508 51.4414 116.508 51.0378C116.508 50.6342 116.18 50.307 115.777 50.307C115.373 50.307 115.046 50.6342 115.046 51.0378C115.046 51.4414 115.373 51.7686 115.777 51.7686Z" fill="#EDEDF4"/>
<path d="M117.968 51.7686C118.371 51.7686 118.699 51.4414 118.699 51.0378C118.699 50.6342 118.371 50.307 117.968 50.307C117.564 50.307 117.237 50.6342 117.237 51.0378C117.237 51.4414 117.564 51.7686 117.968 51.7686Z" fill="#EDEDF4"/>
<path d="M120.159 51.7686C120.562 51.7686 120.889 51.4414 120.889 51.0378C120.889 50.6342 120.562 50.307 120.159 50.307C119.755 50.307 119.428 50.6342 119.428 51.0378C119.428 51.4414 119.755 51.7686 120.159 51.7686Z" fill="#EDEDF4"/>
<path d="M131.806 54.7711H116.632V56.1683H131.806V54.7711Z" fill="#00BAFC"/>
<path opacity="0.5" d="M131.806 61.5848H116.632V62.982H131.806V61.5848Z" fill="#00BAFC"/>
<path opacity="0.5" d="M131.806 66.4023H116.632V67.7995H131.806V66.4023Z" fill="#00BAFC"/>
<path opacity="0.5" d="M131.806 71.2198H116.632V72.617H131.806V71.2198Z" fill="#00BAFC"/>
<path opacity="0.5" d="M131.806 76.0359H116.632V77.4331H131.806V76.0359Z" fill="#00BAFC"/>
<path opacity="0.5" d="M131.806 80.8535H116.632V82.2506H131.806V80.8535Z" fill="#00BAFC"/>
<path opacity="0.5" d="M131.806 85.671H116.632V87.0681H131.806V85.671Z" fill="#00BAFC"/>
<path opacity="0.5" d="M131.806 90.4871H116.632V91.8843H131.806V90.4871Z" fill="#00BAFC"/>
<path opacity="0.5" d="M215.247 59.9091H148.007V60.1337H215.247V59.9091Z" fill="#DCE0ED"/>
<path opacity="0.5" d="M215.247 65.125H148.007V65.3496H215.247V65.125Z" fill="#DCE0ED"/>
<path opacity="0.5" d="M215.247 70.3424H148.007V70.567H215.247V70.3424Z" fill="#DCE0ED"/>
<path opacity="0.5" d="M215.247 75.5582H148.007V75.7829H215.247V75.5582Z" fill="#DCE0ED"/>
<path opacity="0.5" d="M215.247 80.7741H148.007V80.9987H215.247V80.7741Z" fill="#DCE0ED"/>
<path opacity="0.5" d="M215.248 80.9972H147.924V70.7392L154.099 73.7821L160.489 74.6477L166.095 72.957L172.86 67.7112L176.262 65.7464L178.749 65.2672L181.129 65.3945L185.043 67.3278L190.363 70.7167L194.538 71.2543L197.849 70.1132L204.865 64.3657L208.447 63.0883L212.195 63.6679L215.248 65.4304V80.9972Z" fill="#00BAFC"/>
<path d="M159.659 74.6507C153.597 74.6507 147.993 70.9429 147.924 70.8949L148.091 70.6463C148.177 70.7047 156.8 76.4103 164.127 73.5515C166.802 72.5108 168.701 70.8889 170.546 69.3225C172.467 67.6857 174.282 66.1388 176.755 65.4679C179.6 64.6997 182.692 65.396 185.048 67.3308C187.061 68.9856 191.071 71.6437 195.307 70.8485C197.467 70.4442 199.288 68.8658 201.215 67.1961C204.905 63.9914 208.733 60.6833 215.335 65.4335L215.16 65.6761C208.743 61.0652 205.013 64.2968 201.407 67.4222C199.448 69.1204 197.597 70.7167 195.358 71.1435C191.001 71.9597 186.906 69.2507 184.853 67.5629C182.572 65.688 179.573 65.0172 176.829 65.7584C174.42 66.4113 172.636 67.9358 170.736 69.5502C168.878 71.133 166.955 72.7713 164.237 73.8316C162.775 74.3872 161.223 74.665 159.659 74.6507Z" fill="#00BAFC"/>
<path d="M180.362 66.904C181.283 66.904 182.029 66.1578 182.029 65.2373C182.029 64.3168 181.283 63.5706 180.362 63.5706C179.442 63.5706 178.695 64.3168 178.695 65.2373C178.695 66.1578 179.442 66.904 180.362 66.904Z" fill="#00BAFC"/>
<path d="M138.592 101.458C136.314 100.146 135.447 99.821 135.447 99.8195L135.4 99.7866C135.152 99.5958 134.954 99.3462 134.825 99.0603C134.825 99.0079 134.825 98.9555 134.825 98.9105V98.9255C134.863 98.2307 135.355 97.6002 135.824 97.0491C136.224 96.5789 136.623 96.1092 137.022 95.6399C137.16 95.4974 137.265 95.3268 137.331 95.1398C137.355 95.0419 137.366 94.9411 137.364 94.8403C137.364 94.7983 137.364 94.7579 137.364 94.7175C137.364 94.367 137.347 94.0166 137.335 93.6692C137.323 93.3622 137.245 92.9773 136.938 92.9204C136.78 92.8875 136.57 92.9444 136.489 92.8081C136.46 92.7525 136.452 92.6878 136.468 92.6269C136.468 92.6269 136.468 92.6359 136.468 92.6404C136.468 92.6349 136.468 92.6294 136.468 92.6239C136.527 92.3876 136.565 92.1466 136.582 91.9036C136.587 91.7803 136.571 91.6571 136.533 91.5397C136.354 91.0321 135.745 90.8239 135.206 90.7281C134.667 90.6322 134.062 90.5499 133.723 90.129C133.63 89.9887 133.53 89.8533 133.424 89.7232C133.267 89.585 133.076 89.491 132.871 89.4507C132.202 89.285 131.497 89.3466 130.867 89.6259C130.607 89.7427 130.345 89.8984 130.059 89.882C129.773 89.8655 129.508 89.6573 129.214 89.6079C128.741 89.527 128.287 89.876 128.054 90.2878C127.915 90.5322 127.841 90.808 127.839 91.089C127.839 91.1039 127.839 91.1204 127.839 91.1354C127.833 91.4374 127.944 91.7302 128.148 91.953C128.352 92.1657 128.656 92.3109 128.747 92.5895C128.781 92.7033 128.774 92.8261 128.804 92.9399C128.804 92.9549 128.813 92.9684 128.817 92.9833L128.801 93.0028C128.314 93.6288 128.051 94.3994 128.052 95.1922C128.057 95.9619 128.306 96.7103 128.763 97.3294C129.221 97.9484 129.863 98.4061 130.598 98.6365C130.598 98.6709 130.598 98.7069 130.598 98.7443C130.608 98.9691 130.569 99.1934 130.484 99.4016C130.398 99.6098 130.269 99.7968 130.104 99.9498L126.872 101.247C126.872 101.247 124.925 101.016 124.224 103.86C124.112 104.332 124.072 104.818 124.105 105.302C124.13 105.732 124.07 106.486 123.571 107.463C122.773 109.026 122.954 112.613 124.587 112.968C126.128 113.303 126.731 113.164 126.794 113.147V113.21C126.769 113.884 126.525 119.689 125.637 120.398C125.389 120.592 125.436 120.723 125.637 120.812C125.637 120.812 125.637 120.849 125.637 120.917C125.61 121.342 125.472 122.958 124.877 123.879C124.194 124.94 124.272 131.08 124.272 131.08L123.802 134.703C123.802 134.703 124.091 136.94 123.802 137.331C123.543 137.68 123.203 145.958 123.125 147.752H123.095C122.953 147.761 122.815 147.804 122.693 147.878C122.572 147.952 122.47 148.055 122.397 148.178C122.011 148.798 120.678 149.94 120.678 149.94C120.389 150.352 119.317 150.746 118.751 150.932C118.675 150.956 118.602 150.987 118.532 151.026C118.32 151.141 118.15 151.32 118.046 151.538C118.009 151.602 117.985 151.673 117.977 151.746C117.968 151.82 117.974 151.894 117.995 151.965C118.144 152.32 121.15 152.564 121.911 152.213C122.51 151.935 124.882 151.566 125.867 151.423C126.046 151.4 126.212 151.319 126.34 151.191C126.467 151.064 126.548 150.898 126.571 150.719C126.58 150.657 126.577 150.594 126.562 150.534C126.546 150.473 126.519 150.417 126.481 150.367C126.292 150.133 126.195 149.495 126.152 149.079C126.232 149.046 126.306 149.002 126.373 148.947C126.292 147.657 126.477 146.363 126.917 145.147C127.642 143.23 127.86 139.678 127.679 137.368C127.679 137.368 129.891 127.849 131.633 126.961C131.66 126.994 132.504 128.078 132.612 131.435C132.72 134.845 133.952 137.082 133.952 137.082C133.952 137.082 133.409 142.872 133.952 145.039L133.238 148.452C133.208 148.427 133.18 148.401 133.153 148.374C133.153 148.374 133.174 148.47 133.204 148.621L133.189 148.693L133.219 148.7C133.299 149.127 133.419 149.871 133.368 150.309C133.34 150.559 133.271 150.899 133.219 151.234C133.144 151.76 133.123 152.27 133.4 152.381C133.849 152.564 136.519 152.814 136.973 152.231C137.074 152.112 137.141 151.966 137.164 151.811C137.187 151.656 137.167 151.498 137.105 151.354C137.072 151.273 137.027 151.198 136.973 151.131C136.973 151.131 136.264 149.973 136.465 149.157C136.484 149.077 136.485 148.995 136.471 148.915C136.456 148.834 136.425 148.758 136.38 148.69C136.484 147.398 136.691 146.116 137.001 144.858C137.451 143.149 138.412 139.402 137.708 136.937C137.681 136.841 137.651 136.745 137.618 136.653C137.212 135.307 137.076 133.895 137.218 132.497C136.956 131.304 136.956 130.068 137.218 128.874C137.65 126.887 137.954 124.94 137.954 124.94C137.954 124.94 138.193 122.312 137.984 120.701L137.97 120.598L138.084 120.572C138.084 120.572 137.468 117.838 137.25 116.098C137.199 115.686 137.132 115.166 137.058 114.611C137.259 114.576 137.457 114.526 137.65 114.461C139.608 113.785 140.224 107.676 140.224 107.676V105.738C140.224 105.738 140.877 102.777 138.592 101.458ZM124.001 148.63L123.905 148.579L124.001 148.63Z" fill="url(#paint0_linear_0_554)"/>
<path d="M137.41 136.711C138.259 139.154 137.26 143.118 136.811 144.888C136.509 146.168 136.308 147.469 136.212 148.781C135.179 148.956 134.122 148.931 133.097 148.709L133.846 145.064C133.316 142.905 133.846 137.135 133.846 137.135C133.846 137.135 132.648 134.904 132.537 131.506C132.432 128.162 131.609 127.081 131.582 127.046C129.87 127.936 127.717 137.419 127.717 137.419C127.893 139.72 127.681 143.26 126.968 145.172C126.538 146.386 126.357 147.674 126.436 148.959C126.189 149.168 125.845 149.203 125.473 149.144C124.463 148.98 123.251 148.109 123.251 148.109C123.251 148.109 123.64 137.776 123.923 137.384C124.206 136.991 123.923 134.764 123.923 134.764L124.383 131.154C124.383 131.154 124.313 125.03 124.982 123.966C125.563 123.048 125.697 121.436 125.723 121.014C125.723 120.947 125.723 120.909 125.723 120.909L126.748 119.683C126.748 119.683 136.66 118.934 137.403 119.683C137.585 119.865 137.702 120.282 137.765 120.803C137.969 122.408 137.735 125.027 137.735 125.027C137.735 125.027 137.436 126.974 137.013 128.955C136.758 130.145 136.758 131.376 137.013 132.566C136.875 133.96 137.01 135.368 137.41 136.711Z" fill="#65617D"/>
<path d="M136.79 152.233C136.348 152.817 133.747 152.57 133.304 152.383C133.033 152.27 133.054 151.763 133.127 151.239C133.174 150.905 133.241 150.565 133.268 150.318C133.34 149.68 133.057 148.387 133.057 148.387C133.057 148.387 133.641 149.007 133.782 148.387C133.814 148.269 133.878 148.162 133.967 148.077C134.056 147.993 134.166 147.934 134.286 147.908C134.59 147.816 134.916 147.837 135.206 147.965C135.665 148.164 136.432 148.589 136.294 149.163C136.1 149.976 136.79 151.129 136.79 151.129C136.844 151.197 136.887 151.272 136.919 151.352C136.981 151.497 137.002 151.655 136.979 151.811C136.956 151.966 136.891 152.112 136.79 152.233Z" fill="#A27772"/>
<path opacity="0.1" d="M136.79 152.233C136.348 152.817 133.747 152.57 133.304 152.383C133.033 152.27 133.054 151.763 133.127 151.239C133.406 151.369 133.876 151.478 134.673 151.405C134.858 151.387 135.044 151.381 135.23 151.387C135.793 151.413 136.357 151.402 136.919 151.354C136.981 151.498 137.001 151.657 136.979 151.812C136.956 151.967 136.891 152.113 136.79 152.233Z" fill="black"/>
<path opacity="0.1" d="M127.717 137.419C127.893 139.72 127.681 143.26 126.968 145.172C126.538 146.386 126.357 147.674 126.436 148.959C126.189 149.167 125.845 149.203 125.473 149.143C125.687 147.646 126.596 141.217 127.18 136.136C127.844 130.348 130.95 126.366 130.95 126.366L131.57 127.048C129.87 127.936 127.717 137.419 127.717 137.419Z" fill="black"/>
<path d="M135.728 100.216L135.296 102.34L133.18 105.898L130.569 104.782C130.569 104.782 127.02 101.066 129.25 100.535C129.517 100.478 129.77 100.366 129.991 100.206C130.429 99.875 130.566 99.3958 130.569 98.9256C130.552 98.3988 130.429 97.8809 130.207 97.4026L134.773 95.9695C134.584 96.5692 134.474 97.1909 134.445 97.8189C134.411 99.0619 134.872 99.6758 135.251 99.9679C135.392 100.082 135.554 100.166 135.728 100.216Z" fill="#FBBEBE"/>
<path opacity="0.1" d="M134.773 95.9695C134.584 96.5692 134.474 97.1909 134.445 97.8189C133.982 98.368 133.366 98.7666 132.676 98.9637C131.986 99.1608 131.252 99.1476 130.569 98.9256C130.552 98.3988 130.429 97.8809 130.207 97.4026L134.773 95.9695Z" fill="black"/>
<path d="M135.296 95.3854C135.296 96.0995 135.084 96.7976 134.687 97.3913C134.29 97.9851 133.726 98.4479 133.067 98.7211C132.407 98.9944 131.681 99.0659 130.981 98.9266C130.28 98.7873 129.637 98.4434 129.132 97.9385C128.627 97.4335 128.283 96.7902 128.144 96.0898C128.005 95.3894 128.076 94.6635 128.349 94.0038C128.623 93.344 129.085 92.7801 129.679 92.3834C130.273 91.9867 130.971 91.7749 131.685 91.7749C132.16 91.7737 132.63 91.8663 133.068 92.0473C133.507 92.2284 133.905 92.4943 134.241 92.8298C134.576 93.1653 134.842 93.5638 135.023 94.0024C135.204 94.4409 135.297 94.911 135.296 95.3854Z" fill="#FBBEBE"/>
<path opacity="0.1" d="M135.728 100.216L135.296 102.34L133.18 105.898L130.569 104.782C130.569 104.782 127.02 101.066 129.25 100.535C129.517 100.478 129.77 100.366 129.991 100.206C129.589 101.313 131.251 103.614 131.251 103.614C131.444 103.899 131.889 103.721 131.889 103.721C132.958 103.559 134.93 100.48 135.251 99.9678C135.392 100.082 135.554 100.166 135.728 100.216Z" fill="black"/>
<path opacity="0.1" d="M137.773 120.806C137.144 120.956 133.666 121.718 132.348 121.526C130.897 121.313 128.075 121.173 128.075 121.173C128.075 121.173 126.278 121.269 125.726 121.023C125.726 120.956 125.726 120.918 125.726 120.918L126.751 119.692C126.751 119.692 136.663 118.943 137.406 119.692C137.6 119.868 137.705 120.283 137.773 120.806Z" fill="black"/>
<path d="M131.251 103.721C131.251 103.721 129.383 101.134 130.087 100.127L126.932 101.42C126.932 101.42 125.033 101.19 124.349 104.023C124.239 104.494 124.199 104.979 124.23 105.462C124.256 105.889 124.197 106.641 123.711 107.614C122.932 109.172 123.112 112.748 124.702 113.101C126.293 113.455 126.862 113.278 126.862 113.278C126.862 113.278 126.649 119.756 125.729 120.499C124.81 121.242 128.076 121.065 128.076 121.065C128.076 121.065 130.897 121.215 132.348 121.42C133.8 121.625 137.87 120.671 137.87 120.671C137.87 120.671 137.271 117.946 137.055 116.211C136.84 114.477 136.348 110.784 136.348 110.784L139.959 105.894C139.959 105.894 140.595 102.937 138.366 101.629C136.136 100.32 135.296 99.9963 135.296 99.9963C135.296 99.9963 133.049 103.646 131.887 103.823C131.887 103.825 131.444 104.005 131.251 103.721Z" fill="#FF748E"/>
<path opacity="0.1" d="M127.109 104.748C127.109 104.748 127.074 105.916 127.287 106.376C127.5 106.835 128.277 109.384 128.277 109.384H126.508C126.508 109.384 127.464 108.358 127.393 107.863C127.323 107.367 127.109 104.748 127.109 104.748Z" fill="black"/>
<path d="M132.348 113.559C132.348 113.559 128.44 112.604 128.076 111.791C127.712 110.978 126.707 109.154 126.707 109.154L127.119 108.598L129.021 110.096C129.021 110.096 131.287 111.893 132.348 112.078C133.41 112.264 132.348 113.559 132.348 113.559Z" fill="#FBBEBE"/>
<path opacity="0.05" d="M132.348 113.559C132.348 113.559 128.44 112.604 128.076 111.791C127.712 110.978 126.707 109.154 126.707 109.154L127.119 108.598L129.021 110.096C129.021 110.096 131.287 111.893 132.348 112.078C133.41 112.264 132.348 113.559 132.348 113.559Z" fill="black"/>
<path d="M135.728 108.96V111.081H135.387C133.703 111.081 132.046 111.51 130.574 112.327L129.936 112.68L129.764 112.776L128.666 110.305L129.693 109.384H129.746C129.997 109.408 131.083 109.498 131.543 109.344C132.003 109.19 132.524 108.724 133.81 109.053C134.445 109.215 134.986 109.926 135.607 109.705L135.728 108.96Z" fill="#FBBEBE"/>
<path opacity="0.1" d="M139.144 105.101L139.853 105.898V107.827C139.853 107.827 139.254 113.916 137.34 114.588C135.426 115.261 132.016 114.199 132.016 114.199C132.016 114.199 131.134 111.863 131.546 111.72C131.958 111.578 135.191 110.726 135.191 110.726C135.191 110.726 135.144 107.154 135.853 106.093C135.853 106.093 135.393 102.765 136.985 102.695C138.577 102.624 139.144 105.101 139.144 105.101Z" fill="black"/>
<path d="M139.248 105.101L139.956 105.898V107.827C139.956 107.827 139.357 113.916 137.442 114.588C135.526 115.261 132.119 114.199 132.119 114.199C132.119 114.199 131.237 111.863 131.649 111.72C132.061 111.578 135.293 110.726 135.293 110.726C135.293 110.726 135.248 107.154 135.956 106.093C135.956 106.093 135.495 102.765 137.088 102.695C138.681 102.624 139.248 105.101 139.248 105.101Z" fill="#FF748E"/>
<path opacity="0.1" d="M134.306 96.9189C134.337 96.6861 134.309 96.4491 134.225 96.23C134.18 96.1217 134.101 96.0312 134 95.9726C133.899 95.9141 133.781 95.8908 133.665 95.9065C133.365 95.9769 133.23 96.3708 132.934 96.4651C132.684 96.5445 132.41 96.3678 132.29 96.1342C132.19 95.8906 132.148 95.6271 132.167 95.3644C132.167 95.0649 132.167 94.7729 132.167 94.4764C132.167 94.1544 132.157 93.807 131.958 93.5539C131.71 93.2394 131.131 93.1046 130.745 93.1151C130.487 93.1178 130.239 93.2172 130.051 93.3937C129.957 93.4887 129.842 93.5615 129.716 93.6066C129.59 93.6516 129.455 93.6679 129.322 93.6542C129.204 93.6362 129.094 93.5853 129.005 93.5074C128.915 93.4295 128.849 93.3278 128.814 93.214C128.814 93.21 128.814 93.2059 128.814 93.202C129.115 92.8042 129.495 92.473 129.93 92.2294C130.366 91.9858 130.847 91.835 131.343 91.7866C131.839 91.7381 132.341 91.793 132.815 91.9478C133.289 92.1026 133.726 92.354 134.098 92.6861C134.47 93.0182 134.769 93.4238 134.977 93.8773C135.184 94.3308 135.296 94.8224 135.304 95.3211C135.312 95.8198 135.217 96.3148 135.024 96.7749C134.831 97.2349 134.546 97.65 134.184 97.9941C134.244 97.6381 134.285 97.2792 134.306 96.9189Z" fill="black"/>
<path d="M129.32 93.548C129.203 93.5297 129.093 93.4788 129.003 93.4009C128.913 93.3231 128.846 93.2215 128.811 93.1078C128.783 92.994 128.79 92.8712 128.756 92.7589C128.674 92.4803 128.377 92.335 128.178 92.1239C127.78 91.7016 127.805 91.0053 128.087 90.4961C128.316 90.0858 128.757 89.7398 129.22 89.8192C129.506 89.8701 129.753 90.0738 130.044 90.0918C130.334 90.1097 130.578 89.954 130.833 89.8372C131.446 89.5593 132.136 89.4981 132.789 89.6635C132.99 89.7034 133.176 89.7971 133.328 89.9345C133.431 90.064 133.527 90.199 133.615 90.3389C133.945 90.7597 134.536 90.842 135.062 90.9379C135.588 91.0337 136.184 91.2374 136.356 91.748C136.471 92.0835 136.356 92.4474 136.294 92.7963C136.272 92.8678 136.276 92.9453 136.308 93.0134C136.39 93.1497 136.595 93.0928 136.757 93.1242C137.057 93.1871 137.132 93.5735 137.142 93.873C137.156 94.2204 137.165 94.5699 137.17 94.9213C137.179 95.0513 137.169 95.182 137.141 95.3091C137.076 95.4906 136.974 95.6564 136.841 95.7958L135.671 97.2005C135.153 97.8235 134.604 98.5483 134.707 99.3524C134.461 99.4618 134.171 99.2506 134.09 98.993C134.009 98.7354 134.074 98.4599 134.129 98.1963C134.223 97.7406 134.285 97.2787 134.313 96.8141C134.345 96.5809 134.317 96.3434 134.232 96.1238C134.188 96.0153 134.108 95.9248 134.007 95.8662C133.905 95.8077 133.787 95.7845 133.671 95.8003C133.371 95.8707 133.238 96.2645 132.941 96.3589C132.691 96.4398 132.417 96.2615 132.298 96.0279C132.198 95.7842 132.156 95.5208 132.175 95.2582V94.3702C132.175 94.0482 132.164 93.7008 131.965 93.4477C131.72 93.1332 131.138 92.9985 130.752 93.0089C130.494 93.0116 130.247 93.111 130.059 93.2875C129.963 93.3838 129.847 93.4573 129.719 93.5024C129.592 93.5475 129.455 93.5631 129.32 93.548Z" fill="#7C5C5C"/>
<path opacity="0.1" d="M130.135 104.66L131.245 109.212C131.245 109.212 132.118 109.208 130.135 104.66Z" fill="black"/>
<path opacity="0.1" d="M133.924 103.897C133.924 103.897 132.471 106.275 133.039 108.733L133.308 108.752C133.308 108.752 132.826 107.614 133.924 103.897Z" fill="black"/>
<path opacity="0.1" d="M134.843 117.35C134.843 117.35 136.625 116.76 136.756 118.128C136.756 118.128 136.419 117.189 134.843 117.35Z" fill="black"/>
<path opacity="0.1" d="M129.693 109.491C129.693 109.491 129.34 111.969 129.976 112.96C128.978 113.312 127.918 113.456 126.862 113.384L126.649 109.491H129.693Z" fill="black"/>
<path opacity="0.1" d="M129.936 112.68L129.764 112.776L128.666 110.305L129.693 109.384H129.746C129.729 109.504 129.443 111.632 129.936 112.68Z" fill="black"/>
<path d="M129.693 109.384C129.693 109.384 129.34 111.863 129.976 112.854C128.978 113.206 127.918 113.35 126.862 113.278L125.623 109.384H129.693Z" fill="#FF748E"/>
<path d="M126.631 150.726C126.611 150.903 126.532 151.068 126.407 151.195C126.283 151.322 126.12 151.403 125.944 151.427C124.984 151.577 122.667 151.936 122.083 152.215C121.334 152.57 118.402 152.321 118.26 151.968C118.24 151.897 118.234 151.823 118.243 151.749C118.251 151.676 118.275 151.605 118.311 151.541C118.379 151.4 118.475 151.275 118.593 151.172C118.711 151.069 118.849 150.991 118.998 150.942C119.552 150.756 120.597 150.365 120.879 149.955C120.879 149.955 122.182 148.814 122.553 148.199C122.623 148.077 122.722 147.975 122.84 147.901C122.959 147.827 123.095 147.784 123.234 147.775C123.544 147.76 123.889 147.917 124.031 148.595C124.031 148.595 125.729 149.564 126.189 148.715C126.189 148.715 126.259 150.02 126.541 150.377C126.578 150.427 126.605 150.483 126.621 150.543C126.636 150.603 126.64 150.665 126.631 150.726Z" fill="#A27772"/>
<path opacity="0.1" d="M126.631 150.726C126.611 150.903 126.532 151.068 126.407 151.195C126.283 151.322 126.12 151.403 125.944 151.427C124.984 151.577 122.667 151.936 122.083 152.215C121.334 152.57 118.402 152.321 118.26 151.968C118.24 151.897 118.234 151.823 118.243 151.749C118.251 151.676 118.275 151.605 118.311 151.541C118.412 151.326 118.578 151.148 118.785 151.032C119.265 151.349 120.328 151.661 122.667 151.295C124.898 150.947 126.002 150.605 126.541 150.373C126.579 150.423 126.606 150.48 126.622 150.541C126.637 150.601 126.64 150.664 126.631 150.726Z" fill="black"/>
<g opacity="0.1">
<path opacity="0.1" d="M136.29 92.8442C136.291 92.8382 136.291 92.8322 136.29 92.8262C136.36 92.5643 136.397 92.2946 136.399 92.0236C136.377 92.2403 136.34 92.4554 136.29 92.6675C136.276 92.7256 136.276 92.786 136.29 92.8442Z" fill="black"/>
<path opacity="0.1" d="M134.225 96.1567C134.28 96.2844 134.31 96.4219 134.312 96.5611C134.328 96.3692 134.298 96.1762 134.225 95.998C134.18 95.8894 134.101 95.7987 133.999 95.7399C133.898 95.6811 133.78 95.6576 133.663 95.673C133.364 95.7434 133.23 96.1388 132.934 96.2331C132.684 96.3125 132.41 96.1343 132.29 95.9007C132.189 95.6573 132.147 95.3936 132.167 95.1309C132.167 94.8314 132.167 94.5394 132.167 94.2444C132.167 93.9224 132.157 93.575 131.958 93.3219C131.71 93.0059 131.131 92.8727 130.743 92.8816C130.485 92.8845 130.238 92.9845 130.051 93.1617C129.957 93.2565 129.842 93.3289 129.716 93.3738C129.59 93.4186 129.455 93.4346 129.322 93.4207C129.204 93.4033 129.093 93.3526 129.003 93.2747C128.913 93.1967 128.847 93.0946 128.813 92.9805C128.783 92.8667 128.792 92.7454 128.757 92.6316C128.675 92.353 128.378 92.2092 128.179 91.9981C127.994 91.7921 127.887 91.5266 127.88 91.2493C127.866 91.413 127.885 91.5779 127.936 91.7339C127.988 91.8899 128.07 92.0338 128.179 92.1568C128.378 92.368 128.675 92.5132 128.757 92.7918C128.792 92.9041 128.783 93.0269 128.813 93.1407C128.848 93.2545 128.914 93.3562 129.004 93.4341C129.094 93.5119 129.204 93.5629 129.322 93.581C129.455 93.5947 129.59 93.5784 129.716 93.5333C129.842 93.4882 129.957 93.4155 130.051 93.3204C130.239 93.1459 130.485 93.0472 130.742 93.0434C131.129 93.0314 131.709 93.1692 131.956 93.4836C132.155 93.7367 132.164 94.0827 132.166 94.4061C132.166 94.7056 132.166 94.9977 132.166 95.2927C132.145 95.5558 132.187 95.8201 132.289 96.0639C132.408 96.2975 132.682 96.4742 132.932 96.3948C133.232 96.3005 133.359 95.9067 133.662 95.8348C133.778 95.8193 133.896 95.8424 133.998 95.9006C134.099 95.9588 134.179 96.0488 134.225 96.1567Z" fill="black"/>
<path opacity="0.1" d="M137.134 95.1819C137.07 95.3636 136.968 95.5299 136.835 95.6701C136.444 96.1373 136.054 96.605 135.665 97.0733C135.174 97.6648 134.653 98.3491 134.691 99.1039C134.726 98.412 135.209 97.7831 135.665 97.2335L136.835 95.8288C136.967 95.6891 137.069 95.5234 137.134 95.3421C137.163 95.2145 137.173 95.0833 137.164 94.9528C137.164 95.0301 137.154 95.107 137.134 95.1819Z" fill="black"/>
<path opacity="0.1" d="M134.083 98.8673C134.063 98.8055 134.051 98.7417 134.047 98.6771C134.037 98.7947 134.049 98.913 134.083 99.026C134.162 99.2836 134.454 99.4948 134.699 99.3854C134.699 99.333 134.689 99.2806 134.688 99.2357C134.445 99.333 134.156 99.1189 134.083 98.8673Z" fill="black"/>
</g>
<path opacity="0.1" d="M122.326 148.515C122.326 148.515 122.695 149.165 124.037 148.591L122.326 148.515Z" fill="black"/>
<path opacity="0.1" d="M133.654 148.67C133.654 148.67 134.812 150.032 136.269 149.12L133.654 148.67Z" fill="black"/>
<path opacity="0.1" d="M137.021 132.569C137.021 132.569 136.203 133.08 136.176 133.372C136.149 133.664 136.598 133.159 136.598 133.159L137.021 132.569Z" fill="black"/>
<path opacity="0.1" d="M137.343 136.483C137.059 136.72 136.706 136.858 136.336 136.876C135.725 136.903 135.776 137.699 136.176 137.46C136.576 137.22 137.343 136.483 137.343 136.483Z" fill="black"/>
<path opacity="0.1" d="M137.498 136.994C137.498 136.994 137.106 138.92 136.787 138.548L137.498 136.994Z" fill="black"/>
<g opacity="0.5">
<path opacity="0.5" d="M163.832 92.6839H153.949V94.7805H163.832V92.6839Z" fill="#DCE0ED"/>
<path opacity="0.5" d="M186.527 92.6839H176.644V94.7805H186.527V92.6839Z" fill="#DCE0ED"/>
<path opacity="0.5" d="M209.222 92.6839H199.339V94.7805H209.222V92.6839Z" fill="#DCE0ED"/>
</g>
<path opacity="0.1" d="M226.063 144.676C228.291 144.676 230.096 144.371 230.096 143.995C230.096 143.619 228.291 143.314 226.063 143.314C223.836 143.314 222.031 143.619 222.031 143.995C222.031 144.371 223.836 144.676 226.063 144.676Z" fill="#00BAFC"/>
<path opacity="0.1" d="M100.644 153.28C102.872 153.28 104.677 152.975 104.677 152.598C104.677 152.222 102.872 151.917 100.644 151.917C98.4171 151.917 96.6115 152.222 96.6115 152.598C96.6115 152.975 98.4171 153.28 100.644 153.28Z" fill="#00BAFC"/>
<path d="M217.237 152.315C220.563 152.315 223.259 151.859 223.259 151.297C223.259 150.735 220.563 150.279 217.237 150.279C213.911 150.279 211.216 150.735 211.216 151.297C211.216 151.859 213.911 152.315 217.237 152.315Z" fill="#00BAFC"/>
<path d="M219.726 149.633C220.001 149.409 220.201 149.107 220.3 148.766C220.374 148.422 220.228 148.01 219.9 147.884C219.531 147.743 219.137 147.998 218.838 148.257C218.538 148.516 218.198 148.808 217.808 148.754C218.008 148.572 218.158 148.341 218.243 148.083C218.328 147.826 218.345 147.551 218.293 147.285C218.276 147.175 218.229 147.071 218.158 146.986C217.953 146.767 217.583 146.86 217.337 147.032C216.559 147.58 216.342 148.637 216.337 149.59C216.259 149.247 216.325 148.889 216.324 148.541C216.322 148.194 216.225 147.793 215.928 147.608C215.744 147.51 215.538 147.462 215.329 147.468C214.979 147.454 214.588 147.489 214.35 147.745C214.05 148.064 214.13 148.597 214.387 148.943C214.645 149.289 215.04 149.512 215.401 149.754C215.691 149.928 215.939 150.164 216.126 150.445C216.147 150.485 216.165 150.526 216.178 150.569H218.374C218.864 150.319 219.319 150.004 219.726 149.633Z" fill="#00BAFC"/>
<path d="M100.829 142.49C100.829 142.49 101.652 143.567 100.45 145.186C99.2472 146.804 98.2558 148.181 98.6527 149.194C98.6527 149.194 100.468 146.177 101.947 146.135C103.427 146.093 102.453 144.305 100.829 142.49Z" fill="#00BAFC"/>
<path opacity="0.1" d="M100.829 142.49C100.901 142.594 100.958 142.708 100.998 142.828C102.438 144.521 103.205 146.101 101.82 146.14C100.531 146.177 98.9836 148.483 98.6122 149.066C98.6244 149.111 98.6389 149.155 98.6557 149.199C98.6557 149.199 100.471 146.181 101.95 146.14C103.43 146.098 102.453 144.305 100.829 142.49Z" fill="black"/>
<path d="M102.358 143.862C102.358 144.241 102.316 144.548 102.263 144.548C102.211 144.548 102.169 144.248 102.169 143.862C102.169 143.475 102.221 143.661 102.274 143.661C102.326 143.661 102.358 143.483 102.358 143.862Z" fill="#FFD037"/>
<path d="M102.883 144.314C102.551 144.495 102.26 144.605 102.236 144.558C102.212 144.512 102.459 144.327 102.792 144.146C103.124 143.965 102.994 144.097 103.018 144.146C103.042 144.196 103.216 144.133 102.883 144.314Z" fill="#FFD037"/>
<path d="M96.4843 142.49C96.4843 142.49 95.6607 143.567 96.8632 145.186C98.0657 146.804 99.0571 148.181 98.6602 149.194C98.6602 149.194 96.8467 146.177 95.3657 146.135C93.8846 146.093 94.8595 144.305 96.4843 142.49Z" fill="#00BAFC"/>
<path opacity="0.1" d="M96.4843 142.49C96.4123 142.594 96.3553 142.708 96.3151 142.828C94.8745 144.521 94.1077 146.101 95.4929 146.14C96.7823 146.177 98.3292 148.483 98.7006 149.066C98.6886 149.111 98.6736 149.156 98.6557 149.199C98.6557 149.199 96.8422 146.181 95.3612 146.14C93.8801 146.098 94.8595 144.305 96.4843 142.49Z" fill="black"/>
<path d="M94.9538 143.862C94.9538 144.241 94.9973 144.548 95.0497 144.548C95.1021 144.548 95.144 144.248 95.144 143.862C95.144 143.475 95.0916 143.661 95.0392 143.661C94.9868 143.661 94.9538 143.483 94.9538 143.862Z" fill="#FFD037"/>
<path d="M94.4297 144.314C94.7622 144.495 95.0512 144.605 95.0766 144.558C95.1021 144.512 94.8535 144.327 94.521 144.146C94.1886 143.965 94.3189 144.097 94.2934 144.146C94.268 144.196 94.0972 144.133 94.4297 144.314Z" fill="#FFD037"/>
<path d="M95.2204 149.058C95.2204 149.058 97.5206 148.986 98.2154 148.494C98.9103 148.001 101.754 147.409 101.926 148.202C102.098 148.994 105.383 152.139 102.786 152.16C100.189 152.18 96.7523 151.755 96.0605 151.334C95.3686 150.914 95.2204 149.058 95.2204 149.058Z" fill="#A8A8A8"/>
<path opacity="0.2" d="M102.826 151.884C100.23 151.905 96.7913 151.48 96.0994 151.059C95.5738 150.737 95.3626 149.585 95.2938 149.055H95.2159C95.2159 149.055 95.3656 150.909 96.0545 151.331C96.7434 151.754 100.183 152.177 102.78 152.156C103.529 152.156 103.788 151.884 103.774 151.489C103.669 151.731 103.383 151.879 102.826 151.884Z" fill="black"/>
<path d="M153.249 107.325C153.249 104.264 155.74 101.913 158.802 101.913H158.846V100.52H158.802C154.972 100.52 151.857 103.496 151.857 107.325C151.857 108.316 152.069 109.295 152.479 110.197C152.89 111.098 153.489 111.901 154.236 112.552L155.223 111.565C154.605 111.045 154.108 110.396 153.767 109.663C153.426 108.931 153.25 108.133 153.249 107.325Z" fill="#00BAFC"/>
<path opacity="0.5" d="M158.985 100.522V101.915C159.877 101.921 160.754 102.141 161.542 102.558C162.331 102.975 163.007 103.576 163.514 104.309C164.021 105.043 164.344 105.888 164.456 106.773C164.567 107.657 164.464 108.556 164.154 109.392C163.845 110.229 163.338 110.978 162.678 111.577C162.017 112.177 161.222 112.608 160.359 112.835C159.497 113.061 158.592 113.077 157.723 112.88C156.853 112.683 156.043 112.28 155.362 111.704L154.373 112.691C155.216 113.428 156.225 113.951 157.315 114.213C158.404 114.476 159.54 114.471 160.627 114.199C161.714 113.927 162.719 113.397 163.556 112.652C164.393 111.907 165.038 110.971 165.435 109.924C165.832 108.876 165.969 107.748 165.835 106.635C165.701 105.523 165.3 104.459 164.666 103.536C164.032 102.612 163.184 101.855 162.194 101.331C161.204 100.806 160.102 100.528 158.982 100.522H158.985Z" fill="#00BAFC"/>
<path opacity="0.5" d="M204.51 101.843C207.571 101.843 209.922 104.333 209.922 107.396C209.922 107.409 209.922 107.424 209.922 107.439H211.314C211.314 107.424 211.314 107.409 211.314 107.396C211.314 103.566 208.339 100.45 204.51 100.45C203.519 100.45 202.54 100.662 201.638 101.073C200.737 101.483 199.933 102.082 199.283 102.83L200.27 103.817C200.79 103.198 201.439 102.701 202.171 102.36C202.904 102.02 203.702 101.843 204.51 101.843Z" fill="#00BAFC"/>
<path d="M211.313 107.578H209.92C209.914 108.47 209.694 109.347 209.277 110.136C208.86 110.924 208.259 111.601 207.526 112.108C206.792 112.615 205.947 112.938 205.062 113.049C204.177 113.16 203.279 113.057 202.442 112.747C201.606 112.438 200.857 111.932 200.257 111.271C199.658 110.61 199.227 109.815 199 108.953C198.773 108.09 198.758 107.186 198.955 106.316C199.151 105.446 199.555 104.637 200.131 103.956L199.148 102.969C198.411 103.812 197.889 104.822 197.626 105.911C197.363 107 197.368 108.137 197.64 109.223C197.912 110.31 198.443 111.315 199.187 112.152C199.932 112.99 200.868 113.634 201.916 114.031C202.963 114.428 204.092 114.565 205.204 114.431C206.316 114.298 207.38 113.897 208.304 113.263C209.227 112.629 209.984 111.78 210.509 110.791C211.034 109.801 211.311 108.699 211.317 107.578H211.313Z" fill="#00BAFC"/>
<path opacity="0.5" d="M184.323 100.929L184.046 102.316C186.084 103.138 187.387 105.136 187.387 107.464C187.387 108.465 187.117 109.447 186.605 110.307C186.093 111.167 185.358 111.872 184.478 112.348C183.598 112.825 182.605 113.054 181.605 113.013C180.606 112.971 179.635 112.66 178.798 112.113C177.96 111.565 177.286 110.801 176.847 109.902C176.408 109.003 176.22 108.002 176.304 107.004C176.387 106.007 176.738 105.051 177.32 104.237C177.902 103.423 178.694 102.782 179.61 102.38L178.993 101.13C177.855 101.642 176.876 102.452 176.159 103.474C175.443 104.496 175.015 105.692 174.92 106.936C174.826 108.181 175.069 109.428 175.624 110.546C176.178 111.664 177.024 112.612 178.072 113.29C179.12 113.968 180.332 114.351 181.579 114.398C182.826 114.446 184.063 114.156 185.159 113.56C186.256 112.964 187.172 112.083 187.81 111.01C188.448 109.937 188.785 108.713 188.786 107.464C188.786 104.459 187.007 101.895 184.323 100.929Z" fill="#00BAFC"/>
<path d="M182.015 101.832C182.68 101.832 183.339 101.969 183.949 102.234L184.226 100.848C183.52 100.577 182.771 100.438 182.015 100.44C181.034 100.44 180.064 100.648 179.17 101.052L179.793 102.299C180.493 101.991 181.25 101.832 182.015 101.832Z" fill="#00BAFC"/>
</g>
<path d="M67.6094 176.723H72.0527C73.9538 176.723 75.3926 176.99 76.3691 177.523C77.3457 178.057 77.834 178.995 77.834 180.336C77.834 180.876 77.7461 181.365 77.5703 181.801C77.401 182.237 77.1536 182.595 76.8281 182.875C76.5026 183.155 76.1055 183.337 75.6367 183.422V183.52C76.112 183.617 76.5417 183.786 76.9258 184.027C77.3099 184.262 77.6159 184.607 77.8438 185.062C78.0781 185.512 78.1953 186.111 78.1953 186.859C78.1953 187.725 77.9837 188.467 77.5605 189.086C77.1374 189.704 76.5319 190.18 75.7441 190.512C74.9629 190.837 74.0319 191 72.9512 191H67.6094V176.723ZM70.6367 182.377H72.3945C73.2734 182.377 73.8822 182.24 74.2207 181.967C74.5592 181.687 74.7285 181.277 74.7285 180.736C74.7285 180.189 74.5267 179.799 74.123 179.564C73.7259 179.324 73.0944 179.203 72.2285 179.203H70.6367V182.377ZM70.6367 184.779V188.5H72.6094C73.5208 188.5 74.1556 188.324 74.5137 187.973C74.8717 187.621 75.0508 187.149 75.0508 186.557C75.0508 186.205 74.9727 185.896 74.8164 185.629C74.6602 185.362 74.3965 185.154 74.0254 185.004C73.6608 184.854 73.1562 184.779 72.5117 184.779H70.6367ZM85.2852 179.857C86.75 179.857 87.873 180.176 88.6543 180.814C89.4355 181.452 89.8262 182.423 89.8262 183.725V191H87.7461L87.1699 189.516H87.0918C86.7793 189.906 86.4603 190.225 86.1348 190.473C85.8092 190.72 85.4349 190.902 85.0117 191.02C84.5885 191.137 84.0742 191.195 83.4688 191.195C82.8242 191.195 82.2448 191.072 81.7305 190.824C81.2227 190.577 80.8223 190.199 80.5293 189.691C80.2363 189.177 80.0898 188.526 80.0898 187.738C80.0898 186.579 80.4967 185.727 81.3105 185.18C82.1243 184.626 83.3451 184.32 84.9727 184.262L86.8672 184.203V183.725C86.8672 183.152 86.7174 182.732 86.418 182.465C86.1185 182.198 85.7018 182.064 85.168 182.064C84.6406 182.064 84.123 182.139 83.6152 182.289C83.1074 182.439 82.5996 182.628 82.0918 182.855L81.1055 180.844C81.6849 180.538 82.3327 180.297 83.0488 180.121C83.7715 179.945 84.5169 179.857 85.2852 179.857ZM86.8672 185.941L85.7148 185.98C84.7513 186.007 84.0807 186.179 83.7031 186.498C83.332 186.817 83.1465 187.237 83.1465 187.758C83.1465 188.214 83.2799 188.539 83.5469 188.734C83.8138 188.923 84.1621 189.018 84.5918 189.018C85.2298 189.018 85.7669 188.829 86.2031 188.451C86.6458 188.074 86.8672 187.536 86.8672 186.84V185.941ZM97.3359 191.195C96.2552 191.195 95.334 191 94.5723 190.609C93.8105 190.212 93.2311 189.6 92.834 188.773C92.4368 187.947 92.2383 186.889 92.2383 185.6C92.2383 184.265 92.4629 183.178 92.9121 182.338C93.3678 181.492 93.9961 180.87 94.7969 180.473C95.6042 180.076 96.5384 179.877 97.5996 179.877C98.3548 179.877 99.0059 179.952 99.5527 180.102C100.106 180.245 100.588 180.417 100.998 180.619L100.119 182.924C99.6504 182.735 99.2142 182.582 98.8105 182.465C98.4069 182.341 98.0033 182.279 97.5996 182.279C97.0788 182.279 96.6458 182.403 96.3008 182.65C95.9557 182.891 95.6986 183.256 95.5293 183.744C95.36 184.232 95.2754 184.844 95.2754 185.58C95.2754 186.303 95.3665 186.902 95.5488 187.377C95.7311 187.852 95.9948 188.207 96.3398 188.441C96.6849 188.669 97.1048 188.783 97.5996 188.783C98.2181 188.783 98.7682 188.702 99.25 188.539C99.7318 188.37 100.201 188.135 100.656 187.836V190.385C100.201 190.671 99.722 190.876 99.2207 191C98.7259 191.13 98.0977 191.195 97.3359 191.195ZM106.174 175.805V182.602C106.174 183.012 106.158 183.422 106.125 183.832C106.092 184.242 106.057 184.652 106.018 185.062H106.057C106.258 184.776 106.464 184.493 106.672 184.213C106.887 183.933 107.115 183.663 107.355 183.402L110.412 180.082H113.771L109.436 184.818L114.035 191H110.598L107.453 186.576L106.174 187.602V191H103.195V175.805H106.174ZM114.631 186.859V184.418H119.875V186.859H114.631ZM126.545 179.877C127.554 179.877 128.423 180.072 129.152 180.463C129.882 180.847 130.445 181.407 130.842 182.143C131.239 182.878 131.438 183.777 131.438 184.838V186.283H124.396C124.429 187.123 124.68 187.784 125.148 188.266C125.624 188.741 126.281 188.979 127.121 188.979C127.818 188.979 128.456 188.907 129.035 188.764C129.615 188.62 130.21 188.406 130.822 188.119V190.424C130.282 190.691 129.715 190.886 129.123 191.01C128.537 191.133 127.824 191.195 126.984 191.195C125.891 191.195 124.921 190.993 124.074 190.59C123.234 190.186 122.574 189.571 122.092 188.744C121.617 187.917 121.379 186.876 121.379 185.619C121.379 184.343 121.594 183.282 122.023 182.436C122.46 181.583 123.065 180.945 123.84 180.521C124.615 180.092 125.516 179.877 126.545 179.877ZM126.564 181.996C125.985 181.996 125.503 182.182 125.119 182.553C124.742 182.924 124.523 183.507 124.465 184.301H128.645C128.638 183.858 128.557 183.464 128.4 183.119C128.251 182.774 128.023 182.501 127.717 182.299C127.417 182.097 127.033 181.996 126.564 181.996ZM140.061 179.877C141.226 179.877 142.163 180.196 142.873 180.834C143.583 181.465 143.938 182.481 143.938 183.881V191H140.959V184.623C140.959 183.842 140.816 183.253 140.529 182.855C140.249 182.458 139.807 182.26 139.201 182.26C138.29 182.26 137.668 182.569 137.336 183.188C137.004 183.806 136.838 184.698 136.838 185.863V191H133.859V180.082H136.135L136.535 181.479H136.701C136.936 181.101 137.225 180.795 137.57 180.561C137.922 180.326 138.309 180.154 138.732 180.043C139.162 179.932 139.605 179.877 140.061 179.877ZM150.461 191.195C149.243 191.195 148.251 190.72 147.482 189.77C146.721 188.812 146.34 187.41 146.34 185.561C146.34 183.692 146.727 182.279 147.502 181.322C148.277 180.359 149.289 179.877 150.539 179.877C151.06 179.877 151.519 179.949 151.916 180.092C152.313 180.235 152.655 180.427 152.941 180.668C153.234 180.909 153.482 181.179 153.684 181.479H153.781C153.742 181.27 153.693 180.964 153.635 180.561C153.583 180.15 153.557 179.73 153.557 179.301V175.805H156.545V191H154.26L153.684 189.584H153.557C153.368 189.883 153.13 190.157 152.844 190.404C152.564 190.645 152.229 190.837 151.838 190.98C151.447 191.124 150.988 191.195 150.461 191.195ZM151.506 188.822C152.32 188.822 152.893 188.581 153.225 188.1C153.563 187.611 153.742 186.879 153.762 185.902V185.58C153.762 184.519 153.599 183.708 153.273 183.148C152.948 182.582 152.342 182.299 151.457 182.299C150.799 182.299 150.285 182.582 149.914 183.148C149.543 183.715 149.357 184.532 149.357 185.6C149.357 186.667 149.543 187.471 149.914 188.012C150.292 188.552 150.822 188.822 151.506 188.822ZM168.312 191.195C167.095 191.195 166.102 190.72 165.334 189.77C164.572 188.812 164.191 187.41 164.191 185.561C164.191 183.692 164.579 182.279 165.354 181.322C166.128 180.359 167.141 179.877 168.391 179.877C168.911 179.877 169.37 179.949 169.768 180.092C170.165 180.235 170.507 180.427 170.793 180.668C171.086 180.909 171.333 181.179 171.535 181.479H171.633C171.594 181.27 171.545 180.964 171.486 180.561C171.434 180.15 171.408 179.73 171.408 179.301V175.805H174.396V191H172.111L171.535 189.584H171.408C171.219 189.883 170.982 190.157 170.695 190.404C170.415 190.645 170.08 190.837 169.689 190.98C169.299 191.124 168.84 191.195 168.312 191.195ZM169.357 188.822C170.171 188.822 170.744 188.581 171.076 188.1C171.415 187.611 171.594 186.879 171.613 185.902V185.58C171.613 184.519 171.451 183.708 171.125 183.148C170.799 182.582 170.194 182.299 169.309 182.299C168.651 182.299 168.137 182.582 167.766 183.148C167.395 183.715 167.209 184.532 167.209 185.6C167.209 186.667 167.395 187.471 167.766 188.012C168.143 188.552 168.674 188.822 169.357 188.822ZM181.984 179.857C183.449 179.857 184.572 180.176 185.354 180.814C186.135 181.452 186.525 182.423 186.525 183.725V191H184.445L183.869 189.516H183.791C183.479 189.906 183.16 190.225 182.834 190.473C182.508 190.72 182.134 190.902 181.711 191.02C181.288 191.137 180.773 191.195 180.168 191.195C179.523 191.195 178.944 191.072 178.43 190.824C177.922 190.577 177.521 190.199 177.229 189.691C176.936 189.177 176.789 188.526 176.789 187.738C176.789 186.579 177.196 185.727 178.01 185.18C178.824 184.626 180.044 184.32 181.672 184.262L183.566 184.203V183.725C183.566 183.152 183.417 182.732 183.117 182.465C182.818 182.198 182.401 182.064 181.867 182.064C181.34 182.064 180.822 182.139 180.314 182.289C179.807 182.439 179.299 182.628 178.791 182.855L177.805 180.844C178.384 180.538 179.032 180.297 179.748 180.121C180.471 179.945 181.216 179.857 181.984 179.857ZM183.566 185.941L182.414 185.98C181.451 186.007 180.78 186.179 180.402 186.498C180.031 186.817 179.846 187.237 179.846 187.758C179.846 188.214 179.979 188.539 180.246 188.734C180.513 188.923 180.861 189.018 181.291 189.018C181.929 189.018 182.466 188.829 182.902 188.451C183.345 188.074 183.566 187.536 183.566 186.84V185.941ZM197.219 187.758C197.219 188.5 197.043 189.128 196.691 189.643C196.346 190.15 195.829 190.538 195.139 190.805C194.449 191.065 193.589 191.195 192.561 191.195C191.799 191.195 191.145 191.146 190.598 191.049C190.057 190.951 189.51 190.788 188.957 190.561V188.1C189.549 188.367 190.184 188.588 190.861 188.764C191.545 188.933 192.144 189.018 192.658 189.018C193.238 189.018 193.651 188.933 193.898 188.764C194.152 188.588 194.279 188.36 194.279 188.08C194.279 187.898 194.227 187.735 194.123 187.592C194.025 187.442 193.811 187.276 193.479 187.094C193.146 186.905 192.626 186.661 191.916 186.361C191.232 186.075 190.669 185.785 190.227 185.492C189.79 185.199 189.465 184.854 189.25 184.457C189.042 184.053 188.938 183.542 188.938 182.924C188.938 181.915 189.328 181.156 190.109 180.648C190.897 180.134 191.949 179.877 193.264 179.877C193.941 179.877 194.585 179.945 195.197 180.082C195.816 180.219 196.451 180.437 197.102 180.736L196.203 182.885C195.663 182.65 195.152 182.458 194.67 182.309C194.195 182.159 193.71 182.084 193.215 182.084C192.779 182.084 192.45 182.143 192.229 182.26C192.007 182.377 191.896 182.556 191.896 182.797C191.896 182.973 191.952 183.129 192.062 183.266C192.18 183.402 192.401 183.555 192.727 183.725C193.059 183.887 193.544 184.099 194.182 184.359C194.8 184.613 195.337 184.88 195.793 185.16C196.249 185.434 196.6 185.775 196.848 186.186C197.095 186.589 197.219 187.113 197.219 187.758ZM204.143 188.822C204.468 188.822 204.784 188.79 205.09 188.725C205.402 188.66 205.712 188.578 206.018 188.48V190.697C205.699 190.84 205.301 190.958 204.826 191.049C204.357 191.146 203.843 191.195 203.283 191.195C202.632 191.195 202.046 191.091 201.525 190.883C201.011 190.668 200.604 190.3 200.305 189.779C200.012 189.252 199.865 188.52 199.865 187.582V182.318H198.439V181.059L200.08 180.062L200.939 177.758H202.844V180.082H205.9V182.318H202.844V187.582C202.844 187.999 202.961 188.311 203.195 188.52C203.436 188.721 203.752 188.822 204.143 188.822ZM218.254 180.082V191H215.969L215.568 189.604H215.412C215.178 189.975 214.885 190.277 214.533 190.512C214.182 190.746 213.794 190.919 213.371 191.029C212.948 191.14 212.508 191.195 212.053 191.195C211.271 191.195 210.591 191.059 210.012 190.785C209.432 190.505 208.98 190.072 208.654 189.486C208.335 188.9 208.176 188.139 208.176 187.201V180.082H211.154V186.459C211.154 187.24 211.294 187.829 211.574 188.227C211.854 188.624 212.3 188.822 212.912 188.822C213.518 188.822 213.993 188.686 214.338 188.412C214.683 188.132 214.924 187.725 215.061 187.191C215.204 186.651 215.275 185.993 215.275 185.219V180.082H218.254ZM227.473 179.877C227.622 179.877 227.795 179.887 227.99 179.906C228.192 179.919 228.355 179.939 228.479 179.965L228.254 182.758C228.156 182.725 228.016 182.702 227.834 182.689C227.658 182.67 227.505 182.66 227.375 182.66C226.991 182.66 226.617 182.709 226.252 182.807C225.894 182.904 225.572 183.064 225.285 183.285C224.999 183.5 224.771 183.786 224.602 184.145C224.439 184.496 224.357 184.929 224.357 185.443V191H221.379V180.082H223.635L224.074 181.918H224.221C224.436 181.547 224.702 181.208 225.021 180.902C225.347 180.59 225.715 180.342 226.125 180.16C226.542 179.971 226.991 179.877 227.473 179.877ZM233.439 191H230.461V175.805H233.439V191ZM241.047 179.857C242.512 179.857 243.635 180.176 244.416 180.814C245.197 181.452 245.588 182.423 245.588 183.725V191H243.508L242.932 189.516H242.854C242.541 189.906 242.222 190.225 241.896 190.473C241.571 190.72 241.197 190.902 240.773 191.02C240.35 191.137 239.836 191.195 239.23 191.195C238.586 191.195 238.007 191.072 237.492 190.824C236.984 190.577 236.584 190.199 236.291 189.691C235.998 189.177 235.852 188.526 235.852 187.738C235.852 186.579 236.258 185.727 237.072 185.18C237.886 184.626 239.107 184.32 240.734 184.262L242.629 184.203V183.725C242.629 183.152 242.479 182.732 242.18 182.465C241.88 182.198 241.464 182.064 240.93 182.064C240.402 182.064 239.885 182.139 239.377 182.289C238.869 182.439 238.361 182.628 237.854 182.855L236.867 180.844C237.447 180.538 238.094 180.297 238.811 180.121C239.533 179.945 240.279 179.857 241.047 179.857ZM242.629 185.941L241.477 185.98C240.513 186.007 239.842 186.179 239.465 186.498C239.094 186.817 238.908 187.237 238.908 187.758C238.908 188.214 239.042 188.539 239.309 188.734C239.576 188.923 239.924 189.018 240.354 189.018C240.992 189.018 241.529 188.829 241.965 188.451C242.408 188.074 242.629 187.536 242.629 186.84V185.941ZM256.281 187.758C256.281 188.5 256.105 189.128 255.754 189.643C255.409 190.15 254.891 190.538 254.201 190.805C253.511 191.065 252.652 191.195 251.623 191.195C250.861 191.195 250.207 191.146 249.66 191.049C249.12 190.951 248.573 190.788 248.02 190.561V188.1C248.612 188.367 249.247 188.588 249.924 188.764C250.607 188.933 251.206 189.018 251.721 189.018C252.3 189.018 252.714 188.933 252.961 188.764C253.215 188.588 253.342 188.36 253.342 188.08C253.342 187.898 253.29 187.735 253.186 187.592C253.088 187.442 252.873 187.276 252.541 187.094C252.209 186.905 251.688 186.661 250.979 186.361C250.295 186.075 249.732 185.785 249.289 185.492C248.853 185.199 248.527 184.854 248.312 184.457C248.104 184.053 248 183.542 248 182.924C248 181.915 248.391 181.156 249.172 180.648C249.96 180.134 251.011 179.877 252.326 179.877C253.003 179.877 253.648 179.945 254.26 180.082C254.878 180.219 255.513 180.437 256.164 180.736L255.266 182.885C254.725 182.65 254.214 182.458 253.732 182.309C253.257 182.159 252.772 182.084 252.277 182.084C251.841 182.084 251.512 182.143 251.291 182.26C251.07 182.377 250.959 182.556 250.959 182.797C250.959 182.973 251.014 183.129 251.125 183.266C251.242 183.402 251.464 183.555 251.789 183.725C252.121 183.887 252.606 184.099 253.244 184.359C253.863 184.613 254.4 184.88 254.855 185.16C255.311 185.434 255.663 185.775 255.91 186.186C256.158 186.589 256.281 187.113 256.281 187.758ZM261.584 175.805V178.9C261.584 179.441 261.564 179.955 261.525 180.443C261.493 180.932 261.467 181.277 261.447 181.479H261.604C261.838 181.101 262.115 180.795 262.434 180.561C262.759 180.326 263.117 180.154 263.508 180.043C263.898 179.932 264.318 179.877 264.768 179.877C265.555 179.877 266.242 180.017 266.828 180.297C267.414 180.57 267.87 181.003 268.195 181.596C268.521 182.182 268.684 182.943 268.684 183.881V191H265.705V184.623C265.705 183.842 265.562 183.253 265.275 182.855C264.989 182.458 264.546 182.26 263.947 182.26C263.348 182.26 262.876 182.4 262.531 182.68C262.186 182.953 261.942 183.36 261.799 183.9C261.656 184.434 261.584 185.089 261.584 185.863V191H258.605V175.805H261.584Z" fill="black"/>
<path d="M132.555 230L128.719 219.891H128.656C128.677 220.104 128.695 220.365 128.711 220.672C128.727 220.979 128.74 221.315 128.75 221.68C128.76 222.039 128.766 222.406 128.766 222.781V230H127.531V218.578H129.5L133.117 228.078H133.172L136.844 218.578H138.797V230H137.484V222.688C137.484 222.349 137.49 222.01 137.5 221.672C137.51 221.328 137.523 221.005 137.539 220.703C137.555 220.396 137.57 220.13 137.586 219.906H137.523L133.641 230H132.555ZM148.797 221.438V230H147.734L147.547 228.797H147.477C147.299 229.094 147.07 229.344 146.789 229.547C146.508 229.75 146.19 229.901 145.836 230C145.487 230.104 145.115 230.156 144.719 230.156C144.042 230.156 143.474 230.047 143.016 229.828C142.557 229.609 142.211 229.271 141.977 228.812C141.747 228.354 141.633 227.766 141.633 227.047V221.438H142.945V226.953C142.945 227.667 143.107 228.201 143.43 228.555C143.753 228.904 144.245 229.078 144.906 229.078C145.542 229.078 146.047 228.958 146.422 228.719C146.802 228.479 147.076 228.128 147.242 227.664C147.409 227.195 147.492 226.622 147.492 225.945V221.438H148.797ZM152.828 217.844V224.156C152.828 224.365 152.82 224.62 152.805 224.922C152.789 225.219 152.776 225.482 152.766 225.711H152.82C152.93 225.576 153.089 225.375 153.297 225.109C153.51 224.844 153.69 224.63 153.836 224.469L156.68 221.438H158.203L154.758 225.094L158.453 230H156.891L153.867 225.945L152.828 226.898V230H151.539V217.844H152.828ZM163.148 221.297C164.169 221.297 164.927 221.526 165.422 221.984C165.917 222.443 166.164 223.174 166.164 224.18V230H165.219L164.969 228.734H164.906C164.667 229.047 164.417 229.31 164.156 229.523C163.896 229.732 163.594 229.891 163.25 230C162.911 230.104 162.495 230.156 162 230.156C161.479 230.156 161.016 230.065 160.609 229.883C160.208 229.701 159.891 229.424 159.656 229.055C159.427 228.685 159.312 228.216 159.312 227.648C159.312 226.794 159.651 226.138 160.328 225.68C161.005 225.221 162.036 224.971 163.422 224.93L164.898 224.867V224.344C164.898 223.604 164.74 223.086 164.422 222.789C164.104 222.492 163.656 222.344 163.078 222.344C162.63 222.344 162.203 222.409 161.797 222.539C161.391 222.669 161.005 222.823 160.641 223L160.242 222.016C160.628 221.818 161.07 221.648 161.57 221.508C162.07 221.367 162.596 221.297 163.148 221.297ZM164.883 225.781L163.578 225.836C162.51 225.878 161.758 226.052 161.32 226.359C160.883 226.667 160.664 227.102 160.664 227.664C160.664 228.154 160.812 228.516 161.109 228.75C161.406 228.984 161.799 229.102 162.289 229.102C163.049 229.102 163.672 228.891 164.156 228.469C164.641 228.047 164.883 227.414 164.883 226.57V225.781ZM178.133 221.281C179.076 221.281 179.786 221.529 180.266 222.023C180.745 222.513 180.984 223.302 180.984 224.391V230H179.703V224.453C179.703 223.76 179.552 223.242 179.25 222.898C178.953 222.549 178.51 222.375 177.922 222.375C177.094 222.375 176.492 222.615 176.117 223.094C175.742 223.573 175.555 224.279 175.555 225.211V230H174.266V224.453C174.266 223.99 174.198 223.604 174.062 223.297C173.932 222.99 173.734 222.76 173.469 222.609C173.208 222.453 172.878 222.375 172.477 222.375C171.909 222.375 171.453 222.492 171.109 222.727C170.766 222.961 170.516 223.31 170.359 223.773C170.208 224.232 170.133 224.797 170.133 225.469V230H168.836V221.438H169.883L170.078 222.648H170.148C170.32 222.352 170.536 222.102 170.797 221.898C171.057 221.695 171.349 221.542 171.672 221.438C171.995 221.333 172.339 221.281 172.703 221.281C173.354 221.281 173.898 221.404 174.336 221.648C174.779 221.888 175.099 222.255 175.297 222.75H175.367C175.648 222.255 176.034 221.888 176.523 221.648C177.013 221.404 177.549 221.281 178.133 221.281ZM192.945 221.281C193.888 221.281 194.599 221.529 195.078 222.023C195.557 222.513 195.797 223.302 195.797 224.391V230H194.516V224.453C194.516 223.76 194.365 223.242 194.062 222.898C193.766 222.549 193.323 222.375 192.734 222.375C191.906 222.375 191.305 222.615 190.93 223.094C190.555 223.573 190.367 224.279 190.367 225.211V230H189.078V224.453C189.078 223.99 189.01 223.604 188.875 223.297C188.745 222.99 188.547 222.76 188.281 222.609C188.021 222.453 187.69 222.375 187.289 222.375C186.721 222.375 186.266 222.492 185.922 222.727C185.578 222.961 185.328 223.31 185.172 223.773C185.021 224.232 184.945 224.797 184.945 225.469V230H183.648V221.438H184.695L184.891 222.648H184.961C185.133 222.352 185.349 222.102 185.609 221.898C185.87 221.695 186.161 221.542 186.484 221.438C186.807 221.333 187.151 221.281 187.516 221.281C188.167 221.281 188.711 221.404 189.148 221.648C189.591 221.888 189.911 222.255 190.109 222.75H190.18C190.461 222.255 190.846 221.888 191.336 221.648C191.826 221.404 192.362 221.281 192.945 221.281ZM201.664 221.297C202.685 221.297 203.443 221.526 203.938 221.984C204.432 222.443 204.68 223.174 204.68 224.18V230H203.734L203.484 228.734H203.422C203.182 229.047 202.932 229.31 202.672 229.523C202.411 229.732 202.109 229.891 201.766 230C201.427 230.104 201.01 230.156 200.516 230.156C199.995 230.156 199.531 230.065 199.125 229.883C198.724 229.701 198.406 229.424 198.172 229.055C197.943 228.685 197.828 228.216 197.828 227.648C197.828 226.794 198.167 226.138 198.844 225.68C199.521 225.221 200.552 224.971 201.938 224.93L203.414 224.867V224.344C203.414 223.604 203.255 223.086 202.938 222.789C202.62 222.492 202.172 222.344 201.594 222.344C201.146 222.344 200.719 222.409 200.312 222.539C199.906 222.669 199.521 222.823 199.156 223L198.758 222.016C199.143 221.818 199.586 221.648 200.086 221.508C200.586 221.367 201.112 221.297 201.664 221.297ZM203.398 225.781L202.094 225.836C201.026 225.878 200.273 226.052 199.836 226.359C199.398 226.667 199.18 227.102 199.18 227.664C199.18 228.154 199.328 228.516 199.625 228.75C199.922 228.984 200.315 229.102 200.805 229.102C201.565 229.102 202.188 228.891 202.672 228.469C203.156 228.047 203.398 227.414 203.398 226.57V225.781ZM208.656 230H207.352V217.844H208.656V230Z" fill="black"/>
</g>
<defs>
<filter id="filter0_d_0_554" x="0" y="0" width="336" height="276" filterUnits="userSpaceOnUse" color-interpolation-filters="sRGB">
<feFlood flood-opacity="0" result="BackgroundImageFix"/>
<feColorMatrix in="SourceAlpha" type="matrix" values="0 0 0 0 0 0 0 0 0 0 0 0 0 0 0 0 0 0 127 0" result="hardAlpha"/>
<feOffset dy="8"/>
<feGaussianBlur stdDeviation="4"/>
<feColorMatrix type="matrix" values="0 0 0 0 0 0 0 0 0 0 0 0 0 0 0 0 0 0 0.1 0"/>
<feBlend mode="normal" in2="BackgroundImageFix" result="effect1_dropShadow_0_554"/>
<feBlend mode="normal" in="SourceGraphic" in2="effect1_dropShadow_0_554" result="shape"/>
</filter>
<linearGradient id="paint0_linear_0_554" x1="129.139" y1="152.598" x2="129.139" y2="89.3548" gradientUnits="userSpaceOnUse">
<stop stop-color="#808080" stop-opacity="0.25"/>
<stop offset="0.54" stop-color="#808080" stop-opacity="0.12"/>
<stop offset="1" stop-color="#808080" stop-opacity="0.1"/>
</linearGradient>
<clipPath id="clip0_0_554">
<rect width="169.22" height="130" fill="white" transform="translate(83.3899 24)"/>
</clipPath>
</defs>
</svg>
